<?xml version="1.0" encoding="UTF-8" standalone="no"?>
<!-- Created with Inkscape (http://www.inkscape.org/) -->

<svg
   version="1.1"
   id="svg1"
   width="785.33331"
   height="1210.6667"
   viewBox="0 0 785.33331 1210.6667"
   sodipodi:docname="glass7c.svg"
   inkscape:version="1.3.2 (091e20ef0f, 2023-11-25)"
   xmlns:inkscape="http://www.inkscape.org/namespaces/inkscape"
   xmlns:sodipodi="http://sodipodi.sourceforge.net/DTD/sodipodi-0.dtd"
   xmlns="http://www.w3.org/2000/svg"
   xmlns:svg="http://www.w3.org/2000/svg">
  <defs
     id="defs1">
    <inkscape:path-effect
       effect="bspline"
       id="path-effect15"
       is_visible="true"
       lpeversion="1.3"
       weight="33.333333"
       steps="2"
       helper_size="0"
       apply_no_weight="true"
       apply_with_weight="true"
       only_selected="false"
       uniform="false" />
    <inkscape:path-effect
       effect="bspline"
       id="path-effect14"
       is_visible="true"
       lpeversion="1.3"
       weight="33.333333"
       steps="2"
       helper_size="0"
       apply_no_weight="true"
       apply_with_weight="true"
       only_selected="false"
       uniform="false" />
    <inkscape:path-effect
       effect="bspline"
       id="path-effect13"
       is_visible="true"
       lpeversion="1.3"
       weight="33.333333"
       steps="2"
       helper_size="0"
       apply_no_weight="true"
       apply_with_weight="true"
       only_selected="false"
       uniform="false" />
  </defs>
  <sodipodi:namedview
     id="namedview1"
     pagecolor="#ffffff"
     bordercolor="#000000"
     borderopacity="0.25"
     inkscape:showpageshadow="2"
     inkscape:pageopacity="0.0"
     inkscape:pagecheckerboard="0"
     inkscape:deskcolor="#d1d1d1"
     showgrid="false"
     inkscape:zoom="0.87885424"
     inkscape:cx="393.12549"
     inkscape:cy="514.87491"
     inkscape:window-width="1920"
     inkscape:window-height="1011"
     inkscape:window-x="0"
     inkscape:window-y="0"
     inkscape:window-maximized="1"
     inkscape:current-layer="layer1" />
  <g
     inkscape:groupmode="layer"
     id="layer1"
     inkscape:label="Layer 1">
    <path
       style="fill:#000000"
       d="m 329.99999,1136.6479 c -56.00666,-6.2553 -135.97375,-43.6667 -158.96144,-74.3677 -12.62797,-16.8652 -17.22543,-28.8624 -18.44979,-48.1451 -0.66049,-10.4021 -0.29632,-13.8128 2.55016,-23.88369 5.08203,-17.98038 12.51753,-29.89309 29.02836,-46.50752 24.58861,-24.74289 59.99259,-44.1561 98.26298,-53.88096 6.83665,-1.73725 12.94233,-3.47511 13.56817,-3.8619 2.35749,-1.45701 31.31433,-5.42703 59.8223,-8.20171 l 7.15406,-0.69631 -0.71811,-16.88481 c -1.49893,-35.24401 -9.88607,-136.41998 -12.94995,-156.21815 -1.81462,-11.72574 -3.43364,-16.3049 -9.84122,-27.83446 -14.3686,-25.85433 -50.1622,-57.04598 -90.13218,-78.54399 -17.80028,-9.57395 -38.72481,-22.91743 -52.80594,-33.67411 -20.05966,-15.32373 -49.37409,-45.06317 -63.03356,-63.94746 -13.5552,-18.74011 -25.82937,-43.13866 -29.51345,-58.66667 -1.47887,-6.23333 -3.23658,-13.13333 -3.90601,-15.33333 -0.669426,-2.2 -1.887473,-8.8 -2.70677,-14.66667 -0.819296,-5.86667 -2.097607,-13.96667 -2.840691,-18 -0.743084,-4.03333 -1.696651,-21.43334 -2.119037,-38.66667 -0.607409,-24.78225 -0.32946,-34.26041 1.329411,-45.33334 1.153563,-7.7 3.073136,-21.2 4.26572,-30 3.866117,-28.52785 6.039187,-41.98148 10.660487,-66 1.19934,-6.23334 3.00073,-17.63334 4.0031,-25.33334 4.84325,-37.20477 4.48733,-35.69998 12.16371,-51.42696 1.09896,-2.2515 3.61171,-5.02222 5.5839,-6.15717 31.37708,-18.05675 76.97508,-37.478153 101.58579,-43.268103 12.67352,-2.981588 21.2314,-4.488955 48,-8.454618 39.64239,-5.872864 123.46808,-6.492736 182.66666,-1.35078 58.86366,5.112865 82.26604,7.941928 122,14.748311 10.25801,1.757186 26.85283,7.476754 32,11.02912 9.97039,6.88114 26.08274,21.30978 30.30692,27.13991 4.5104,6.22515 6.52197,10.89328 10.94068,25.38934 2.7802,9.12075 10.12175,49.84409 14.72595,81.68429 1.11344,7.7 2.60298,16.7 3.31008,20 0.7071,3.3 1.64701,9 2.0887,12.66667 0.44169,3.66667 1.63015,12.36667 2.64102,19.33333 4.38471,30.21818 5.31593,43.40071 5.22738,74.00001 -0.0795,27.45835 -0.51713,34.17621 -3.08374,47.33333 -5.23677,26.84512 -12.39794,48.55768 -22.95104,69.58717 -19.9854,39.82558 -50.0013,73.06749 -97.87261,108.39166 -8.8,6.49351 -16.3,12.15845 -16.66667,12.58875 -0.36667,0.4303 -4.56667,4.05575 -9.33333,8.05656 -13.34982,11.2049 -34.96276,33.86392 -43.16024,45.24923 -9.14548,12.70195 -16.64173,27.65741 -18.36772,36.64466 -3.61218,18.80866 -2.52925,120.36577 1.59397,149.482 1.95459,13.8024 7.37437,27.06478 13.45857,32.93354 6.22994,6.00936 11.21822,7.50213 28.47542,8.52147 16.67895,0.98518 42.7713,5.86155 63.84135,11.93124 19.27055,5.55131 20.08734,5.86144 38.82531,14.74166 13.36259,6.33275 15.67446,7.99943 26.00104,18.74477 21.76174,22.64419 30.96575,50.80303 26.81039,82.024 -2.74688,20.6384 -16.87116,44.4852 -35.96027,60.7136 -26.72581,22.7206 -65.08314,40.8384 -117.51782,55.5085 -13.92633,3.8963 -48.33443,8.3286 -89.69185,11.5536 -22.64807,1.7661 -81.96639,1.3573 -100.30815,-0.6912 z"
       id="path1" />
    <path
       id="path2"
       style="fill:#ff0000"
       d="M 389.73242 95.923828 C 366.02539 95.798328 341.96398 96.254881 325.33398 97.333984 C 285.88151 99.894016 261.86334 103.60312 226.66602 112.57422 C 183.83641 123.49063 166.93869 130.28102 158.01172 140.16211 C 153.90809 144.70433 153.33552 146.2007 153.34961 152.33789 C 153.36091 157.28367 154.31596 160.99661 156.60938 165.00781 C 161.06671 172.8037 170.68665 184 172.92773 184 C 173.94215 184 177.1341 182.79625 180.01953 181.32422 C 182.90495 179.85218 192.33145 175.89978 200.9668 172.54297 C 222.43403 164.19807 236.83437 160.89055 278.66602 154.69336 C 318.30837 148.82051 402.13546 148.19985 461.33398 153.3418 C 511.54271 157.7029 532.35432 160.01103 558.66602 164.13086 C 587.457 168.63887 592.43909 169.65686 601.2793 172.85156 L 609.89062 175.96484 L 615.94531 170.85352 C 619.27549 168.04281 623.29596 163.45476 624.88086 160.6582 C 631.03858 149.7929 623.75703 135.30932 608.17188 127.42578 C 600.88607 123.74034 576.00567 115.12915 569.33398 113.98438 C 566.76732 113.54398 559.26601 111.97758 552.66602 110.50195 C 546.06602 109.02631 538.56666 107.56479 536 107.25586 C 533.43333 106.94693 525.63268 105.83031 518.66602 104.77344 C 503.79343 102.51721 483.14103 100.20959 470 99.335938 C 464.86667 98.994659 456.76666 98.394948 452 98.003906 C 436.79157 96.756256 413.43945 96.049329 389.73242 95.923828 z M 142.29492 193.8418 C 139.95548 193.95678 138.32417 194.88873 136.68555 196.52734 C 134.84195 198.37094 133.33398 200.81036 133.33398 201.94922 C 133.33398 203.08808 131.59816 210.16466 129.47852 217.67578 C 127.35885 225.1869 124.36342 239.73335 122.82031 250 C 117.63554 284.49552 115.98095 296.61054 114.98828 307.33398 C 113.51793 323.21773 114.05845 383.47126 115.75391 392.66602 C 128.00444 459.10315 155.68058 502.76639 208 538.19531 C 213.49998 541.91973 228.80002 550.55212 242 557.37891 C 268.68736 571.1811 282.46281 579.50502 297.33398 590.81641 C 308.64347 599.41869 325.91706 616.7505 335.05859 628.66602 C 343.68465 639.90961 359.68641 667.74356 367.19727 684.57031 C 378.41741 709.70721 380.5425 728.23382 381.97266 813.33398 C 382.41016 839.36727 383.05614 877.08621 383.4082 897.1543 L 384.04883 933.64258 L 377.02539 942.00977 C 373.1619 946.61188 366.04212 955.39176 361.20508 961.52148 C 343.08775 984.48055 341.94182 988.00937 350.29492 995.11328 C 358.97021 1002.4912 364 1007.6859 364 1009.2676 C 364 1012.2514 354.51975 1014.9902 347.38672 1014.0664 C 331.4705 1012.0051 324.19985 1007.4277 321.26172 997.62109 C 319.8694 992.97396 319.95054 990.6515 321.75391 983.34375 C 324.26515 973.16743 328.91509 965.88804 341.91602 951.78516 C 355.35768 937.20414 360.66602 927.94457 360.66602 919.08203 C 360.66602 913.24161 360.0649 911.45943 357.08789 908.48242 C 353.96064 905.35519 352.18927 904.82706 343.06445 904.29883 C 334.61107 903.80947 329.07051 904.50001 313.97852 907.92969 C 279.08561 915.85914 236.55348 931.64054 219.11523 943.12891 C 194.79755 959.14947 177.4544 986.80758 177.36719 1009.7051 C 177.33859 1017.2243 178.03434 1020.1329 181.50977 1027.0176 C 191.83533 1047.4725 220.41383 1068.5368 256.66602 1082.4121 C 271.56393 1088.1141 319.3522 1100.7402 345.33398 1105.8398 C 367.53361 1110.1971 393.11479 1113.2543 400 1112.373 C 401.83333 1112.1383 409.93335 1111.3864 418 1110.7012 C 475.23323 1105.8402 535.03809 1091.5754 567.33398 1075.082 C 582.27078 1067.4538 587.39639 1063.9999 606.90234 1048.418 C 631.43393 1028.8213 643.61525 1013.7829 649.3125 996.06445 C 654.63195 979.52092 650.96631 962.38633 639.36133 949.54102 C 618.32737 926.25893 558.16004 899.1878 521.33398 896.4375 C 505.17149 895.23043 494.66602 899.54335 494.66602 907.38672 C 494.66602 915.49115 507.34177 931.51938 528.45117 950.10742 C 535.66643 956.46088 542.71462 963.53635 544.11328 965.83008 C 549.74309 975.0627 546.03456 989.54478 534.98242 1001.4824 C 523.22688 1014.1798 518.62512 1016.4402 494.66602 1021.3027 C 478.12715 1024.6592 427.00251 1027.0715 411.33398 1025.2344 C 399.93327 1023.8977 388 1019.2211 388 1016.0898 C 388 1011.16 396.10259 1010.0745 434 1009.9277 C 480.26161 1009.7485 482.5276 1009.1972 501.33398 993.52344 C 506.10065 989.55076 512.31989 984.21975 515.15625 981.67773 C 520.29762 977.06989 520.30702 977.04794 517.82422 973.97461 C 504.52999 957.5184 497.2064 948.85885 484.03516 934.02344 C 475.58266 924.50301 466.73997 915.01052 464.38477 912.92969 C 457.88925 907.1909 455.0097 901.6099 451.42383 887.80859 C 444.73464 862.06336 442.1103 822.22615 444.21289 778.32422 C 444.95899 762.74564 445.58802 748.80065 445.60938 747.33398 C 445.63076 745.86734 446.47454 738.66732 447.48633 731.33398 C 448.49813 724.00067 449.6742 715.00065 450.09961 711.33398 C 450.89999 704.43537 456.10173 681.83931 458.82031 673.44922 C 462.28411 662.75934 472.54971 641.72925 478.9707 632.16992 C 491.9787 612.8041 502.30353 602.70583 549.35156 563.33398 C 564.83809 550.3742 570.80602 545.02868 570.32617 544.54883 C 569.9842 544.20687 549.38799 551.04206 542.66602 553.72852 C 538.59058 555.35725 505.57085 564.02245 493.32617 566.67578 C 452.53854 575.51414 431.45633 578.49117 402.66602 579.48242 C 384.21665 580.11763 376.54249 579.82289 366 578.07227 C 358.66669 576.85453 350.26732 575.54221 347.33398 575.15625 C 342.34773 574.50016 324.43531 570.51068 306 565.94922 C 265.04149 555.81481 220.61441 537.43874 205.22461 524.26562 C 199.64576 519.49036 198.46319 516 202.42383 516 C 205.97154 516 217.4234 519.55721 233.33398 525.60156 C 275.32365 541.55325 352.6512 551.95352 429.33398 551.96484 C 464.0891 551.96984 508.55317 546.51883 527.48828 539.92969 C 562.30496 527.81398 612.0563 490.01281 627.66211 463.81836 C 635.90235 449.98703 651.80193 399.42136 654.02539 379.97461 C 654.43563 376.38653 655.65043 368.47507 656.72656 362.39258 C 658.86722 350.2931 658.53706 306.39127 656.19141 291.33398 C 649.303 247.11606 637.92845 208.23346 629.76953 201.00977 C 627.37121 198.88636 626.52085 198.85127 619.85352 200.58789 C 615.84203 201.63275 610.18308 203.35291 607.2793 204.41016 C 583.49637 213.0693 574.60441 216.44565 570 218.56836 C 567.06666 219.92068 560.166 222.29883 554.66602 223.85352 C 549.16602 225.40819 542.866 227.26051 540.66602 227.96875 C 527.22014 232.29731 483.62137 234.61525 415.33398 234.63086 C 345.34927 234.64686 293.21708 232.1404 258.66602 227.09961 C 250.96602 225.97622 242.56667 224.80739 240 224.50195 C 237.43334 224.19651 226.77545 221.8482 216.31641 219.28516 C 197.17335 214.59401 187.94802 211.3452 163.20312 200.57617 C 152.05962 195.72649 146.19399 193.65017 142.29492 193.8418 z M 154.71094 225.78711 C 155.5749 225.73653 156.58498 226.10972 158.18945 226.88086 C 163.11931 229.25025 164.88168 235.44194 162.98633 243.72461 C 161.99218 248.06902 161.9781 250.50373 162.93945 251.66211 C 163.94895 252.87847 163.76614 253.33398 162.26953 253.33398 C 155.81214 253.33398 149.11473 298.30668 149.2793 340.56055 C 149.45923 386.75832 152.834 403.7079 167.88477 434 C 172.98579 444.26665 178.16802 455.06667 179.40039 458 C 187.01394 476.12204 186.15055 482.67446 177.04492 475.87891 C 172.99997 472.86013 158.8223 455.63844 153.69336 447.51367 C 149.17392 440.35442 140.68445 423.06022 138.87891 417.33398 C 136.08997 408.48904 132.98013 388.62812 131.99023 373.33398 C 129.24651 330.94246 142.30542 236.10702 152.10742 227.23633 C 153.12945 226.31141 153.84698 225.83769 154.71094 225.78711 z M 602.02539 230.66602 C 611.15464 230.66602 618.16952 247.93181 622.07031 280 C 625.3787 307.19799 625.47163 368.2962 622.23047 385.91211 C 615.86951 420.48446 591.71937 467.41133 569.91602 487.56836 C 558.10379 498.48867 532.29865 508.54732 502 514.04102 C 489.01174 516.396 464.20002 517.48298 459.06641 515.92188 C 445.3063 511.73748 457.75271 503.24367 496 490.71875 C 507.36664 486.99648 517.86733 483.42805 519.33398 482.78711 C 537.31724 474.92839 546.22457 469.94009 552.10938 464.43555 C 559.39446 457.62119 576.1596 434.31099 581.66992 423.33398 C 586.01683 414.6746 592.83022 393.16692 593.91992 384.66602 C 594.38993 380.99936 595.37177 374.40001 596.10156 370 C 600.08703 345.97109 602.3438 284.84237 599.99023 264.66602 C 596.35528 233.50459 596.52451 230.66602 602.02539 230.66602 z M 330.99219 593.69922 C 332.89739 593.71892 335.53073 594.21605 339.08398 595.14844 C 352.62901 598.70268 359.5948 599.07297 416 599.23633 C 465.92518 599.38093 474.66602 599.88528 474.66602 602.62891 C 474.66602 608.54133 447.43738 623.2704 426.66602 628.59375 C 411.12328 632.57709 401.77031 633.46914 391.33398 631.96289 C 377.70384 629.99569 369.472 627.90614 360.04688 624.01953 C 342.62905 616.83701 326.66602 604.27694 326.66602 597.75391 C 326.66602 594.95719 327.81684 593.66638 330.99219 593.69922 z M 566.50977 936.49805 C 569.77548 936.35621 574.88732 937.91039 584.12305 941.4668 C 604.40817 949.27798 631.35759 970.85649 637.81055 984.45508 C 640.82482 990.80722 639.94628 994.94897 633.4668 1004.9355 C 618.30313 1028.3069 576.69805 1052.0117 535.33398 1060.8477 C 504.82108 1067.3654 495.06914 1068.7171 492.16797 1066.8301 C 489.63202 1065.1807 498.80139 1060.0215 513.33398 1054.9199 C 560.36538 1038.4099 594.71327 1010.303 594.65234 988.37695 C 594.63554 982.33166 587.91746 972.91441 574.86133 960.63477 C 570.202 956.25254 564.88141 950.09341 563.03711 946.94727 C 559.77064 941.37507 559.74665 941.15621 562.13281 938.51953 C 563.25549 937.27899 564.55033 936.58315 566.50977 936.49805 z M 314.89453 938.66602 C 321.03749 938.66602 314.07736 951.3406 300.61523 964.66602 C 278.2867 986.76781 270.10991 1008.9669 279.22461 1022.7402 C 282.26945 1027.3413 291.44349 1034.6081 296.51367 1036.4336 C 298.75787 1037.2416 296.94401 1038.5588 292.57031 1039.2969 C 290.42378 1039.6592 285.29524 1038.855 281.17578 1037.5098 C 270.39769 1033.9902 259.83812 1027.5679 253.47266 1020.6621 C 244.88652 1011.3473 244.38611 1009.4257 248.56641 1001.7969 C 258.87123 982.99097 305.44094 938.66602 314.89453 938.66602 z M 247.4668 960 C 251.33971 960 254.89599 960.627 255.36914 961.39258 C 256.45752 963.15361 253.18927 968.16512 245.4082 976.66602 C 232.33778 990.9456 225.83363 1001.2181 224.44531 1009.7734 C 222.8982 1019.3071 230.62922 1029.3914 252.99023 1047.0059 C 257.56841 1050.6122 262.56027 1055.3102 264.08203 1057.4473 L 266.84766 1061.334 L 262.42383 1061.2402 C 259.99056 1061.1882 255.89286 1060.3691 253.31836 1059.4199 C 237.11769 1053.447 218.53227 1040.8284 212.04297 1031.3965 C 201.29847 1015.7799 198.69661 1002.2904 204.22461 990.87109 C 211.63374 975.56585 233.43625 960 247.4668 960 z M 397.37109 966.8418 C 401.98219 966.87109 408.3263 968.65389 416 972.11914 C 425.11891 976.23701 427.11539 976.63501 438.66602 976.625 C 449.6893 976.615 452.45774 976.11643 460 972.79102 C 470.61102 968.11255 485.11475 966.52375 487.78906 969.74609 C 491.19639 973.85167 483.98348 982.50086 472 988.67773 C 465.06817 992.25074 448.70789 996 440.05273 996 C 435.86784 996 432.19422 995.76933 431.88867 995.48828 C 431.58311 995.20723 428.2749 994.61665 424.53711 994.17383 C 416.41146 993.21118 409.5146 990.47327 401.36328 984.97852 C 390.08893 977.37853 386.60512 970.88827 392.19531 967.89648 C 393.53714 967.17837 395.27515 966.82848 397.37109 966.8418 z M 312.49805 1039.2676 C 316.03561 1039.1497 323.15486 1043.2207 324.88477 1046.6445 C 328.62893 1054.0549 321.49429 1055.7342 314.04688 1049.1953 C 308.99743 1044.7618 307.97497 1040.8078 311.52539 1039.4453 C 311.80474 1039.3381 312.13209 1039.2798 312.49805 1039.2676 z " />
    <path
       style="fill:#ffdd55"
       d="m 481.99999,211.40398 c 14.66666,-1.15656 28.16666,-2.38715 30,-2.73465 1.83333,-0.3475 9.03333,-1.54903 16,-2.67005 6.96666,-1.12102 14.16666,-2.58647 16,-3.25656 1.83333,-0.67008 9.56156,-3.10308 17.17384,-5.40667 14.03312,-4.24663 15.49866,-5.82175 6.82616,-7.33652 -2.56667,-0.4483 -10.06667,-2.02243 -16.66667,-3.49806 -6.6,-1.47563 -14.1,-2.93573 -16.66667,-3.24466 -2.56666,-0.30894 -10.36666,-1.42641 -17.33333,-2.48328 -14.8726,-2.25624 -35.52563,-4.56374 -48.66667,-5.4374 -5.13333,-0.34128 -13.23333,-0.94045 -18,-1.33149 -45.60266,-3.74109 -121.69269,-2.54749 -163.33332,2.56217 -33.62495,4.12607 -96.56942,19.00689 -90,21.27708 7.99907,2.76422 37.2792,8.08143 52,9.44309 4.76666,0.44091 10.16666,1.07906 12,1.4181 5.47982,1.01341 38.01962,3.35538 58,4.17441 10.26666,0.42085 18.93621,1.01468 19.26565,1.31962 1.525,1.41157 119.12202,-0.88059 143.40101,-2.79513 z"
       id="path3" />
  </g>
</svg>
