<?xml version="1.0" encoding="UTF-8" standalone="no"?>
<!-- Created with Inkscape (http://www.inkscape.org/) -->

<svg
   version="1.1"
   id="svg1"
   width="257.48746"
   height="375.6507"
   viewBox="0 0 257.48746 375.6507"
   sodipodi:docname="409b.svg"
   inkscape:version="1.3.2 (091e20ef0f, 2023-11-25)"
   xmlns:inkscape="http://www.inkscape.org/namespaces/inkscape"
   xmlns:sodipodi="http://sodipodi.sourceforge.net/DTD/sodipodi-0.dtd"
   xmlns="http://www.w3.org/2000/svg"
   xmlns:svg="http://www.w3.org/2000/svg">
  <defs
     id="defs1" />
  <sodipodi:namedview
     id="namedview1"
     pagecolor="#ffffff"
     bordercolor="#000000"
     borderopacity="0.25"
     inkscape:showpageshadow="2"
     inkscape:pageopacity="0.0"
     inkscape:pagecheckerboard="0"
     inkscape:deskcolor="#d1d1d1"
     showgrid="false"
     inkscape:zoom="1.965332"
     inkscape:cx="134.83727"
     inkscape:cy="178.85019"
     inkscape:window-width="1920"
     inkscape:window-height="1011"
     inkscape:window-x="0"
     inkscape:window-y="0"
     inkscape:window-maximized="1"
     inkscape:current-layer="layer1" />
  <g
     inkscape:groupmode="layer"
     id="layer1"
     inkscape:label="Layer 1"
     transform="translate(-69.765785,-25.85761)">
    <path
       style="fill:#000000"
       d="M 229.54381,393.94207 210.08,386.37581 185.6,371.6836 c -17.15327,-10.29492 -30.04743,-18.32183 -43.08187,-26.81945 l -18.60187,-12.12724 -5.92601,-12.52845 -5.92601,-12.52846 -1.09969,-27.62315 -1.0997,-27.62314 2.44055,-8.69686 2.44054,-8.69685 4.5482,-7.66283 c 2.50151,-4.21456 4.43967,-7.75579 4.30703,-7.86941 -0.13264,-0.11362 -3.94914,-0.68728 -8.48111,-1.2748 l -8.23993,-1.06823 -3.69036,-4.02236 -3.690364,-4.02237 0.159527,-1.44 c 0.08774,-0.792 0.251754,-4.896 0.364477,-9.12 l 0.20495,-7.68 -2.105288,-3.52 C 94.896413,181.96508 80.865336,149.54987 78.246388,141.44 71.640366,120.98372 71.314893,119.7667 70.508877,112.5077 l -0.743092,-6.6923 1.454457,-4.97641 c 1.212266,-4.147766 1.897202,-5.804214 4.113341,-9.947703 3.015787,-5.638582 6.075299,-11.623609 6.549056,-12.811286 0.175514,-0.44 2.528629,-4.003007 5.229145,-7.917793 l 4.910029,-7.117794 8.408327,-6.482206 c 7.61844,-5.873264 17.80549,-12.825601 18.34349,-12.518843 0.11749,0.06699 7.74949,-2.527976 16.96,-5.7666 16.67602,-5.863671 16.7867,-5.897148 26.34637,-7.968876 5.53186,-1.198839 13.13401,-2.582588 17.93956,-3.265373 l 8.33955,-1.184906 6.70045,0.528601 c 6.46544,0.510061 7.07082,0.619605 17.26044,3.123303 10.10402,2.482662 11.05744,2.784264 22.08,6.984771 14.969,5.704421 27.80733,11.825443 39.08865,18.636574 11.22791,6.778878 14.63995,9.582581 22.22029,18.258574 5.5544,6.357226 6.20223,7.230997 8.61699,11.622294 1.93531,3.519396 3.13354,6.238993 4.62986,10.508274 1.11034,3.168 3.96094,11.087999 6.33467,17.599999 2.37373,6.512 4.49235,12.69542 4.70804,13.74092 0.2157,1.04551 0.507,2.12551 0.64735,2.4 0.14034,0.2745 1.68442,4.63808 3.43128,9.69685 l 3.17611,9.19778 -3.0281,6.87559 -3.0281,6.87558 -5.15852,4.40571 c -2.83718,2.42314 -5.49883,4.7399 -5.91476,5.14834 -0.41594,0.40845 -1.08859,0.86899 -1.49479,1.02343 -0.88789,0.33757 -1.00454,1.17273 -1.25086,8.9558 -0.0919,2.904 -0.40029,11.256 -0.68531,18.56 l -0.5182,13.28 -3.21882,8.23916 -3.21882,8.23917 4.23238,14.80084 c 2.50476,8.75927 4.50499,15.18165 4.90023,15.73376 0.49389,0.68992 1.39962,4.4825 3.47716,14.56 3.93601,19.09241 7.26873,34.32584 7.655,34.99004 0.22958,0.39476 0.087,3.58416 -0.47716,10.67404 -0.44251,5.56108 -0.80632,10.41975 -0.80847,10.79703 -0.002,0.37728 -3.60215,6.94558 -8,14.59621 -5.35988,9.32421 -7.9961,14.21305 -7.9961,14.82871 0,0.50515 -0.27044,1.15754 -0.60098,1.44975 -0.33054,0.29221 -6.46288,7.2273 -13.62742,15.4113 -7.16455,8.184 -13.5421,15.348 -14.17234,15.92 -0.63024,0.572 -1.44589,1.04405 -1.81257,1.04901 -0.36668,0.005 -5.80397,1.56833 -12.08288,3.47416 l -11.41619,3.46514 z"
       id="path1" />
    <path
       style="fill:#d38d5f"
       d="m 249.4595,386.82058 c 3.10027,-5.01196 6.20779,-10.82318 12.88767,-24.10057 3.54184,-7.04 7.06715,-13.92714 7.83403,-15.30474 l 1.39433,-2.50474 0.96315,2.02474 c 2.3333,4.90506 3.12314,8.67883 3.10276,14.82474 -0.0177,5.34762 -0.67322,9.25576 -2.34463,13.97896 -0.5153,1.45618 -0.90299,2.68152 -0.86154,2.72297 0.0415,0.0415 2.30048,-1.84072 5.02005,-4.18261 9.2064,-7.92786 14.21429,-13.81879 16.58168,-19.50551 1.81808,-4.36723 2.11269,-6.15447 2.0924,-12.69381 -0.0162,-5.21225 -0.12021,-6.37057 -0.87023,-9.68871 -1.06279,-4.70189 -3.07192,-10.87916 -5.92627,-18.22095 -2.06249,-5.30504 -2.14739,-5.6212 -1.33137,-4.95835 0.47938,0.3894 2.72714,2.27124 4.99503,4.18186 2.2679,1.91062 5.70761,4.53078 7.64381,5.82257 3.38122,2.25589 8.63634,4.98187 10.47963,5.4361 0.85914,0.21171 0.87987,0.18379 0.87414,-1.17783 -0.009,-2.08404 -0.83979,-7.45332 -1.60265,-10.3547 -1.73947,-6.61566 -4.06944,-11.18468 -10.37158,-20.33839 -5.29726,-7.69413 -7.58747,-11.44253 -9.62657,-15.75579 -2.8265,-5.97883 -3.99334,-10.99778 -3.99334,-17.17662 0,-3.56409 -0.0493,-3.8456 -1.00976,-5.76769 -0.55537,-1.1114 -1.90813,-2.96895 -3.00613,-4.12791 l -1.99636,-2.10719 -2.67387,1.07951 c -3.68543,1.4879 -12.7918,5.86025 -12.6795,6.08796 0.0505,0.10237 0.79099,1.54827 1.64557,3.21312 3.45417,6.72927 6.0296,14.92824 7.08385,22.55167 0.87152,6.30215 0.86456,6.3053 -3.0438,1.37929 -1.848,-2.32919 -4.44,-5.37314 -5.76,-6.76435 -2.41554,-2.54586 -5.90153,-5.63361 -6.36018,-5.63361 -0.13583,0 -1.09372,2.592 -2.12866,5.76 -1.6894,5.17135 -2.39116,6.71769 -2.39116,5.26899 0,-2.53742 -9.93201,-22.22899 -11.21183,-22.22899 -0.50437,0 -4.94152,3.78747 -6.25326,5.33766 -3.04166,3.5946 -5.69774,7.63518 -9.29296,14.13694 -1.54708,2.79781 -1.66879,2.9345 -1.85214,2.08 -0.24234,-1.1294 -0.80648,-5.49 -0.81993,-6.33764 -0.0149,-0.94263 -1.67788,1.465 -3.34118,4.83744 -2.58083,5.23279 -3.86864,9.90158 -5.67824,20.5856 l -1.05689,6.24 -0.40146,-2.20014 c -1.0705,-5.86675 -1.94216,-15.02721 -2.06676,-21.71986 -0.0418,-2.244 -0.1709,-4.08 -0.28695,-4.08 -0.11605,0 -1.51111,1.69746 -3.10013,3.77214 -4.26525,5.56881 -4.06483,5.54614 -3.79572,0.42943 0.25016,-4.75625 0.82668,-9.52467 1.92598,-15.92986 0.545,-3.17555 0.6329,-4.27171 0.34252,-4.27171 -0.62453,0 -5.38414,2.00623 -10.17891,4.29051 -2.43533,1.16022 -4.48424,2.10949 -4.55313,2.10949 -0.0689,0 0.24795,-1.044 0.70407,-2.32 1.67982,-4.69923 5.54139,-11.45259 10.17821,-17.80027 1.17303,-1.60584 1.2048,-1.70488 0.47767,-1.48884 -1.58354,0.47048 -7.2707,3.3123 -10.21896,5.10632 -1.672,1.01741 -5.056,3.25011 -7.52,4.96155 -2.464,1.71145 -4.65936,3.21647 -4.87859,3.3445 -0.62079,0.36254 1.30661,-4.59677 3.72388,-9.58178 1.19975,-2.47419 3.50717,-6.7014 5.12759,-9.39379 1.62042,-2.69239 2.89233,-4.94915 2.82646,-5.01501 -0.34732,-0.34733 -10.52897,5.17955 -16.22055,8.80496 -3.59766,2.29163 -6.5913,4.11652 -6.65251,4.0553 -0.13078,-0.13077 0.72709,-3.4019 2.52627,-9.63294 0.71147,-2.464 1.77576,-6.3359 2.36509,-8.60422 l 1.0715,-4.12423 -3.74457,3.76425 c -4.25792,4.2803 -8.86384,7.87145 -13.41802,10.46178 -4.98996,2.8382 -4.7686,3.10119 -2.80076,-3.32761 0.93099,-3.04148 3.2053,-10.35397 5.05401,-16.24997 1.84872,-5.896 3.95774,-12.76188 4.68671,-15.25752 l 1.32539,-4.53753 -0.94441,-1.86247 c -0.51943,-1.02436 -2.12416,-3.80648 -3.56608,-6.18248 -3.15304,-5.19557 -3.14279,-4.48396 -0.18505,-12.84529 1.14297,-3.23109 2.31912,-6.73871 2.61367,-7.79471 0.67054,-2.404 1.0485,-11.50617 0.46977,-11.31326 -0.20451,0.0682 -3.76258,3.50554 -7.90683,7.6386 -5.86346,5.84765 -7.7421,7.92285 -8.46861,9.35472 -1.63585,3.22405 -4.35857,9.64103 -9.90215,23.33765 -8.8727,21.92194 -12.7962,30.10912 -18.83463,39.30229 -0.98263,1.496 -1.91713,2.92709 -2.07667,3.18019 -0.9233,1.46476 9.82928,-7.79515 15.75485,-13.56778 l 4.58596,-4.4676 -0.80024,1.80947 c -1.18271,2.67433 -4.27179,7.9378 -8.75792,14.92259 -4.96861,7.73601 -7.74725,12.56278 -9.18952,15.96313 -0.61587,1.452 -1.06521,2.64 -0.99854,2.64 0.0667,0 0.90331,-1.116 1.8592,-2.48 4.47535,-6.38609 11.72594,-14.42026 17.6753,-19.58549 3.75535,-3.26039 7.50233,-6.22445 7.65351,-6.05433 0.0586,0.0659 -0.96948,1.99182 -2.28455,4.27982 -3.33302,5.79888 -9.20632,17.72654 -11.26714,22.88163 -6.73536,16.84827 -9.65505,31.41018 -9.20093,45.88952 0.16753,5.34163 0.85084,12.12725 1.26269,12.5391 0.0769,0.0769 0.22948,-1.12241 0.33901,-2.66519 1.03817,-14.62355 9.38454,-30.35342 20.83967,-39.27521 3.33022,-2.59373 10.09774,-6.68783 10.09774,-6.10875 0,0.0835 -1.46135,1.98375 -3.24745,4.22271 -4.17732,5.23647 -6.34278,8.43237 -8.14498,12.02078 -3.91739,7.79998 -5.60645,17.75626 -4.62504,27.26265 0.5332,5.16487 0.77299,5.70242 1.29292,2.89847 0.64127,-3.45836 2.80664,-11.137 4.23698,-15.02481 1.91609,-5.20811 6.42926,-14.56588 6.83116,-14.16397 0.0689,0.0689 -0.23112,3.57176 -0.66668,7.78416 -1.15595,11.17944 -1.63539,21.14053 -1.12812,23.4388 0.91422,4.14203 5.179,15.74011 5.78787,15.74011 0.11894,0 0.2385,-1.116 0.26568,-2.48 0.18287,-9.17763 2.55982,-23.15029 5.43003,-31.92 l 0.94259,-2.88 0.0325,3.36547 c 0.12141,12.5636 2.01566,24.81496 5.14229,33.25844 2.03181,5.48691 5.89258,12.30705 8.862,15.65493 l 1.22823,1.38477 -0.1075,-6.5118 c -0.0591,-3.58149 0.0542,-8.0958 0.25174,-10.03181 0.49352,-4.83575 2.02475,-12.1543 3.49273,-16.69357 l 1.22452,-3.78643 0.19372,1.44 c 1.61887,12.03322 2.72,17.37196 4.90661,23.78923 3.14438,9.22813 8.20883,17.91612 13.34866,22.89943 1.6755,1.62448 1.48283,1.88301 2.12291,-2.84865 0.71962,-5.31968 3.38766,-12.01357 6.88744,-17.28 3.90949,-5.88296 10.27921,-11.58557 16.4063,-14.68803 l 1.36712,-0.69225 -2.05224,2.97014 c -4.06165,5.87827 -6.9,12.10407 -8.21084,18.01014 -0.82504,3.71726 -0.99132,10.00346 -0.34704,13.12 1.1443,5.53529 3.55577,10.5738 7.29511,15.24236 l 0.93101,1.16237 -0.13399,-6.63852 c -0.19438,-9.62995 0.84208,-17.08477 3.48518,-25.06749 1.2413,-3.74897 5.09701,-12.05581 6.31563,-13.60656 0.57036,-0.7258 0.57066,-0.59856 0.01,4.32 -0.74897,6.57088 -1.4474,13.86639 -1.7017,17.77535 l -0.20217,3.10752 2.40835,2.57526 c 4.24231,4.53631 6.76529,8.95326 8.63214,15.11217 0.93538,3.0859 1.38025,5.44162 2.63206,13.93754 0.0843,0.572 0.20999,1.04 0.27935,1.04 0.0694,0 0.94434,-1.32275 1.94438,-2.93943 z"
       id="path2" />
    <path
       style="fill:#a05a2c"
       d="m 303.65829,281.29339 c -0.34611,-2.35714 -0.92285,-5.95243 -1.28165,-7.98955 -0.3588,-2.03711 -1.22125,-6.94384 -1.91655,-10.90384 -0.69531,-3.96 -1.34104,-7.53606 -1.43496,-7.94681 -0.35729,-1.56246 0.43089,-0.28337 1.78057,2.88959 1.33311,3.13403 2.47528,5.37722 2.73791,5.37722 0.39753,0 -1.11305,-6.81519 -2.89625,-13.06693 -1.69374,-5.93809 -2.28125,-8.71494 -3.02402,-14.29307 -0.34368,-2.58099 -2.06631,-6.70071 -3.51177,-8.39849 l -0.61172,-0.7185 -1.63381,1.09947 c -1.96141,1.31994 -3.59389,1.61414 -7.52136,1.35549 -3.64777,-0.24023 -7.09624,-1.23476 -12.99238,-3.74699 -5.4482,-2.32137 -9.37713,-3.71151 -11.30828,-4.0011 -0.98351,-0.14749 -2.81091,0.0846 -6.26286,0.79534 -5.50041,1.13254 -7.72062,1.87338 -9.5075,3.17247 -2.0662,1.50216 -22.52123,27.63356 -28.37061,36.24361 -4.38311,6.45176 -4.22457,6.0903 -1.98305,4.52128 1.056,-0.73917 3.20381,-2.45002 4.7729,-3.80189 1.56909,-1.35187 2.76793,-2.25606 2.66408,-2.00932 -1.68704,4.00827 -2.5716,6.42798 -2.94629,8.0595 -0.55091,2.39885 -0.8367,2.70093 4.21327,-4.45342 1.97118,-2.7926 4.01733,-5.58145 4.547,-6.19745 l 0.96303,-1.12 0.013,2.99502 0.013,2.99503 1.87102,-2.83503 c 1.02906,-1.55926 2.64348,-3.61381 3.58759,-4.56568 1.57904,-1.59201 5.1644,-4.18934 5.78296,-4.18934 0.14428,0 -0.16986,1.17218 -0.6981,2.60485 -0.52824,1.43267 -0.91996,2.64533 -0.87048,2.69481 0.0495,0.0495 1.66448,-0.97817 3.5889,-2.28366 4.21609,-2.86011 8.20808,-4.95536 11.17182,-5.86368 1.20654,-0.36977 2.32547,-0.67232 2.4865,-0.67232 0.16104,0 -0.008,0.58996 -0.37603,1.31101 -0.36785,0.72106 -0.6182,1.36163 -0.55634,1.4235 0.0619,0.0619 2.55592,-1.01336 5.54233,-2.38941 5.51866,-2.54281 10.91627,-4.69038 12.67038,-5.0412 l 0.96884,-0.19377 -0.9936,1.56494 c -0.54647,0.86071 -1.22079,1.88537 -1.49847,2.27702 l -0.50487,0.71208 1.45603,-0.49611 c 2.82896,-0.96393 5.58181,-4.13633 6.43554,-7.41636 l 0.39346,-1.5117 2.41946,4.8 c 1.3307,2.64 2.94331,5.376 3.58358,6.08 l 1.16414,1.28 -0.21276,-2.07765 -0.21276,-2.07765 2.36043,2.10915 c 5.93146,5.3 10.50028,12.40533 12.56122,19.53493 0.75998,2.62906 1.41891,6.67122 1.0875,6.67122 -0.0849,0 -0.84584,-1.044 -1.69096,-2.32 -2.08591,-3.14943 -4.34944,-6.07455 -4.54742,-5.87657 -0.48452,0.48452 3.17817,10.1495 5.41032,14.27657 1.77323,3.27855 3.50609,6.14035 3.63813,6.00831 0.0601,-0.0601 -0.17396,-2.03778 -0.52007,-4.39492 z"
       id="path3" />
    <path
       id="path4"
       style="fill:#e9c6af"
       d="M 252.53141 100.77363 L 250.50602 102.64081 C 249.39194 103.66711 247.14955 105.55529 245.5236 106.83808 C 243.89764 108.12088 242.26732 109.59254 241.90055 110.10761 C 241.31359 110.93193 240.00016 114.78976 240.00016 115.68964 C 240.00016 115.87237 240.828 116.44906 241.84 116.97089 C 242.852 117.49271 244.3273 118.3693 245.1193 118.91816 C 245.9113 119.46702 247.92777 120.74625 249.59977 121.76191 C 251.27177 122.77756 252.78497 123.76954 252.96305 123.96503 C 253.14114 124.16052 254.48104 124.94647 255.93961 125.71113 C 257.39818 126.47576 258.93814 127.44598 259.36149 127.86933 C 259.78483 128.29267 260.39648 128.64081 260.72086 128.64081 C 261.04524 128.64081 262.74268 129.63655 264.4943 130.85566 C 273.11082 136.85267 275.56335 138.40912 279.34196 140.27558 C 281.59273 141.38737 284.66127 142.69551 286.16227 143.18378 L 288.89078 144.07245 L 291.52946 143.5373 C 292.98047 143.24328 297.81961 141.80482 302.28336 140.34003 C 306.74713 138.87525 310.40055 137.71981 310.40055 137.77363 C 310.40055 138.00276 304.411 141.27251 301.37711 142.69941 C 297.22967 144.65003 293.24382 145.91534 290.56071 146.13495 C 288.70346 146.28696 288.01767 146.15229 284.16032 144.87519 C 278.53171 143.0117 273.5402 140.73544 264.32047 135.82831 C 248.47995 127.39734 242.52563 124.93043 234.27946 123.38105 C 226.31091 121.88383 220.02209 122.67254 214.28141 125.88691 C 211.74115 127.30927 208.22643 130.30337 206.78532 132.27363 L 205.6486 133.82831 L 207.42203 132.82636 C 211.35813 130.60496 217.46384 128.95917 221.76774 128.95917 C 224.19602 128.95917 228.08555 129.62157 229.7736 130.32245 L 230.87907 130.78339 L 229.43961 131.01191 C 228.64761 131.13777 226.63114 131.45703 224.95914 131.72089 C 214.19087 133.42023 209.63906 136.14384 198.1525 147.76581 C 194.4088 151.55366 191.39235 154.69902 191.44938 154.75605 C 191.50638 154.81305 193.53319 153.99875 195.95328 152.9455 C 206.1713 148.49857 212.35653 146.89147 219.33805 146.86738 L 223.19938 146.8537 L 221.95328 145.75214 C 220.1845 144.19012 217.65075 143.31221 214.24039 143.07831 L 211.35953 142.87909 L 212.88102 141.96894 C 215.2276 140.56348 217.54578 139.79519 220.00016 139.61152 C 221.87287 139.47138 222.66071 139.58558 224.80094 140.30488 C 228.30863 141.48367 233.91572 144.44442 240.95914 148.83417 C 248.18875 153.33996 250.87907 154.92076 250.87907 154.66425 C 250.87907 154.33377 248.35864 150.42136 245.76188 146.72089 C 244.40331 144.78489 243.0189 142.77419 242.68571 142.25409 L 242.08024 141.30878 L 244.42789 142.57441 C 247.56387 144.26507 251.62642 147.35626 258.07438 152.95917 C 261.01128 155.51117 264.66273 158.49903 266.18766 159.59784 C 271.69372 163.5654 278.61972 166.26511 281.15055 165.42988 C 284.59858 164.29193 286.585 160.37671 287.23258 153.43964 L 287.47086 150.87909 L 288.07047 152.80097 C 289.42572 157.13726 289.0944 161.50587 287.10563 165.50409 C 286.46644 166.78912 285.88865 167.95075 285.82243 168.08613 C 285.51808 168.70827 288.3132 166.74122 289.60758 165.42206 C 292.11399 162.86768 294.02986 158.47289 295.18766 152.62323 C 295.97558 148.64232 296.0667 148.42101 296.36344 149.75995 C 297.29056 153.94329 296.94441 159.93112 295.51578 164.42988 C 295.09267 165.76232 294.7981 166.90362 294.86149 166.96698 C 295.10204 167.20754 298.1947 165.42224 301.07828 163.37714 C 302.7274 162.20756 304.15113 161.32498 304.24235 161.4162 C 304.33355 161.5074 303.8087 162.83131 303.07633 164.35761 C 302.34396 165.8839 301.81301 167.19975 301.89664 167.28339 C 302.19314 167.57988 307.58069 164.32327 310.01188 162.37714 C 312.88319 160.07869 316.64501 156.20821 318.77164 153.36542 L 320.26383 151.37128 L 319.63493 149.68573 C 319.28901 148.75839 317.58247 145.04764 315.84391 141.43964 C 311.95704 133.37334 311.88441 133.194 310.72477 128.81855 C 310.20762 126.86728 309.14674 123.40095 308.36735 121.11542 C 307.58796 118.82989 306.84905 116.20219 306.72477 115.27558 C 306.53752 113.8795 306.21962 113.25939 304.86735 111.66034 C 301.92568 108.18186 299.84666 106.74812 295.37321 105.10956 C 291.36082 103.63988 290.27855 103.50848 288.67985 104.30097 C 287.87695 104.69897 283.5633 105.69396 281.59977 105.93378 C 279.85291 106.14713 278.03336 105.63739 274.08024 103.82831 C 270.20213 102.05357 268.9112 101.79008 262.47282 101.45136 C 259.0007 101.2687 255.34378 101.04236 254.34586 100.94745 L 252.53141 100.77363 z M 303.18375 126.16034 C 303.20694 126.15526 303.22102 126.15464 303.22672 126.16034 C 303.53945 126.47308 295.42386 133.55982 291.51969 136.383 L 290.40055 137.19355 L 280.38883 132.35566 C 273.33167 128.94627 270.61021 127.48997 271.16618 127.42011 C 271.59995 127.36561 272.86444 127.67549 273.97672 128.10761 C 282.40257 131.38107 284.62173 132.21791 286.82047 132.95331 L 289.31852 133.78925 L 291.05289 132.99628 C 292.0059 132.55998 295.096 130.80501 297.92203 129.09784 C 300.57145 127.49738 302.83592 126.2366 303.18375 126.16034 z M 120.34 134.49628 C 120.16965 134.50094 120.00407 134.51644 119.84391 134.5412 C 117.96789 134.83128 115.38762 136.1812 114.26383 137.46113 C 113.41474 138.42818 111.82791 141.09131 112.07438 141.13495 C 112.12198 141.14295 112.94912 141.21903 113.91422 141.30292 C 116.40129 141.51902 117.93747 141.98105 120.32047 143.2287 C 125.23633 145.80245 131.50907 151.36421 140.22477 160.87909 C 142.68334 163.56309 144.73098 165.75995 144.77555 165.75995 C 144.82015 165.75995 144.30579 163.20426 143.63102 160.08027 C 142.34716 154.13633 140.48344 147.73304 139.77555 146.83222 C 139.5473 146.54177 137.59085 144.95824 135.42789 143.31269 C 126.71914 136.68721 122.89534 134.4264 120.34 134.49628 z M 116.13883 148.85956 C 115.67366 148.90612 115.23381 149.90227 114.4611 152.24042 C 113.24207 155.92911 112.49792 159.4461 112.17594 163.03925 L 111.97477 165.27948 L 114.01578 160.00019 C 115.13843 157.09619 116.36787 154.01677 116.74821 153.15839 C 117.569 151.30595 117.61333 150.47099 116.94157 149.51191 C 116.63314 149.07157 116.3825 148.83517 116.13883 148.85956 z M 121.29899 163.19941 C 120.12169 163.19941 119.95796 163.30751 119.36344 164.47284 C 118.52789 166.11066 117.95325 168.64183 117.11149 174.40058 C 115.93724 182.43404 116.57672 184.39377 123.67594 194.56073 C 125.33501 196.93673 126.98989 199.26773 127.35368 199.74042 C 128.08292 200.68799 129.17383 200.94103 130.87907 200.56073 C 131.49507 200.42336 132.39922 200.22185 132.88688 200.11347 C 133.37454 200.00509 133.8245 199.82821 133.88688 199.71894 C 133.94928 199.60967 132.58197 197.5754 130.84977 195.19941 C 125.14304 187.37164 121.35135 181.61636 120.97086 180.20331 C 120.22901 177.44831 121.38299 174.50729 125.12711 169.61152 L 127.44547 166.58222 L 126.20133 165.50214 C 124.44874 163.97793 122.79395 163.19941 121.29899 163.19941 z M 190.34782 164.97675 C 186.35898 164.96675 182.9983 165.05529 182.88102 165.17206 C 182.52532 165.52627 186.72796 173.44387 189.41618 177.48456 C 193.7997 184.07351 199.78401 191.07599 207.8068 199.00409 L 212.14274 203.28925 L 213.51188 203.10175 C 215.37367 202.84565 222.0786 200.78785 228.56071 198.48456 C 231.5087 197.43704 233.92008 196.61637 233.92008 196.66034 C 233.92008 196.70434 233.03344 198.2306 231.94938 200.05097 C 229.27578 204.54051 226.19621 210.98961 224.83219 214.95527 C 223.10258 219.98385 222.40055 224.2017 222.40055 229.56659 C 222.40055 234.54797 222.28729 235.05497 220.03336 240.26777 C 219.04012 242.56491 218.59338 243.95431 218.99625 243.49238 C 219.06025 243.41908 221.52931 240.13483 224.48258 236.19355 C 235.20411 221.88513 241.11471 214.88371 248.83414 207.34784 C 256.26666 200.09209 259.53366 198.06679 264.20328 197.8205 C 267.18031 197.66348 268.88721 198.10214 272.48063 199.94941 C 274.8482 201.1665 279.60735 205.57888 280.73453 207.5998 C 281.44891 208.88059 281.60708 208.93443 276.16032 206.01972 C 270.62838 203.05943 268.33701 202.0268 265.93961 201.4162 C 263.00471 200.66869 261.56566 200.93706 260.10758 202.50019 C 258.22938 204.51373 257.76946 207.09298 258.86149 209.49823 C 259.72733 211.40532 260.75974 211.84003 264.42985 211.84003 C 269.73567 211.84003 274.63077 213.92665 281.03336 218.91816 C 285.47117 222.37791 286.31217 222.63771 290.77164 221.92011 C 295.29291 221.19257 297.62768 219.70592 298.95328 216.70917 C 300.49615 213.22125 300.25257 210.43539 297.97086 205.50214 C 296.00664 201.25531 294.83149 197.5967 292.60953 188.80097 C 291.65364 185.01697 290.49486 180.67519 290.03532 179.15448 L 289.20133 176.39081 L 286.12125 176.1662 C 284.42708 176.04318 281.89347 175.74655 280.49235 175.50605 C 279.09124 175.26556 277.90787 175.10615 277.86149 175.15253 C 277.81509 175.19893 278.41747 176.81664 279.20133 178.74628 C 279.98518 180.67593 280.71834 182.71218 280.83024 183.27167 L 281.03336 184.28925 L 277.87711 182.54316 C 274.51183 180.68185 270.11962 178.73424 269.86344 178.99042 C 269.77824 179.07562 270.36648 179.95303 271.17008 180.93964 C 272.4759 182.54283 273.59977 184.31652 273.59977 184.77363 C 273.59977 184.86503 272.77192 184.43883 271.75993 183.82636 C 270.74793 183.21389 268.76753 182.25477 267.35953 181.69355 C 265.0833 180.78624 264.44508 180.67265 261.59977 180.67011 C 258.94666 180.66811 257.99953 180.81075 256.06071 181.508 C 252.9897 182.61241 249.78733 184.46939 245.62907 187.55683 C 243.76522 188.94071 242.24039 189.99523 242.24039 189.90058 C 242.24039 189.55514 244.44308 186.33231 246.49039 183.68183 C 247.64523 182.18676 248.5505 180.92358 248.50211 180.87519 C 248.45371 180.82679 247.42106 181.02801 246.20719 181.32245 C 243.04845 182.08865 237.9822 182.01112 234.72086 181.14667 C 233.31286 180.77347 229.92738 179.40878 227.19938 178.11347 C 218.66426 174.06081 209.97079 171.77085 200.23063 171.00995 C 198.68588 170.88927 197.49172 170.72153 197.57633 170.63691 C 198.04799 170.16526 201.60672 169.82343 207.94743 169.64277 L 215.09586 169.43964 L 212.42789 168.41034 C 205.83281 165.86318 200.29116 165.00045 190.34782 164.97675 z M 228.87516 169.41034 C 228.52367 169.43805 229.50348 170.42913 231.54508 172.04706 C 233.05493 173.24359 234.13753 174.27407 233.95133 174.33613 C 233.76513 174.39823 232.49476 174.15517 231.12711 173.79706 C 226.64559 172.62361 226.88666 172.61542 228.32047 173.90253 C 232.11951 177.31288 238.54329 178.66864 245.05289 177.43378 C 246.46285 177.16632 248.45896 176.65978 249.48844 176.30878 C 251.736 175.54249 256.03492 173.68729 255.89274 173.54511 C 255.83704 173.48941 254.2948 173.58761 252.465 173.76191 C 248.62931 174.12738 243.6894 173.76458 239.35563 172.79902 C 236.38962 172.13835 231.13309 170.4644 229.67985 169.71698 C 229.25662 169.49931 228.99232 169.40111 228.87516 169.41034 z M 301.22477 179.44355 C 300.8713 179.47383 300.17343 179.96998 298.75407 181.15448 C 297.41296 182.27366 296.23825 183.43559 296.14274 183.73652 C 295.96279 184.3035 296.59398 188.0406 297.44938 191.46894 C 298.30669 194.90495 300.90171 202.87909 301.16227 202.87909 C 301.30002 202.87909 301.76424 201.76458 302.19352 200.40058 C 304.01609 194.60941 304.17875 187.40349 302.59782 182.56073 C 302.13817 181.15274 301.63341 179.80285 301.47672 179.56073 C 301.42144 179.47532 301.34259 179.43345 301.22477 179.44355 z M 116.56266 193.09003 C 116.02631 193.62638 123.50413 213.94132 124.56657 214.83417 C 125.44551 215.57282 127.50235 215.43617 129.59977 214.50019 L 131.03922 213.85761 L 129.05485 213.2912 C 127.96328 212.97968 126.86066 212.48853 126.60368 212.20136 C 126.3467 211.91418 124.01614 207.46336 121.42399 202.31073 C 118.83184 197.15811 116.64334 193.00935 116.56266 193.09003 z " />
    <path
       id="path5"
       style="fill:#00ffff"
       d="M 239.44938 165.45527 C 239.04038 165.4575 238.72086 165.54762 238.72086 165.73456 C 238.72086 166.59101 239.30138 167.19368 240.76969 167.86152 C 242.50187 168.64938 242.87907 168.75479 242.87907 168.44941 C 242.87907 168.14348 241.50818 166.27575 240.97086 165.8498 C 240.64651 165.59267 239.97523 165.45239 239.44938 165.45527 z M 249.23844 166.74628 C 249.13891 166.74794 249.03045 166.75746 248.91618 166.77363 C 248.36171 166.85213 248.13292 167.11531 248.05875 167.75995 C 247.93645 168.82288 248.54252 168.92421 249.64469 168.02363 C 250.45492 167.36157 250.20059 166.73025 249.23844 166.74628 z " />
    <path
       id="path6"
       style="fill:#784421"
       d="M 183.7443 36.896673 C 178.8013 36.919148 173.98519 37.325289 169.33805 38.119329 C 165.21141 38.824432 163.70478 39.359563 165.84586 39.359563 C 168.06568 39.359563 174.03117 40.33832 178.45133 41.427923 C 191.71111 44.696556 204.78076 51.062028 218.32828 60.849798 C 221.18364 62.912725 225.75263 66.185782 228.48063 68.121282 C 233.89425 71.962219 235.82157 73.756433 246.40055 84.810735 L 253.27946 92.000188 L 260.13102 92.052922 C 263.89872 92.082532 267.46264 92.198416 268.05094 92.308782 C 269.34178 92.550944 269.43344 92.080171 268.49625 90.015813 C 267.38141 87.560154 255.97229 76.56206 249.55485 71.756047 C 248.78757 71.181437 247.43685 70.158394 246.55289 69.484563 C 245.66895 68.810733 242.87555 66.941823 240.34586 65.330266 C 237.81617 63.71871 236.03075 62.400579 236.37907 62.400579 C 236.72739 62.400579 237.10326 62.490007 237.21305 62.599798 C 237.32283 62.709584 238.46271 63.145694 239.74625 63.568548 C 241.0298 63.991401 242.36886 64.464604 242.72086 64.621282 C 243.07286 64.77796 244.1513 65.242419 245.1193 65.652532 C 246.96022 66.43247 250.45501 68.187308 254.22086 70.222844 C 256.64589 71.533632 261.97513 75.118343 265.17203 77.590032 C 271.00299 82.098239 278.76562 89.720149 279.35953 91.519719 C 279.72427 92.624904 279.91076 92.776374 281.24235 93.054876 C 283.33461 93.492471 283.97468 93.484419 287.03922 92.972844 C 290.10536 92.461011 292.85657 91.889878 293.01188 91.734563 C 293.28068 91.465769 287.12076 84.245013 283.82243 80.961126 C 278.98737 76.147251 275.08779 73.03288 269.6193 69.617376 C 267.16614 68.085181 264.45001 66.194698 263.58414 65.416204 C 262.71828 64.63771 261.71428 64.000188 261.35172 64.000188 C 260.98916 64.000188 257.58371 62.14247 253.78532 59.873235 C 237.06902 49.886616 228.08152 45.499421 217.75993 42.285344 C 206.10678 38.65663 194.61891 36.847226 183.7443 36.896673 z M 161.20914 50.73261 C 156.53022 50.729677 151.75682 50.97389 148.15836 51.463079 C 133.81999 53.412304 121.34848 57.194588 111.41618 62.60761 C 109.95116 63.406033 108.81168 64.118351 108.88493 64.191594 C 108.95813 64.264834 109.94269 63.908843 111.07047 63.398626 C 114.04969 62.050795 121.32576 59.677884 126.35563 58.414251 C 142.41712 54.379181 158.00404 54.076001 172.00016 57.527532 L 175.51969 58.396673 L 167.84 58.603704 C 159.99662 58.815226 154.0271 59.382339 147.7111 60.515813 C 130.02118 63.690456 115.07166 70.385774 103.50797 80.312688 C 101.22222 82.274901 97.599769 86.255945 97.599769 86.806829 C 97.599769 86.892909 99.203992 85.89194 101.16422 84.582219 C 108.72861 79.528097 116.35357 76.360774 126.44743 74.082219 C 134.80002 72.196734 138.21065 71.868734 149.59977 71.853704 C 160.06785 71.839894 161.87203 71.960252 169.1193 73.156438 C 180.31148 75.00374 193.31466 79.014347 199.72868 82.597844 C 201.60313 83.645103 207.80838 87.773902 213.51969 91.771672 C 223.6249 98.845053 223.97601 99.126404 226.56071 102.24042 C 228.02154 104.00042 229.94968 106.20023 230.84586 107.12909 C 232.72808 109.07997 232.4824 109.19959 234.61149 105.27948 C 236.75889 101.32566 238.98865 98.574611 240.61539 97.869329 C 241.81726 97.348257 241.96335 97.191564 241.57633 96.832219 C 240.84724 96.155256 224.3061 80.923238 214.27555 71.691594 C 206.68298 64.703759 204.6731 63.020175 202.7775 62.070501 C 201.51397 61.43748 198.392 59.825162 195.84 58.486516 C 188.86272 54.826593 182.58511 52.840289 173.69547 51.478704 C 170.47369 50.985238 165.88807 50.735543 161.20914 50.73261 z M 156.00211 85.443547 C 137.12732 85.452147 119.98667 90.064759 104.38688 99.336126 C 100.43741 101.68339 94.645381 105.83646 92.320472 107.98652 L 90.720863 109.46503 L 92.027504 108.68183 C 94.442158 107.23423 100.44905 104.3283 103.70914 103.02948 C 110.78318 100.2112 116.92314 98.906953 124.16032 98.689641 L 129.1193 98.541204 L 125.75993 99.775579 C 118.74098 102.35316 113.12589 105.1489 107.35953 108.93769 C 102.60783 112.0598 99.651258 114.49871 95.830238 118.4455 C 92.81725 121.55766 89.325783 125.75995 89.754066 125.75995 C 89.859868 125.75995 90.696957 125.21142 91.613441 124.5412 C 100.96973 117.69909 114.15222 112.92672 127.22086 111.65058 C 131.98111 111.18575 142.9706 111.44407 147.35953 112.12323 C 151.16905 112.71275 159.35953 114.58931 159.35953 114.87323 C 159.35953 115.09886 154.73911 116.23689 150.87907 116.96113 C 146.66985 117.75087 137.64723 118.6663 128.80094 119.20136 C 124.22495 119.47813 120.192 119.74084 119.84 119.78534 C 118.9594 119.89667 126.60825 122.39834 137.16813 125.45331 C 142.01756 126.85625 146.18583 128.11644 146.4318 128.25409 C 146.92014 128.52738 146.68888 129.10928 144.83805 132.24042 C 143.7657 134.05458 143.62631 134.02601 148.5275 133.00019 C 150.52574 132.58196 152.82176 132.14407 153.63102 132.02753 L 155.10368 131.81464 L 154.65641 135.10761 C 154.41144 136.91839 153.78154 140.88904 153.25602 143.93183 C 152.42112 148.766 151.32558 156.2567 151.37711 156.77948 C 151.39951 157.0065 152.06073 156.13535 154.75602 152.3205 C 157.98743 147.74685 161.06105 144.20279 163.71696 141.98847 L 166.10172 140.00019 L 164.89078 139.7912 C 164.22486 139.67641 162.20455 139.47993 160.40055 139.3537 C 158.59655 139.22747 157.1193 139.06768 157.1193 138.99823 C 157.1193 138.65185 159.52365 136.72649 162.24039 134.89667 C 165.0473 133.00611 170.84759 129.95377 176.60563 127.33808 C 178.85179 126.31772 178.92409 126.25219 178.04508 126.0412 C 177.53587 125.91897 175.17694 125.65556 172.80094 125.45527 C 164.92656 124.7915 156.61261 123.44249 156.95719 122.88495 C 157.03689 122.756 157.86224 122.56093 158.79118 122.45136 C 165.65413 121.64191 174.11435 117.66743 178.50211 113.19159 L 180.20524 111.45527 L 177.22282 109.52753 C 168.63172 103.97453 157.32401 99.406996 146.94352 97.29511 C 142.97187 96.487088 137.67189 95.690943 135.92203 95.640813 C 134.64207 95.604143 134.67642 95.583825 136.48063 95.299016 C 138.7483 94.941049 150.41496 95.197642 154.08024 95.685735 C 158.97804 96.337959 165.94826 97.896528 170.44743 99.345891 C 178.73993 102.01724 183.13403 104.07658 197.67789 112.10761 L 206.71696 117.09784 L 211.99235 114.70917 C 214.89327 113.39502 217.4142 112.3205 217.59391 112.3205 C 218.57554 112.3205 217.12502 109.18983 214.63493 105.93183 C 212.35127 102.94392 212.24242 102.85432 206.67203 99.371282 C 203.56617 97.429248 200.75988 95.60798 200.43375 95.324407 C 199.32422 94.359653 196.75292 93.029775 195.7775 92.916204 C 195.24272 92.853934 192.62672 92.076358 189.96305 91.187688 C 177.52933 87.039473 168.05736 85.438023 156.00211 85.443547 z " />
  </g>
</svg>
