<?xml version="1.0" encoding="UTF-8" standalone="no"?>
<!-- Created with Inkscape (http://www.inkscape.org/) -->

<svg
   version="1.1"
   id="svg1"
   width="880"
   height="880"
   viewBox="0 0 880 880"
   sodipodi:docname="wooden-bow-arrow.svg"
   inkscape:version="1.3.2 (091e20e, 2023-11-25, custom)"
   xmlns:inkscape="http://www.inkscape.org/namespaces/inkscape"
   xmlns:sodipodi="http://sodipodi.sourceforge.net/DTD/sodipodi-0.dtd"
   xmlns="http://www.w3.org/2000/svg"
   xmlns:svg="http://www.w3.org/2000/svg">
  <defs
     id="defs1">
    <clipPath
       clipPathUnits="userSpaceOnUse"
       id="clipPath4">
      <path
         d="M 0,660 H 660 V 0 H 0 Z"
         transform="translate(-477.82131,-606.39652)"
         id="path4" />
    </clipPath>
    <clipPath
       clipPathUnits="userSpaceOnUse"
       id="clipPath6">
      <path
         d="M 0,660 H 660 V 0 H 0 Z"
         transform="translate(-500.66801,-621.81742)"
         id="path6" />
    </clipPath>
    <clipPath
       clipPathUnits="userSpaceOnUse"
       id="clipPath8">
      <path
         d="M 0,660 H 660 V 0 H 0 Z"
         transform="translate(-484.51071,-149.53521)"
         id="path8" />
    </clipPath>
    <clipPath
       clipPathUnits="userSpaceOnUse"
       id="clipPath10">
      <path
         d="M 0,660 H 660 V 0 H 0 Z"
         transform="translate(-468.37791,-630.57712)"
         id="path10" />
    </clipPath>
    <clipPath
       clipPathUnits="userSpaceOnUse"
       id="clipPath12">
      <path
         d="M 0,660 H 660 V 0 H 0 Z"
         transform="translate(-331.05861,-430.20561)"
         id="path12" />
    </clipPath>
    <clipPath
       clipPathUnits="userSpaceOnUse"
       id="clipPath14">
      <path
         d="M 0,660 H 660 V 0 H 0 Z"
         transform="translate(-437.32711,-588.41261)"
         id="path14" />
    </clipPath>
    <clipPath
       clipPathUnits="userSpaceOnUse"
       id="clipPath16">
      <path
         d="M 0,660 H 660 V 0 H 0 Z"
         transform="translate(-444.99411,-650.39062)"
         id="path16" />
    </clipPath>
    <clipPath
       clipPathUnits="userSpaceOnUse"
       id="clipPath18">
      <path
         d="M 0,660 H 660 V 0 H 0 Z"
         transform="translate(-382.59861,-228.5752)"
         id="path18" />
    </clipPath>
    <clipPath
       clipPathUnits="userSpaceOnUse"
       id="clipPath20">
      <path
         d="M 0,660 H 660 V 0 H 0 Z"
         transform="translate(-330.05471,-330.64651)"
         id="path20" />
    </clipPath>
    <clipPath
       clipPathUnits="userSpaceOnUse"
       id="clipPath22">
      <path
         d="M 0,660 H 660 V 0 H 0 Z"
         transform="translate(-464.53131,-121.59771)"
         id="path22" />
    </clipPath>
    <clipPath
       clipPathUnits="userSpaceOnUse"
       id="clipPath24">
      <path
         d="M 0,660 H 660 V 0 H 0 Z"
         transform="translate(-506.23051,-133.62891)"
         id="path24" />
    </clipPath>
    <clipPath
       clipPathUnits="userSpaceOnUse"
       id="clipPath26">
      <path
         d="M 0,660 H 660 V 0 H 0 Z"
         transform="translate(-445.54591,-612.39702)"
         id="path26" />
    </clipPath>
    <clipPath
       clipPathUnits="userSpaceOnUse"
       id="clipPath28">
      <path
         d="M 0,660 H 660 V 0 H 0 Z"
         transform="translate(-469.61331,-550.68262)"
         id="path28" />
    </clipPath>
    <clipPath
       clipPathUnits="userSpaceOnUse"
       id="clipPath30">
      <path
         d="M 0,660 H 660 V 0 H 0 Z"
         transform="translate(-451.19241,-141.4912)"
         id="path30" />
    </clipPath>
    <clipPath
       clipPathUnits="userSpaceOnUse"
       id="clipPath32">
      <path
         d="M 0,660 H 660 V 0 H 0 Z"
         transform="translate(-210.4795,-245.62501)"
         id="path32" />
    </clipPath>
    <clipPath
       clipPathUnits="userSpaceOnUse"
       id="clipPath34">
      <path
         d="M 0,660 H 660 V 0 H 0 Z"
         transform="translate(-210.4795,-245.62501)"
         id="path34" />
    </clipPath>
    <clipPath
       clipPathUnits="userSpaceOnUse"
       id="clipPath36">
      <path
         d="M 0,660 H 660 V 0 H 0 Z"
         transform="translate(-179.78271,-436.49321)"
         id="path36" />
    </clipPath>
    <clipPath
       clipPathUnits="userSpaceOnUse"
       id="clipPath38">
      <path
         d="M 0,660 H 660 V 0 H 0 Z"
         transform="translate(-202.71291,-438.62651)"
         id="path38" />
    </clipPath>
    <clipPath
       clipPathUnits="userSpaceOnUse"
       id="clipPath40">
      <path
         d="M 0,660 H 660 V 0 H 0 Z"
         transform="translate(-201.8188,-517.23682)"
         id="path40" />
    </clipPath>
    <clipPath
       clipPathUnits="userSpaceOnUse"
       id="clipPath42">
      <path
         d="M 0,660 H 660 V 0 H 0 Z"
         transform="translate(-201.8188,-517.23682)"
         id="path42" />
    </clipPath>
    <clipPath
       clipPathUnits="userSpaceOnUse"
       id="clipPath44">
      <path
         d="M 0,660 H 660 V 0 H 0 Z"
         transform="translate(-179.60451,-516.94681)"
         id="path44" />
    </clipPath>
    <clipPath
       clipPathUnits="userSpaceOnUse"
       id="clipPath46">
      <path
         d="M 0,660 H 660 V 0 H 0 Z"
         transform="translate(-217.99561,-303.40141)"
         id="path46" />
    </clipPath>
    <clipPath
       clipPathUnits="userSpaceOnUse"
       id="clipPath48">
      <path
         d="M 0,660 H 660 V 0 H 0 Z"
         transform="translate(-217.99561,-303.40141)"
         id="path48" />
    </clipPath>
    <clipPath
       clipPathUnits="userSpaceOnUse"
       id="clipPath50">
      <path
         d="M 0,660 H 660 V 0 H 0 Z"
         transform="translate(-245.51121,-494.75591)"
         id="path50" />
    </clipPath>
    <clipPath
       clipPathUnits="userSpaceOnUse"
       id="clipPath52">
      <path
         d="M 0,660 H 660 V 0 H 0 Z"
         transform="translate(-268.03761,-489.96581)"
         id="path52" />
    </clipPath>
    <clipPath
       clipPathUnits="userSpaceOnUse"
       id="clipPath54">
      <path
         d="M 0,660 H 660 V 0 H 0 Z"
         transform="translate(-290.58691,-565.27882)"
         id="path54" />
    </clipPath>
    <clipPath
       clipPathUnits="userSpaceOnUse"
       id="clipPath56">
      <path
         d="M 0,660 H 660 V 0 H 0 Z"
         transform="translate(-290.58691,-565.27882)"
         id="path56" />
    </clipPath>
    <clipPath
       clipPathUnits="userSpaceOnUse"
       id="clipPath58">
      <path
         d="M 0,660 H 660 V 0 H 0 Z"
         transform="translate(-269.293,-571.61471)"
         id="path58" />
    </clipPath>
  </defs>
  <sodipodi:namedview
     id="namedview1"
     pagecolor="#ffffff"
     bordercolor="#000000"
     borderopacity="0.25"
     inkscape:showpageshadow="2"
     inkscape:pageopacity="0.0"
     inkscape:pagecheckerboard="0"
     inkscape:deskcolor="#d1d1d1"
     inkscape:zoom="0.67272727"
     inkscape:cx="439.25676"
     inkscape:cy="440"
     inkscape:window-width="1440"
     inkscape:window-height="830"
     inkscape:window-x="-6"
     inkscape:window-y="-6"
     inkscape:window-maximized="1"
     inkscape:current-layer="g1">
    <inkscape:page
       x="0"
       y="0"
       inkscape:label="1"
       id="page1"
       width="880"
       height="880"
       margin="108.98307 177.77066 11.074667 206.82666"
       bleed="0" />
  </sodipodi:namedview>
  <g
     id="g1"
     inkscape:groupmode="layer"
     inkscape:label="1">
    <g
       id="group-MC0">
      <path
         id="path2"
         d="m 0,0 3.933,-15.725 -31.452,-21.229 -72.243,-68.239 -53.717,-104.452 9.716,-58.31 -7.304,-45.949 59.424,-115.943 101.138,-74.066 20.441,-40.099 -36.169,-11.793 -18.869,42.456 -36.953,3.932 4.718,11.008 11.794,2.358 -84.626,58.341 -58.639,123.019 4.7,49.443 -8.685,51.672 68.841,131.421 77.563,58.568 -13.364,29.091 9.434,8.648 18.871,-26.732 z"
         style="fill:#bd4c1f;fill-opacity:1;fill-rule:evenodd;stroke:none"
         transform="matrix(1.3333333,0,0,-1.3333333,662.31387,29.944)" />
      <path
         id="path3"
         d="m 0,0 -8.604,-5.808 -0.256,-0.242 -23.733,9.743 5.118,3.865 -0.968,2.111 19.617,-8.054 -8.785,17.066 c -0.899,1.745 -0.214,3.888 1.531,4.788 l 0.062,0.031 3.484,-4.935 2.469,0.989 z"
         style="fill:#892f1b;fill-opacity:1;fill-rule:evenodd;stroke:none"
         transform="matrix(1.3333333,0,0,-1.3333333,637.09507,71.471333)"
         clip-path="url(#clipPath4)" />
      <path
         id="path5"
         d="m 0,0 -31.451,-21.229 -72.243,-68.239 -53.718,-104.452 9.717,-58.31 -7.305,-45.95 59.425,-115.942 101.137,-74.066 20.442,-40.099 -36.169,-11.793 -18.869,42.456 -36.953,3.932 27.112,14.468 -75.423,65.366 -56.315,122.687 7.039,38.215 -6.035,61.344 50.283,104.587 71.4,68.383 z"
         style="fill:#892f1b;fill-opacity:1;fill-rule:evenodd;stroke:none"
         transform="matrix(1.3333333,0,0,-1.3333333,667.55733,50.910133)"
         clip-path="url(#clipPath6)" />
      <path
         id="path7"
         d="m 0,0 6.146,-4.502 -16.434,-26.661 -2.589,5.821 -8.576,0.913 z"
         style="fill:#5c2214;fill-opacity:1;fill-rule:evenodd;stroke:none"
         transform="matrix(1.3333333,0,0,-1.3333333,646.01427,680.61973)"
         clip-path="url(#clipPath8)" />
      <path
         id="path9"
         d="M 0,0 C 0,1.639 1.329,2.969 2.97,2.969 4.609,2.969 5.939,1.639 5.939,0 v -516.479 c 0,-1.639 -1.33,-2.968 -2.969,-2.968 -1.641,0 -2.97,1.329 -2.97,2.968 z"
         style="fill:#d7c9c4;fill-opacity:1;fill-rule:evenodd;stroke:none"
         transform="matrix(1.3333333,0,0,-1.3333333,624.50387,39.230533)"
         clip-path="url(#clipPath10)" />
      <path
         id="path11"
         d="M 0,0 21.874,68.634 11.816,12.319 Z"
         style="fill:#7e2b1a;fill-opacity:1;fill-rule:evenodd;stroke:none"
         transform="matrix(1.3333333,0,0,-1.3333333,441.41147,306.39253)"
         clip-path="url(#clipPath12)" />
      <path
         id="path13"
         d="M 0,0 -49.951,-31.497 -3.69,-10.88 Z"
         style="fill:#7e2b1a;fill-opacity:1;fill-rule:evenodd;stroke:none"
         transform="matrix(1.3333333,0,0,-1.3333333,583.1028,95.449867)"
         clip-path="url(#clipPath14)" />
      <path
         id="path15"
         d="M 0,0 18.561,-36.154 20.293,-25.429 1.422,1.304 Z"
         style="fill:#7e2b1a;fill-opacity:1;fill-rule:evenodd;stroke:none"
         transform="matrix(1.3333333,0,0,-1.3333333,593.32547,12.812533)"
         clip-path="url(#clipPath16)" />
      <path
         id="path17"
         d="M 0,0 -52.293,61.848 -15.587,41.229 Z"
         style="fill:#7e2b1a;fill-opacity:1;fill-rule:evenodd;stroke:none"
         transform="matrix(1.3333333,0,0,-1.3333333,510.13147,575.23307)"
         clip-path="url(#clipPath18)" />
      <path
         id="path19"
         d="M 0,0 -2.514,42.489 9.052,18.857 Z"
         style="fill:#7e2b1a;fill-opacity:1;fill-rule:evenodd;stroke:none"
         transform="matrix(1.3333333,0,0,-1.3333333,440.07293,439.138)"
         clip-path="url(#clipPath20)" />
      <path
         id="path21"
         d="M 0,0 C -1.093,-0.273 -2.295,-0.026 -3.206,0.771 -4.682,2.063 -4.831,4.307 -3.54,5.783 l 24.024,27.355 c 1.291,1.475 3.534,1.625 5.011,0.334 1.348,-1.179 1.588,-3.155 0.636,-4.612 L 3.549,-7.77 c -1.031,-1.67 -3.217,-2.187 -4.885,-1.156 -1.669,1.03 -2.185,3.218 -1.155,4.884 z"
         style="fill:#b2a29e;fill-opacity:1;fill-rule:evenodd;stroke:none"
         transform="matrix(1.3333333,0,0,-1.3333333,619.37507,717.86973)"
         clip-path="url(#clipPath22)" />
      <path
         id="path23"
         d="m 0,0 0.502,-33.21 -16.23,-18.682 36.169,11.793 z"
         style="fill:#5c2214;fill-opacity:1;fill-rule:evenodd;stroke:none"
         transform="matrix(1.3333333,0,0,-1.3333333,674.974,701.82813)"
         clip-path="url(#clipPath24)" />
      <path
         id="path25"
         d="M 0,0 C -1.814,0.746 -2.679,2.821 -1.935,4.635 -1.19,6.45 0.887,7.315 2.701,6.57 l 21.998,-9.032 -8.785,17.067 c -0.898,1.744 -0.214,3.889 1.533,4.788 1.743,0.899 3.888,0.213 4.787,-1.531 L 35.433,-7.783 35.43,-7.784 c 0.46,-0.893 0.54,-1.976 0.128,-2.977 -0.745,-1.815 -2.822,-2.681 -4.635,-1.935 z"
         style="fill:#b2a29e;fill-opacity:1;fill-rule:evenodd;stroke:none"
         transform="matrix(1.3333333,0,0,-1.3333333,594.0612,63.470667)"
         clip-path="url(#clipPath26)" />
      <path
         id="path27"
         d="M 0,0 C 0,0.816 0.662,1.478 1.48,1.478 2.296,1.478 2.958,0.816 2.958,0 v -257.131 c 0,-0.817 -0.662,-1.477 -1.478,-1.477 -0.818,0 -1.48,0.66 -1.48,1.477 z"
         style="fill:#eae2df;fill-opacity:1;fill-rule:evenodd;stroke:none"
         transform="matrix(1.3333333,0,0,-1.3333333,626.15107,145.75653)"
         clip-path="url(#clipPath28)" />
      <path
         id="path29"
         d="m 0,0 -76.923,65.179 -66.342,116.18 58.639,-123.018 z m -78.409,413.896 -62.12,-133.51 1.964,-49.583 -8.685,51.672 z"
         style="fill:#e86e34;fill-opacity:1;fill-rule:evenodd;stroke:none"
         transform="matrix(1.3333333,0,0,-1.3333333,601.58987,691.34507)"
         clip-path="url(#clipPath30)" />
      <path
         id="path31"
         d="M 0,0 -21.461,-27.986 15.831,-119.145 40.855,-34.14 16.52,-0.31 Z"
         style="fill:#b2a29e;fill-opacity:1;fill-rule:evenodd;stroke:none"
         transform="matrix(1.3333333,0,0,-1.3333333,280.63933,552.5)"
         clip-path="url(#clipPath32)" />
      <path
         id="path33"
         d="M 0,0 -13.751,-29.206 12.67,-98.495 34.034,-36.618 16.52,-0.31 40.855,-34.14 15.831,-119.145 -21.461,-27.986 Z"
         style="fill:#d7c9c4;fill-opacity:1;fill-rule:evenodd;stroke:none"
         transform="matrix(1.3333333,0,0,-1.3333333,280.63933,552.5)"
         clip-path="url(#clipPath34)" />
      <path
         id="path35"
         d="m 0,0 -24.663,72.851 1.219,10.267 17.535,-28.062 -15.776,42.882 0.881,7.421 13.816,-18.062 -12.153,32.075 2.559,21.555 27.511,-60.329 z"
         style="fill:#d7c9c4;fill-opacity:1;fill-rule:evenodd;stroke:none"
         transform="matrix(1.3333333,0,0,-1.3333333,239.71027,298.00907)"
         clip-path="url(#clipPath36)" />
      <path
         id="path37"
         d="M 0,0 31.038,63.229 26.157,79.741 8.586,52.773 22.928,90.652 16.792,111.41 -0.886,87.933 13.728,121.769 8.415,139.738 -12.001,78.465 Z"
         style="fill:#d7c9c4;fill-opacity:1;fill-rule:evenodd;stroke:none"
         transform="matrix(1.3333333,0,0,-1.3333333,270.28387,295.16467)"
         clip-path="url(#clipPath38)" />
      <path
         id="path39"
         d="m 0,0 1.24,-109.067 23.576,-139.096 1.224,-79.747 -12.795,-3.353 -5.704,74.226 -29.514,147.577 -0.241,109.17 z"
         style="fill:#bd4c1f;fill-opacity:1;fill-rule:evenodd;stroke:none"
         transform="matrix(1.3333333,0,0,-1.3333333,269.09173,190.35093)"
         clip-path="url(#clipPath40)" />
      <path
         id="path41"
         d="m 0,0 -7.486,-73.516 -5.854,24.071 2.073,-61.206 14.499,-74.413 -10.435,15.94 15.418,-41.511 7.647,-39.249 -2.617,-81.379 12.795,3.353 -1.224,79.747 -23.576,139.096 z"
         style="fill:#892f1b;fill-opacity:1;fill-rule:evenodd;stroke:none"
         transform="matrix(1.3333333,0,0,-1.3333333,269.09173,190.35093)"
         clip-path="url(#clipPath42)" />
      <path
         id="path43"
         d="m 0,0 4.29,-109.538 6.063,-50.192 -10.112,50.56 z"
         style="fill:#e86e34;fill-opacity:1;fill-rule:evenodd;stroke:none"
         transform="matrix(1.3333333,0,0,-1.3333333,239.47267,190.7376)"
         clip-path="url(#clipPath44)" />
      <path
         id="path45"
         d="m 0,0 -28.82,-20.326 8.464,-98.129 49.195,73.704 -13.161,39.54 z"
         style="fill:#b2a29e;fill-opacity:1;fill-rule:evenodd;stroke:none"
         transform="matrix(1.3333333,0,0,-1.3333333,290.6608,475.4648)"
         clip-path="url(#clipPath46)" />
      <path
         id="path47"
         d="m 0,0 -21.823,-23.785 4.597,-74.014 38.816,52.711 -5.912,39.877 13.161,-39.54 -49.195,-73.704 -8.464,98.129 z"
         style="fill:#d7c9c4;fill-opacity:1;fill-rule:evenodd;stroke:none"
         transform="matrix(1.3333333,0,0,-1.3333333,290.6608,475.4648)"
         clip-path="url(#clipPath48)" />
      <path
         id="path49"
         d="m 0,0 -1.857,76.889 4.22,9.44 8.386,-32.011 -2.296,45.636 3.052,6.821 7.812,-21.355 -2.054,34.237 8.861,19.817 8.305,-65.784 z"
         style="fill:#d7c9c4;fill-opacity:1;fill-rule:evenodd;stroke:none"
         transform="matrix(1.3333333,0,0,-1.3333333,327.34827,220.32547)"
         clip-path="url(#clipPath50)" />
      <path
         id="path51"
         d="M 0,0 48.454,51.122 48.708,68.338 23.908,47.824 48.877,79.717 49.196,101.36 25.33,84.21 49.356,112.162 49.633,130.897 11.902,78.48 Z"
         style="fill:#d7c9c4;fill-opacity:1;fill-rule:evenodd;stroke:none"
         transform="matrix(1.3333333,0,0,-1.3333333,357.38347,226.71227)"
         clip-path="url(#clipPath52)" />
      <path
         id="path53"
         d="m 0,0 -31.285,-104.491 -18.902,-139.807 -22.575,-76.495 -13.213,0.606 16.653,72.557 15.758,149.673 32.27,104.293 z"
         style="fill:#bd4c1f;fill-opacity:1;fill-rule:evenodd;stroke:none"
         transform="matrix(1.3333333,0,0,-1.3333333,387.4492,126.29493)"
         clip-path="url(#clipPath54)" />
      <path
         id="path55"
         d="m 0,0 -29.032,-67.954 1.576,24.722 -16.242,-59.049 -8.311,-75.354 -5.217,18.324 2.362,-44.22 -4.385,-39.746 -26.726,-76.91 13.213,-0.606 22.575,76.495 18.902,139.807 z"
         style="fill:#892f1b;fill-opacity:1;fill-rule:evenodd;stroke:none"
         transform="matrix(1.3333333,0,0,-1.3333333,387.4492,126.29493)"
         clip-path="url(#clipPath56)" />
      <path
         id="path57"
         d="m 0,0 -28.513,-105.849 -9.155,-49.72 5.398,51.277 z"
         style="fill:#e86e34;fill-opacity:1;fill-rule:evenodd;stroke:none"
         transform="matrix(1.3333333,0,0,-1.3333333,359.05733,117.84707)"
         clip-path="url(#clipPath58)" />
    </g>
  </g>
</svg>
