<?xml version="1.0" encoding="UTF-8" standalone="no"?>
<!-- Created with Inkscape (http://www.inkscape.org/) -->

<svg
   version="1.1"
   id="svg1"
   width="880"
   height="880"
   viewBox="0 0 880 880"
   sodipodi:docname="toxic-waste-barrel.svg"
   inkscape:version="1.3.2 (091e20e, 2023-11-25, custom)"
   xmlns:inkscape="http://www.inkscape.org/namespaces/inkscape"
   xmlns:sodipodi="http://sodipodi.sourceforge.net/DTD/sodipodi-0.dtd"
   xmlns="http://www.w3.org/2000/svg"
   xmlns:svg="http://www.w3.org/2000/svg">
  <defs
     id="defs1">
    <clipPath
       clipPathUnits="userSpaceOnUse"
       id="clipPath3">
      <path
         d="M 0,660 H 660 V 0 H 0 Z"
         transform="translate(-345.22461,-76.206999)"
         id="path3" />
    </clipPath>
    <clipPath
       clipPathUnits="userSpaceOnUse"
       id="clipPath5">
      <path
         d="M 0,660 H 660 V 0 H 0 Z"
         transform="translate(-431.60351,-218.88091)"
         id="path5" />
    </clipPath>
    <clipPath
       clipPathUnits="userSpaceOnUse"
       id="clipPath7">
      <path
         d="M 0,660 H 660 V 0 H 0 Z"
         transform="translate(-431.60351,-218.88091)"
         id="path7" />
    </clipPath>
    <clipPath
       clipPathUnits="userSpaceOnUse"
       id="clipPath9">
      <path
         d="M 0,660 H 660 V 0 H 0 Z"
         transform="translate(-334.71881,-632.21582)"
         id="path9" />
    </clipPath>
    <clipPath
       clipPathUnits="userSpaceOnUse"
       id="clipPath11">
      <path
         d="M 0,660 H 660 V 0 H 0 Z"
         transform="translate(-326.30421,-432.39701)"
         id="path11" />
    </clipPath>
    <clipPath
       clipPathUnits="userSpaceOnUse"
       id="clipPath13">
      <path
         d="M 0,660 H 660 V 0 H 0 Z"
         transform="translate(-326.30421,-437.34621)"
         id="path13" />
    </clipPath>
    <clipPath
       clipPathUnits="userSpaceOnUse"
       id="clipPath15">
      <path
         d="M 0,660 H 660 V 0 H 0 Z"
         transform="translate(-429.30081,-467.16601)"
         id="path15" />
    </clipPath>
    <clipPath
       clipPathUnits="userSpaceOnUse"
       id="clipPath17">
      <path
         d="M 0,660 H 660 V 0 H 0 Z"
         transform="translate(-431.60351,-416.02691)"
         id="path17" />
    </clipPath>
    <clipPath
       clipPathUnits="userSpaceOnUse"
       id="clipPath19">
      <path
         d="M 0,660 H 660 V 0 H 0 Z"
         transform="translate(-431.60351,-313.41111)"
         id="path19" />
    </clipPath>
    <clipPath
       clipPathUnits="userSpaceOnUse"
       id="clipPath21">
      <path
         d="M 0,660 H 660 V 0 H 0 Z"
         transform="translate(-296.45361,-182.5957)"
         id="path21" />
    </clipPath>
    <clipPath
       clipPathUnits="userSpaceOnUse"
       id="clipPath23">
      <path
         d="M 0,660 H 660 V 0 H 0 Z"
         transform="translate(-330.43211,-147.57711)"
         id="path23" />
    </clipPath>
    <clipPath
       clipPathUnits="userSpaceOnUse"
       id="clipPath25">
      <path
         d="M 0,660 H 660 V 0 H 0 Z"
         transform="translate(-307.27831,-123.1533)"
         id="path25" />
    </clipPath>
    <clipPath
       clipPathUnits="userSpaceOnUse"
       id="clipPath27">
      <path
         d="M 0,660 H 660 V 0 H 0 Z"
         transform="translate(-161.22171,-200.54301)"
         id="path27" />
    </clipPath>
    <clipPath
       clipPathUnits="userSpaceOnUse"
       id="clipPath29">
      <path
         d="M 0,660 H 660 V 0 H 0 Z"
         transform="translate(-194.8428,-206.57031)"
         id="path29" />
    </clipPath>
    <clipPath
       clipPathUnits="userSpaceOnUse"
       id="clipPath31">
      <path
         d="M 0,660 H 660 V 0 H 0 Z"
         transform="translate(-204.35791,-116.4922)"
         id="path31" />
    </clipPath>
    <clipPath
       clipPathUnits="userSpaceOnUse"
       id="clipPath33">
      <path
         d="M 0,660 H 660 V 0 H 0 Z"
         transform="translate(-348.44141,-346.75591)"
         id="path33" />
    </clipPath>
    <clipPath
       clipPathUnits="userSpaceOnUse"
       id="clipPath35">
      <path
         d="M 0,660 H 660 V 0 H 0 Z"
         transform="translate(-380.79101,-304.95311)"
         id="path35" />
    </clipPath>
    <clipPath
       clipPathUnits="userSpaceOnUse"
       id="clipPath37">
      <path
         d="M 0,660 H 660 V 0 H 0 Z"
         transform="translate(-261.2407,-445.39891)"
         id="path37" />
    </clipPath>
  </defs>
  <sodipodi:namedview
     id="namedview1"
     pagecolor="#ffffff"
     bordercolor="#000000"
     borderopacity="0.25"
     inkscape:showpageshadow="2"
     inkscape:pageopacity="0.0"
     inkscape:pagecheckerboard="0"
     inkscape:deskcolor="#d1d1d1"
     inkscape:zoom="0.67272727"
     inkscape:cx="439.25676"
     inkscape:cy="440"
     inkscape:window-width="1440"
     inkscape:window-height="830"
     inkscape:window-x="-6"
     inkscape:window-y="-6"
     inkscape:window-maximized="1"
     inkscape:current-layer="g1">
    <inkscape:page
       x="0"
       y="0"
       inkscape:label="1"
       id="page1"
       width="880"
       height="880"
       margin="101.60934 131.53999 18.010666 172.14"
       bleed="0" />
  </sodipodi:namedview>
  <g
     id="g1"
     inkscape:groupmode="layer"
     inkscape:label="1">
    <g
       id="group-MC0">
      <path
         id="path2"
         d="m 0,0 c 119.036,0 216.12,43.884 216.12,97.689 0,53.804 -97.084,97.688 -216.12,97.688 -119.035,0 -216.12,-43.884 -216.12,-97.688 C -216.12,43.884 -119.035,0 0,0"
         style="fill:#f2e7e5;fill-opacity:1;fill-rule:evenodd;stroke:none"
         transform="matrix(1.3333333,0,0,-1.3333333,460.29947,778.39067)"
         clip-path="url(#clipPath3)" />
      <path
         id="path4"
         d="m 0,0 c 0,-21.299 -47.147,-38.566 -105.301,-38.566 -58.155,0 -105.301,17.267 -105.301,38.566 V 256.148 H 0 Z"
         style="fill:#2f2825;fill-opacity:1;fill-rule:evenodd;stroke:none"
         transform="matrix(1.3333333,0,0,-1.3333333,575.47133,588.1588)"
         clip-path="url(#clipPath5)" />
      <path
         id="path6"
         d="m 0,0 c 0,-21.299 -47.147,-38.566 -105.301,-38.566 -26.976,0 -51.58,3.716 -70.212,9.825 30.771,-1.479 89.806,1.369 89.261,31.816 -2.484,138.605 0.305,184.755 -29.813,197.278 -13.086,5.442 -55.687,11.641 -80.882,45.195 -0.05,0.065 10.203,4.767 22.613,10.6 l 174.334,0 z"
         style="fill:#191614;fill-opacity:1;fill-rule:evenodd;stroke:none"
         transform="matrix(1.3333333,0,0,-1.3333333,575.47133,588.1588)"
         clip-path="url(#clipPath7)" />
      <path
         id="path8"
         d="m 0,0 c 10.422,0 18.871,-4.401 18.871,-9.832 0,-5.431 -8.449,-9.832 -18.871,-9.832 -10.422,0 -18.871,4.401 -18.871,9.832 C -18.871,-4.401 -10.422,0 0,0 m -120.625,-56.516 c 3.011,-0.773 5.131,-2.634 5.131,-4.805 0,-1.641 -1.209,-3.103 -3.097,-4.054 3.578,-0.565 6.228,-2.603 6.228,-5.031 0,-1.377 -0.855,-2.631 -2.246,-3.558 4.146,-0.274 7.377,-2.479 7.377,-5.16 0,-1.114 -0.557,-2.145 -1.507,-2.991 0.101,0.004 0.204,0.004 0.306,0.004 4.553,0 8.245,-2.323 8.245,-5.188 0,-0.859 -0.331,-1.668 -0.917,-2.382 0.46,0.052 0.936,0.078 1.421,0.078 4.555,0 8.247,-2.322 8.247,-5.187 0,-0.617 -0.174,-1.209 -0.487,-1.757 0.782,0.155 1.614,0.238 2.477,0.238 4.556,0 8.248,-2.322 8.248,-5.188 0,-0.384 -0.068,-0.757 -0.194,-1.119 1.053,0.308 2.226,0.481 3.464,0.481 4.556,0 8.248,-2.323 8.248,-5.189 0,-0.152 -0.012,-0.304 -0.033,-0.454 1.276,0.508 2.788,0.803 4.407,0.803 4.456,0 8.084,-2.222 8.243,-5 1.42,0.736 3.246,1.179 5.232,1.179 4.114,0 7.525,-1.896 8.144,-4.375 1.501,0.989 3.621,1.607 5.968,1.607 3.754,0 6.922,-1.579 7.919,-3.739 1.501,1.275 3.913,2.104 6.63,2.104 3.42,0 6.353,-1.31 7.604,-3.175 1.422,1.557 4.092,2.605 7.15,2.605 3.058,0 5.731,-1.048 7.153,-2.605 1.249,1.865 4.182,3.176 7.602,3.176 2.719,0 5.129,-0.828 6.632,-2.105 0.995,2.161 4.165,3.739 7.92,3.739 2.347,0 4.465,-0.618 5.964,-1.606 0.623,2.479 4.031,4.374 8.147,4.374 1.985,0 3.81,-0.442 5.233,-1.179 0.159,2.779 3.786,5.001 8.241,5.001 1.62,0 3.131,-0.294 4.406,-0.802 -0.021,0.148 -0.031,0.3 -0.031,0.452 0,2.866 3.691,5.189 8.245,5.189 1.239,0 2.412,-0.173 3.466,-0.479 -0.125,0.36 -0.193,0.735 -0.193,1.119 0,2.865 3.693,5.186 8.245,5.186 0.864,0 1.698,-0.082 2.479,-0.236 -0.316,0.546 -0.484,1.138 -0.484,1.755 0,2.865 3.692,5.187 8.246,5.187 0.485,0 0.959,-0.026 1.421,-0.078 -0.587,0.714 -0.92,1.523 -0.92,2.382 0,2.865 3.695,5.188 8.248,5.188 0.102,0 0.202,0 0.305,-0.004 -0.95,0.846 -1.507,1.877 -1.507,2.991 0,2.681 3.23,4.886 7.378,5.16 -1.394,0.927 -2.249,2.181 -2.249,3.558 0,2.428 2.652,4.466 6.233,5.031 -1.893,0.951 -3.102,2.413 -3.102,4.054 0,2.171 2.122,4.031 5.133,4.804 -1.632,0.607 -2.899,1.558 -3.558,2.692 l -0.044,0.08 -0.084,0.161 -0.04,0.081 c -0.037,0.082 -0.072,0.163 -0.103,0.246 l -0.031,0.084 -0.027,0.078 v 0.006 l -0.026,0.085 v 0 l -0.023,0.077 -0.002,0.007 -0.021,0.081 -10e-4,0.004 -0.02,0.087 -0.008,0.038 -0.01,0.047 -0.013,0.083 -0.001,0.004 -0.012,0.088 -0.006,0.039 v 0.018 l -0.011,0.093 -0.002,0.022 v 0.002 l -0.007,0.088 v 0.012 l -0.002,0.061 v 0.016 l -0.002,0.088 v 0.002 l 0.002,0.087 v 0.016 l 0.002,0.061 v 0.012 l 0.007,0.087 v 0.003 l 0.002,0.021 0.011,0.094 v 0.017 l 0.006,0.041 0.012,0.087 0.001,0.004 0.013,0.083 0.01,0.046 0.008,0.039 0.02,0.086 10e-4,0.006 0.021,0.08 0.002,0.007 0.023,0.076 v 10e-4 l 0.026,0.085 v 0.005 l 0.027,0.079 0.031,0.084 c 0.031,0.083 0.066,0.164 0.103,0.246 l 0.04,0.081 0.084,0.161 0.044,0.079 c 0.659,1.135 1.926,2.085 3.558,2.693 -3.011,0.772 -5.133,2.633 -5.133,4.804 0,1.64 1.209,3.101 3.102,4.053 -3.581,0.566 -6.233,2.603 -6.233,5.032 0,1.377 0.855,2.631 2.249,3.559 -4.148,0.273 -7.378,2.478 -7.378,5.158 0,1.115 0.557,2.146 1.507,2.991 -0.103,-0.002 -0.203,-0.003 -0.305,-0.003 -4.553,0 -8.248,2.322 -8.248,5.188 0,0.858 0.333,1.668 0.92,2.382 -0.462,-0.052 -0.936,-0.078 -1.421,-0.078 -4.554,0 -8.246,2.322 -8.246,5.187 0,0.617 0.168,1.207 0.484,1.756 -0.781,-0.155 -1.615,-0.238 -2.479,-0.238 -4.552,0 -8.245,2.322 -8.245,5.187 0,0.384 0.068,0.759 0.193,1.12 -1.054,-0.307 -2.227,-0.48 -3.466,-0.48 -4.554,0 -8.245,2.324 -8.245,5.188 0,0.152 0.01,0.305 0.031,0.454 -1.275,-0.509 -2.786,-0.804 -4.406,-0.804 -4.455,0 -8.082,2.223 -8.241,5.002 -1.423,-0.737 -3.248,-1.179 -5.233,-1.179 -4.116,0 -7.524,1.895 -8.147,4.374 -1.499,-0.99 -3.617,-1.606 -5.964,-1.606 -3.755,0 -6.925,1.578 -7.92,3.739 -1.503,-1.277 -3.913,-2.105 -6.632,-2.105 -3.42,0 -6.353,1.311 -7.602,3.175 -1.422,-1.556 -4.095,-2.604 -7.153,-2.604 -3.058,0 -5.728,1.048 -7.15,2.604 -1.251,-1.864 -4.184,-3.174 -7.604,-3.174 -2.717,0 -5.129,0.827 -6.63,2.104 -0.997,-2.16 -4.165,-3.739 -7.919,-3.739 -2.347,0 -4.467,0.616 -5.968,1.607 -0.619,-2.48 -4.03,-4.375 -8.144,-4.375 -1.986,0 -3.812,0.442 -5.232,1.179 -0.159,-2.779 -3.787,-5 -8.243,-5 -1.619,0 -3.131,0.293 -4.407,0.803 0.021,-0.15 0.033,-0.302 0.033,-0.455 0,-2.864 -3.692,-5.188 -8.248,-5.188 -1.238,0 -2.411,0.173 -3.464,0.48 0.126,-0.361 0.194,-0.735 0.194,-1.119 0,-2.865 -3.692,-5.188 -8.248,-5.188 -0.863,0 -1.695,0.084 -2.477,0.239 0.313,-0.55 0.487,-1.14 0.487,-1.757 0,-2.865 -3.692,-5.187 -8.247,-5.187 -0.485,0 -0.961,0.026 -1.421,0.078 0.586,-0.715 0.917,-1.524 0.917,-2.382 0,-2.866 -3.692,-5.188 -8.245,-5.188 -0.102,0 -0.205,0.001 -0.306,0.003 0.95,-0.845 1.507,-1.876 1.507,-2.991 0,-2.68 -3.231,-4.885 -7.377,-5.158 1.391,-0.928 2.246,-2.182 2.246,-3.559 0,-2.429 -2.65,-4.466 -6.228,-5.032 1.888,-0.952 3.097,-2.413 3.097,-4.053 0,-2.172 -2.12,-4.032 -5.131,-4.805 l 0.023,-0.009 0.091,-0.033 0.111,-0.045 0.025,-0.01 0.087,-0.035 0.08,-0.034 0.029,-0.013 0.11,-0.046 0.105,-0.049 0.08,-0.036 0.026,-0.012 0.105,-0.051 0.076,-0.039 0.027,-0.012 0.076,-0.04 0.025,-0.013 0.099,-0.053 0.029,-0.015 0.07,-0.039 0.079,-0.043 0.021,-0.013 0.095,-0.056 0.029,-0.016 0.008,-0.006 0.123,-0.076 0.009,-0.005 0.021,-0.013 0.09,-0.058 0.027,-0.019 0.064,-0.042 0.07,-0.049 0.017,-0.011 0.089,-0.062 0.026,-0.02 0.007,-0.005 0.121,-0.089 0.017,-0.013 0.081,-0.063 0.006,-0.004 0.058,-0.049 0.016,-0.012 0.067,-0.056 0.014,-0.01 0.076,-0.067 0.06,-0.053 0.016,-0.016 0.065,-0.057 0.01,-0.011 c 0.064,-0.059 0.124,-0.119 0.183,-0.179 l 0.021,-0.02 0.008,-0.01 0.069,-0.073 0.022,-0.025 0.006,-0.007 0.094,-0.103 0.007,-0.009 0.079,-0.094 0.006,-0.007 0.038,-0.047 0.051,-0.067 0.009,-0.008 0.053,-0.077 0.023,-0.029 0.033,-0.046 0.047,-0.07 0.005,-0.007 0.053,-0.078 0.018,-0.032 0.011,-0.014 0.058,-0.1 0.004,-0.005 0.004,-0.007 c 0.06,-0.104 0.115,-0.212 0.165,-0.321 l 0.017,-0.034 0.004,-0.013 0.049,-0.111 0.005,-0.005 0.031,-0.083 0.014,-0.038 0.002,-0.009 0.039,-0.116 0.005,-0.005 0.024,-0.083 0.013,-0.04 0.012,-0.045 0.021,-0.083 v -0.003 l 0.02,-0.086 0.009,-0.04 0.008,-0.046 0.014,-0.084 0.002,-0.002 0.012,-0.087 0.005,-0.042 0.002,-0.01 0.011,-0.114 v -0.008 -0.003 l 0.008,-0.087 v -0.017 l 0.002,-0.054 0.002,-0.107 -0.002,-0.106 -0.002,-0.055 v -0.016 l -0.008,-0.088 v -0.002 -0.008 l -0.011,-0.114 -0.002,-0.01 -0.005,-0.042 -0.012,-0.088 -0.002,-10e-4 -0.014,-0.085 -0.008,-0.045 -0.009,-0.04 -0.02,-0.086 v -0.004 l -0.021,-0.082 -0.012,-0.045 -0.013,-0.04 -0.024,-0.084 -0.005,-0.004 -0.039,-0.117 -0.002,-0.009 -0.014,-0.038 -0.031,-0.082 -0.005,-0.005 -0.049,-0.113 -0.004,-0.011 -0.017,-0.034 c -0.05,-0.108 -0.105,-0.216 -0.165,-0.322 l -0.004,-0.008 -0.004,-0.003 -0.058,-0.099 -0.011,-0.015 -0.018,-0.032 -0.053,-0.078 -0.005,-0.008 -0.047,-0.069 -0.033,-0.047 -0.023,-0.029 -0.053,-0.076 -0.009,-0.008 -0.051,-0.066 -0.038,-0.048 -0.006,-0.007 -0.079,-0.094 -0.007,-0.009 -0.094,-0.104 -0.006,-0.005 -0.022,-0.027 -0.069,-0.072 -0.008,-0.01 -0.021,-0.02 c -0.059,-0.061 -0.119,-0.12 -0.183,-0.179 l -0.01,-0.012 -0.065,-0.057 -0.016,-0.015 -0.06,-0.052 -0.076,-0.068 -0.014,-0.01 -0.067,-0.056 -0.016,-0.012 -0.058,-0.049 -0.006,-0.003 -0.081,-0.064 -0.017,-0.013 -0.121,-0.089 -0.007,-0.006 -0.026,-0.019 -0.089,-0.062 -0.017,-0.011 -0.07,-0.049 -0.064,-0.043 -0.027,-0.017 -0.09,-0.06 -0.021,-0.012 -0.009,-0.005 -0.123,-0.075 -0.008,-0.007 -0.029,-0.016 -0.095,-0.057 -0.021,-0.013 -0.079,-0.042 -0.07,-0.039 -0.029,-0.015 -0.099,-0.054 -0.025,-0.011 -0.076,-0.041 -0.027,-0.012 -0.076,-0.039 -0.105,-0.051 -0.026,-0.012 -0.08,-0.036 -0.105,-0.049 -0.11,-0.048 -0.029,-0.012 -0.08,-0.033 -0.087,-0.035 -0.025,-0.011 -0.111,-0.044 -0.091,-0.035 z"
         style="fill:#2f2825;fill-opacity:1;fill-rule:evenodd;stroke:none"
         transform="matrix(1.3333333,0,0,-1.3333333,446.29173,37.0456)"
         clip-path="url(#clipPath9)" />
      <path
         id="path10"
         d="M 0,0 C 63.38,0 115.079,19.151 115.079,42.634 115.079,66.116 63.38,85.268 0,85.268 -63.385,85.268 -115.081,66.116 -115.081,42.634 -115.081,19.151 -63.385,0 0,0"
         style="fill:#766864;fill-opacity:1;fill-rule:evenodd;stroke:none"
         transform="matrix(1.3333333,0,0,-1.3333333,435.07227,303.47067)"
         clip-path="url(#clipPath11)" />
      <path
         id="path12"
         d="M 0,0 C 57.996,0 105.299,16.929 105.299,37.685 105.299,58.44 57.996,75.369 0,75.369 -58,75.369 -105.303,58.44 -105.303,37.685 -105.303,16.929 -58,0 0,0"
         style="fill:#2f2825;fill-opacity:1;fill-rule:evenodd;stroke:none"
         transform="matrix(1.3333333,0,0,-1.3333333,435.07227,296.87173)"
         clip-path="url(#clipPath13)" />
      <path
         id="path14"
         d="m 0,0 c -10.108,-17.038 -52.377,-29.82 -102.999,-29.82 -50.62,0 -92.89,12.782 -102.996,29.82 10.108,17.038 52.379,29.821 102.996,29.821 C -52.379,29.821 -10.108,17.038 0,0"
         style="fill:#f39c0f;fill-opacity:1;fill-rule:evenodd;stroke:none"
         transform="matrix(1.3333333,0,0,-1.3333333,572.40107,257.112)"
         clip-path="url(#clipPath15)" />
      <path
         id="path16"
         d="m 0,0 c 7.115,-5.518 11.101,-11.682 11.101,-18.187 0,-23.548 -52.116,-42.635 -116.402,-42.635 -64.287,0 -116.403,19.087 -116.403,42.635 0,6.505 3.986,12.669 11.102,18.187 v -18.189 c 0,-20.812 47.146,-37.684 105.301,-37.684 C -47.144,-55.873 0,-39.001 0,-18.189 Z"
         style="fill:#766864;fill-opacity:1;fill-rule:evenodd;stroke:none"
         transform="matrix(1.3333333,0,0,-1.3333333,575.47133,325.29747)"
         clip-path="url(#clipPath17)" />
      <path
         id="path18"
         d="m 0,0 c 7.115,-5.518 11.101,-11.681 11.101,-18.187 0,-23.547 -52.116,-42.635 -116.402,-42.635 -64.287,0 -116.403,19.088 -116.403,42.635 0,6.506 3.986,12.669 11.102,18.187 v -18.187 c 0,-20.813 47.146,-37.685 105.301,-37.685 C -47.144,-55.872 0,-39 0,-18.187 Z"
         style="fill:#766864;fill-opacity:1;fill-rule:evenodd;stroke:none"
         transform="matrix(1.3333333,0,0,-1.3333333,575.47133,462.11853)"
         clip-path="url(#clipPath19)" />
      <path
         id="path20"
         d="m 0,0 c -3.891,-20.269 14.139,-34.572 2.647,-44.466 -13.064,-11.247 -104.109,-0.374 -120.718,10.197 -7.138,5.451 -13.51,15.768 -17.608,23.769 -9.725,18.985 6.895,20.133 20.605,25.23 12.553,4.662 16.122,7.781 30.247,5.852 4.134,-0.62 7.76,-1.032 11.937,-1.226 20.414,-0.295 48.499,2.091 58.302,23.327 8.95,19.396 -13.396,27.957 -3.269,41.547 6.957,9.334 6.822,13.07 6.364,24.693 -0.546,13.112 -1.731,23.004 -0.663,36.34 0.436,5.45 0.931,10.993 -0.242,16.374 -3.696,9.799 -10.669,5.903 -6.525,21.441 2.257,8.455 2.76,13.935 2.036,22.736 -1.396,13.277 -3.085,17.99 -1.751,32.514 0.655,7.123 1.801,12.645 4.262,19.369 10.659,18.887 42.046,11.304 25.349,-7.871 -8.838,-10.153 -19.348,-20.359 -17.94,-34.829 1.66,-16.219 3.845,-18.035 -1.852,-34.065 -3.918,-11.018 8.245,-11.994 8.022,-31.532 -0.323,-10.601 -0.492,-16.705 0.266,-27.31 0.82,-10.565 3.1,-29.517 -3.504,-38.532 -5.92,-8.084 -8.317,-6.03 -1.507,-16.09 C 9.482,45.273 4.855,24.371 0,0"
         style="fill:#f39c0f;fill-opacity:1;fill-rule:evenodd;stroke:none"
         transform="matrix(1.3333333,0,0,-1.3333333,395.27147,636.53907)"
         clip-path="url(#clipPath21)" />
      <path
         id="path22"
         d="m 0,0 c 9.083,0 16.492,3.847 16.492,8.563 0,4.716 -7.409,8.564 -16.492,8.564 -9.083,0 -16.493,-3.848 -16.493,-8.564 C -16.493,3.847 -9.083,0 0,0"
         style="fill:#f39c0f;fill-opacity:1;fill-rule:evenodd;stroke:none"
         transform="matrix(1.3333333,0,0,-1.3333333,440.57613,683.23053)"
         clip-path="url(#clipPath23)" />
      <path
         id="path24"
         d="m 0,0 c 19.268,0 34.89,-7.312 34.89,-16.334 0,-9.02 -15.622,-16.334 -34.89,-16.334 -19.271,0 -34.89,7.314 -34.89,16.334 C -34.89,-7.312 -19.271,0 0,0"
         style="fill:#f39c0f;fill-opacity:1;fill-rule:evenodd;stroke:none"
         transform="matrix(1.3333333,0,0,-1.3333333,409.7044,715.7956)"
         clip-path="url(#clipPath25)" />
      <path
         id="path26"
         d="m 0,0 c 6.726,0 12.21,2.706 12.21,6.027 0,3.319 -5.484,6.028 -12.21,6.028 -6.726,0 -12.211,-2.709 -12.211,-6.028 C -12.211,2.706 -6.726,0 0,0"
         style="fill:#f39c0f;fill-opacity:1;fill-rule:evenodd;stroke:none"
         transform="matrix(1.3333333,0,0,-1.3333333,214.96227,612.60933)"
         clip-path="url(#clipPath27)" />
      <path
         id="path28"
         d="M 0,0 C 3.23,0 5.866,1.567 5.866,3.487 5.866,5.41 3.23,6.977 0,6.977 -3.234,6.977 -5.868,5.41 -5.868,3.487 -5.868,1.567 -3.234,0 0,0"
         style="fill:#f39c0f;fill-opacity:1;fill-rule:evenodd;stroke:none"
         transform="matrix(1.3333333,0,0,-1.3333333,259.7904,604.57293)"
         clip-path="url(#clipPath29)" />
      <path
         id="path30"
         d="m 0,0 c 8.471,0 15.381,3.134 15.381,6.979 0,3.841 -6.91,6.977 -15.381,6.977 -8.475,0 -15.383,-3.136 -15.383,-6.977 C -15.383,3.134 -8.475,0 0,0"
         style="fill:#f39c0f;fill-opacity:1;fill-rule:evenodd;stroke:none"
         transform="matrix(1.3333333,0,0,-1.3333333,272.4772,724.67707)"
         clip-path="url(#clipPath31)" />
      <path
         id="path32"
         d="m 0,0 c -20.283,0 -36.722,-16.441 -36.722,-36.721 0,-20.279 16.439,-36.72 36.722,-36.72 20.28,0 36.721,16.441 36.721,36.72 C 36.721,-16.441 20.28,0 0,0 m 32.35,-41.803 -13.766,1.965 -5.781,0.823 c -0.543,-3.048 -2.147,-5.728 -4.416,-7.646 l 3.605,-4.597 8.579,-10.935 c 6.177,4.995 10.501,12.189 11.779,20.39 M 0,-3.977 c 4.152,0 8.123,-0.774 11.777,-2.185 L 6.59,-19.067 4.414,-24.485 c -1.377,0.499 -2.865,0.771 -4.414,0.771 -1.55,0 -3.037,-0.272 -4.416,-0.771 l -2.176,5.418 -5.185,12.905 c 3.654,1.411 7.625,2.185 11.777,2.185 m -12.803,-35.038 -5.782,-0.823 -13.766,-1.965 c 1.277,-8.201 5.601,-15.395 11.779,-20.39 l 8.578,10.935 3.605,4.597 c -2.267,1.918 -3.874,4.598 -4.414,7.646 M 0,-27.848 c 4.9,0 8.873,-3.972 8.873,-8.873 0,-4.901 -3.973,-8.875 -8.873,-8.875 -4.9,0 -8.877,3.974 -8.877,8.875 0,4.901 3.977,8.873 8.877,8.873"
         style="fill:#fbca07;fill-opacity:1;fill-rule:evenodd;stroke:none"
         transform="matrix(1.3333333,0,0,-1.3333333,464.58853,417.6588)"
         clip-path="url(#clipPath33)" />
      <path
         id="path34"
         d="m 0,0 c -1.277,-8.201 -5.602,-15.396 -11.778,-20.391 l -8.579,10.938 -3.606,4.595 c 2.27,1.918 3.873,4.598 4.416,7.646 l 5.781,-0.823 z m -32.35,13.955 c 4.901,0 8.873,-3.973 8.873,-8.873 0,-4.901 -3.972,-8.875 -8.873,-8.875 -1.603,0 -3.107,0.426 -4.405,1.171 0.183,-8.953 0.34,-18.545 0.498,-28.81 1.284,-0.136 2.587,-0.207 3.907,-0.207 20.281,0 36.721,16.442 36.721,36.721 0,20.28 -16.44,36.721 -36.721,36.721 -2.011,0 -3.982,-0.164 -5.905,-0.475 0.075,-1.312 0.148,-2.643 0.216,-3.998 1.848,0.326 3.748,0.496 5.689,0.496 4.15,0 8.123,-0.777 11.778,-2.185 l -5.188,-12.906 -2.175,-5.418 c -1.377,0.499 -2.866,0.772 -4.415,0.772 -1.549,0 -3.037,-0.273 -4.416,-0.772 l -0.525,1.313 c 0.061,-1.984 0.121,-4.002 0.176,-6.061 1.377,0.878 3.012,1.386 4.765,1.386"
         style="fill:#f39c0f;fill-opacity:1;fill-rule:evenodd;stroke:none"
         transform="matrix(1.3333333,0,0,-1.3333333,507.72133,473.39587)"
         clip-path="url(#clipPath35)" />
      <path
         id="path36"
         d="m 0,0 c -19.003,5.352 -32.731,12.997 -37.935,21.767 10.108,17.038 52.379,29.821 102.996,29.821 33.179,0 62.77,-5.493 82.068,-14.075 -6.384,0.361 -12.917,0.548 -19.568,0.548 C 65.503,38.061 13.527,21.814 0,0"
         style="fill:#df8c16;fill-opacity:1;fill-rule:evenodd;stroke:none"
         transform="matrix(1.3333333,0,0,-1.3333333,348.32093,286.1348)"
         clip-path="url(#clipPath37)" />
    </g>
  </g>
</svg>
