<?xml version="1.0" encoding="UTF-8" standalone="no"?>
<!-- Created with Inkscape (http://www.inkscape.org/) -->

<svg
   version="1.1"
   id="svg1"
   width="880"
   height="880"
   viewBox="0 0 880 880"
   sodipodi:docname="modern-business-center.svg"
   inkscape:version="1.3.2 (091e20e, 2023-11-25, custom)"
   xmlns:inkscape="http://www.inkscape.org/namespaces/inkscape"
   xmlns:sodipodi="http://sodipodi.sourceforge.net/DTD/sodipodi-0.dtd"
   xmlns="http://www.w3.org/2000/svg"
   xmlns:svg="http://www.w3.org/2000/svg">
  <defs
     id="defs1">
    <clipPath
       clipPathUnits="userSpaceOnUse"
       id="clipPath3">
      <path
         d="M 0,660 H 660 V 0 H 0 Z"
         transform="translate(-329.94821,-86.162102)"
         id="path3" />
    </clipPath>
    <clipPath
       clipPathUnits="userSpaceOnUse"
       id="clipPath5">
      <path
         d="M 0,660 H 660 V 0 H 0 Z"
         transform="translate(-330.50731,-124.6162)"
         id="path5" />
    </clipPath>
    <clipPath
       clipPathUnits="userSpaceOnUse"
       id="clipPath7">
      <path
         d="M 0,660 H 660 V 0 H 0 Z"
         transform="translate(-476.59771,-165.2637)"
         id="path7" />
    </clipPath>
    <clipPath
       clipPathUnits="userSpaceOnUse"
       id="clipPath9">
      <path
         d="M 0,660 H 660 V 0 H 0 Z"
         transform="translate(-467.45411,-118.52541)"
         id="path9" />
    </clipPath>
    <clipPath
       clipPathUnits="userSpaceOnUse"
       id="clipPath11">
      <path
         d="M 0,660 H 660 V 0 H 0 Z"
         transform="translate(-502.32811,-140.30961)"
         id="path11" />
    </clipPath>
    <clipPath
       clipPathUnits="userSpaceOnUse"
       id="clipPath13">
      <path
         d="M 0,660 H 660 V 0 H 0 Z"
         transform="translate(-231.51861,-156.46971)"
         id="path13" />
    </clipPath>
    <clipPath
       clipPathUnits="userSpaceOnUse"
       id="clipPath15">
      <path
         d="M 0,660 H 660 V 0 H 0 Z"
         transform="translate(-185.8711,-111.28221)"
         id="path15" />
    </clipPath>
    <clipPath
       clipPathUnits="userSpaceOnUse"
       id="clipPath17">
      <path
         d="M 0,660 H 660 V 0 H 0 Z"
         transform="translate(-179.6616,-131.3232)"
         id="path17" />
    </clipPath>
    <clipPath
       clipPathUnits="userSpaceOnUse"
       id="clipPath19">
      <path
         d="M 0,660 H 660 V 0 H 0 Z"
         transform="translate(-241.31841,-303.35251)"
         id="path19" />
    </clipPath>
    <clipPath
       clipPathUnits="userSpaceOnUse"
       id="clipPath21">
      <path
         d="M 0,660 H 660 V 0 H 0 Z"
         transform="translate(-357.31841,-648.09332)"
         id="path21" />
    </clipPath>
    <clipPath
       clipPathUnits="userSpaceOnUse"
       id="clipPath23">
      <path
         d="M 0,660 H 660 V 0 H 0 Z"
         transform="translate(-218.67771,-160.6152)"
         id="path23" />
    </clipPath>
    <clipPath
       clipPathUnits="userSpaceOnUse"
       id="clipPath25">
      <path
         d="M 0,660 H 660 V 0 H 0 Z"
         transform="translate(-364.30961,-593.42141)"
         id="path25" />
    </clipPath>
    <clipPath
       clipPathUnits="userSpaceOnUse"
       id="clipPath27">
      <path
         d="M 0,660 H 660 V 0 H 0 Z"
         transform="translate(-441.21581,-539.58742)"
         id="path27" />
    </clipPath>
    <clipPath
       clipPathUnits="userSpaceOnUse"
       id="clipPath29">
      <path
         d="M 0,660 H 660 V 0 H 0 Z"
         transform="translate(-190.11621,-110.9775)"
         id="path29" />
    </clipPath>
    <clipPath
       clipPathUnits="userSpaceOnUse"
       id="clipPath31">
      <path
         d="M 0,660 H 660 V 0 H 0 Z"
         transform="translate(-353.86041,-225.25)"
         id="path31" />
    </clipPath>
    <clipPath
       clipPathUnits="userSpaceOnUse"
       id="clipPath33">
      <path
         d="M 0,660 H 660 V 0 H 0 Z"
         transform="translate(-364.21881,-544.33201)"
         id="path33" />
    </clipPath>
    <clipPath
       clipPathUnits="userSpaceOnUse"
       id="clipPath35">
      <path
         d="M 0,660 H 660 V 0 H 0 Z"
         transform="translate(-435.99321,-440.84571)"
         id="path35" />
    </clipPath>
    <clipPath
       clipPathUnits="userSpaceOnUse"
       id="clipPath37">
      <path
         d="M 0,660 H 660 V 0 H 0 Z"
         transform="translate(-364.21881,-544.33201)"
         id="path37" />
    </clipPath>
    <clipPath
       clipPathUnits="userSpaceOnUse"
       id="clipPath39">
      <path
         d="M 0,660 H 660 V 0 H 0 Z"
         transform="translate(-193.96581,-456.46531)"
         id="path39" />
    </clipPath>
    <clipPath
       clipPathUnits="userSpaceOnUse"
       id="clipPath41">
      <path
         d="M 0,660 H 660 V 0 H 0 Z"
         transform="translate(-205.9585,-109.7637)"
         id="path41" />
    </clipPath>
    <clipPath
       clipPathUnits="userSpaceOnUse"
       id="clipPath43">
      <path
         d="M 0,660 H 660 V 0 H 0 Z"
         transform="translate(-318.13381,-179.4688)"
         id="path43" />
    </clipPath>
    <clipPath
       clipPathUnits="userSpaceOnUse"
       id="clipPath45">
      <path
         d="M 0,660 H 660 V 0 H 0 Z"
         transform="translate(-234.78661,-116.3184)"
         id="path45" />
    </clipPath>
    <clipPath
       clipPathUnits="userSpaceOnUse"
       id="clipPath47">
      <path
         d="M 0,660 H 660 V 0 H 0 Z"
         transform="translate(-245.272,-188.4316)"
         id="path47" />
    </clipPath>
    <clipPath
       clipPathUnits="userSpaceOnUse"
       id="clipPath49">
      <path
         d="M 0,660 H 660 V 0 H 0 Z"
         transform="translate(-258.05571,-171.25101)"
         id="path49" />
    </clipPath>
    <clipPath
       clipPathUnits="userSpaceOnUse"
       id="clipPath51">
      <path
         d="M 0,660 H 660 V 0 H 0 Z"
         transform="translate(-495.37601,-115.9707)"
         id="path51" />
    </clipPath>
  </defs>
  <sodipodi:namedview
     id="namedview1"
     pagecolor="#ffffff"
     bordercolor="#000000"
     borderopacity="0.25"
     inkscape:showpageshadow="2"
     inkscape:pageopacity="0.0"
     inkscape:pagecheckerboard="0"
     inkscape:deskcolor="#d1d1d1"
     inkscape:zoom="0.67272727"
     inkscape:cx="439.25676"
     inkscape:cy="440"
     inkscape:window-width="1440"
     inkscape:window-height="830"
     inkscape:window-x="-6"
     inkscape:window-y="-6"
     inkscape:window-maximized="1"
     inkscape:current-layer="g1">
    <inkscape:page
       x="0"
       y="0"
       inkscape:label="1"
       id="page1"
       width="880"
       height="880"
       margin="114.8828 46.262665 15.876 46.123734"
       bleed="0" />
  </sodipodi:namedview>
  <g
     id="g1"
     inkscape:groupmode="layer"
     inkscape:label="1">
    <g
       id="group-MC0">
      <path
         id="path2"
         d="M 0,0 C 162.676,0 295.354,8.637 295.354,19.227 295.354,29.816 162.676,38.454 0,38.454 -162.676,38.454 -295.355,29.816 -295.355,19.227 -295.355,8.637 -162.676,0 0,0"
         style="fill:#adda1a;fill-opacity:1;fill-rule:evenodd;stroke:none"
         transform="matrix(1.3333333,0,0,-1.3333333,439.93093,765.1172)"
         clip-path="url(#clipPath3)" />
      <path
         id="path4"
         d="M 0,0 C 118.583,-0.015 220.752,-4.58 267.551,-11.154 L 23.353,-26.181 Z"
         style="fill:#769a2a;fill-opacity:1;fill-rule:evenodd;stroke:none"
         transform="matrix(1.3333333,0,0,-1.3333333,440.6764,713.84507)"
         clip-path="url(#clipPath5)" />
      <path
         id="path6"
         d="M 0,0 C 21.749,0 39.488,17.738 39.488,39.487 39.488,61.237 21.749,78.976 0,78.976 -21.75,78.976 -39.488,61.237 -39.488,39.487 -39.488,17.738 -21.75,0 0,0"
         style="fill:#769a2a;fill-opacity:1;fill-rule:evenodd;stroke:none"
         transform="matrix(1.3333333,0,0,-1.3333333,635.4636,659.6484)"
         clip-path="url(#clipPath7)" />
      <path
         id="path8"
         d="M 0,0 12.478,-0.559 8.184,66.374 2.659,62.516 Z"
         style="fill:#7e2b1a;fill-opacity:1;fill-rule:evenodd;stroke:none"
         transform="matrix(1.3333333,0,0,-1.3333333,623.27213,721.96613)"
         clip-path="url(#clipPath9)" />
      <path
         id="path10"
         d="M 0,0 C 14.982,0 27.203,12.222 27.203,27.204 27.203,42.186 14.982,54.407 0,54.407 -14.983,54.407 -27.203,42.186 -27.203,27.204 -27.203,12.222 -14.983,0 0,0"
         style="fill:#87b027;fill-opacity:1;fill-rule:evenodd;stroke:none"
         transform="matrix(1.3333333,0,0,-1.3333333,669.7708,692.92053)"
         clip-path="url(#clipPath11)" />
      <path
         id="path12"
         d="M 0,0 C 27.149,0 49.293,22.143 49.293,49.293 49.293,76.444 27.149,98.588 0,98.588 -27.15,98.588 -49.294,76.444 -49.294,49.293 -49.294,22.143 -27.15,0 0,0"
         style="fill:#769a2a;fill-opacity:1;fill-rule:evenodd;stroke:none"
         transform="matrix(1.3333333,0,0,-1.3333333,308.69147,671.37373)"
         clip-path="url(#clipPath13)" />
      <path
         id="path14"
         d="m 0,0 -12.478,1.635 4.295,30.886 5.523,-2.659 z"
         style="fill:#7e2b1a;fill-opacity:1;fill-rule:evenodd;stroke:none"
         transform="matrix(1.3333333,0,0,-1.3333333,247.82813,731.62373)"
         clip-path="url(#clipPath15)" />
      <path
         id="path16"
         d="M 0,0 C 20.443,0 37.117,16.675 37.117,37.118 37.117,57.562 20.443,74.236 0,74.236 -20.444,74.236 -37.118,57.562 -37.118,37.118 -37.118,16.675 -20.444,0 0,0"
         style="fill:#9ac421;fill-opacity:1;fill-rule:evenodd;stroke:none"
         transform="matrix(1.3333333,0,0,-1.3333333,239.5488,704.9024)"
         clip-path="url(#clipPath17)" />
      <path
         id="path18"
         d="M 0,0 -23.461,280.876 116,344.741 115.348,-7.819 Z"
         style="fill:#3b687e;fill-opacity:1;fill-rule:evenodd;stroke:none"
         transform="matrix(1.3333333,0,0,-1.3333333,321.75787,475.53)"
         clip-path="url(#clipPath19)" />
      <path
         id="path20"
         d="M 0,0 84.718,-59.303 66.472,-366.246 -0.652,-352.56 Z"
         style="fill:#2e5061;fill-opacity:1;fill-rule:evenodd;stroke:none"
         transform="matrix(1.3333333,0,0,-1.3333333,476.42453,15.8756)"
         clip-path="url(#clipPath21)" />
      <path
         id="path22"
         d="m 0,0 -29.454,352.626 175.086,80.18 -0.818,-442.624 z"
         style="fill:#6babbe;fill-opacity:1;fill-rule:evenodd;stroke:none"
         transform="matrix(1.3333333,0,0,-1.3333333,291.57027,665.8464)"
         clip-path="url(#clipPath23)" />
      <path
         id="path24"
         d="m 0,0 106.36,-74.453 -22.908,-385.352 -84.269,17.18 z"
         style="fill:#4e8398;fill-opacity:1;fill-rule:evenodd;stroke:none"
         transform="matrix(1.3333333,0,0,-1.3333333,485.74613,88.771467)"
         clip-path="url(#clipPath25)" />
      <path
         id="path26"
         d="m 0,0 13.646,-9.553 -22.999,-370.239 -12.646,-36.073 z m -51.91,36.336 27.265,-19.086 -18.604,-413.069 -13.169,2.685 z"
         style="fill:#6babbe;fill-opacity:1;fill-rule:evenodd;stroke:none"
         transform="matrix(1.3333333,0,0,-1.3333333,588.28773,160.55013)"
         clip-path="url(#clipPath27)" />
      <path
         id="path28"
         d="m 0,0 -6.619,74.904 170.363,39.368 V -12.542 Z"
         style="fill:#fbca07;fill-opacity:1;fill-rule:evenodd;stroke:none"
         transform="matrix(1.3333333,0,0,-1.3333333,253.48827,732.03)"
         clip-path="url(#clipPath29)" />
      <path
         id="path30"
         d="m 0,0 115.318,-49.82 -4.48,-63.097 L 0,-126.814 Z"
         style="fill:#f39c0f;fill-opacity:1;fill-rule:evenodd;stroke:none"
         transform="matrix(1.3333333,0,0,-1.3333333,471.81387,579.66667)"
         clip-path="url(#clipPath31)" />
      <path
         id="path32"
         d="M 0,0 99.436,-143.371 92.888,-253.53 -0.09,-49.089 Z"
         style="fill:#5c9bb1;fill-opacity:1;fill-rule:evenodd;stroke:none"
         transform="matrix(1.3333333,0,0,-1.3333333,485.62507,154.224)"
         clip-path="url(#clipPath33)" />
      <path
         id="path34"
         d="m 0,0 12.233,-17.64 -6.169,-99.314 -10.975,24.132 z m -23.143,33.368 -3.529,-78.342 -21.411,47.079 0.695,66.22 z"
         style="fill:#81c2d3;fill-opacity:1;fill-rule:evenodd;stroke:none"
         transform="matrix(1.3333333,0,0,-1.3333333,581.32427,292.20573)"
         clip-path="url(#clipPath35)" />
      <path
         id="path36"
         d="m 0,0 -168.757,-105.774 9.851,-117.94 158.816,174.625 z"
         style="fill:#81c2d3;fill-opacity:1;fill-rule:evenodd;stroke:none"
         transform="matrix(1.3333333,0,0,-1.3333333,485.62507,154.224)"
         clip-path="url(#clipPath37)" />
      <path
         id="path38"
         d="M 0,0 170.344,136.956 -4.742,56.776 Z"
         style="fill:#9fdbe8;fill-opacity:1;fill-rule:evenodd;stroke:none"
         transform="matrix(1.3333333,0,0,-1.3333333,258.62107,271.3796)"
         clip-path="url(#clipPath39)" />
      <path
         id="path40"
         d="M 0,0 -5.277,54.531 112.129,74.576 112.933,-8.65 Z"
         style="fill:#64ab9a;fill-opacity:1;fill-rule:evenodd;stroke:none"
         transform="matrix(1.3333333,0,0,-1.3333333,274.61133,733.6484)"
         clip-path="url(#clipPath41)" />
      <path
         id="path42"
         d="m 0,0 0.758,-78.355 -103.773,7.949 -5.029,51.959 z"
         style="fill:#9adcc7;fill-opacity:1;fill-rule:evenodd;stroke:none"
         transform="matrix(1.3333333,0,0,-1.3333333,424.1784,640.70827)"
         clip-path="url(#clipPath43)" />
      <path
         id="path44"
         d="M 0,0 -3.424,35.38 72.75,48.385 73.272,-5.613 Z"
         style="fill:#b4e5d7;fill-opacity:1;fill-rule:evenodd;stroke:none"
         transform="matrix(1.3333333,0,0,-1.3333333,313.0488,724.9088)"
         clip-path="url(#clipPath45)" />
      <path
         id="path46"
         d="m 0,0 4.25,-82.005 8.376,-0.64 -3.627,81.418 z"
         style="fill:#fbca07;fill-opacity:1;fill-rule:evenodd;stroke:none"
         transform="matrix(1.3333333,0,0,-1.3333333,327.02933,628.75787)"
         clip-path="url(#clipPath47)" />
      <path
         id="path48"
         d="m 0,0 2.95,-64.478 -3.107,-0.987 -2.93,65.774 z"
         style="fill:#64ab9a;fill-opacity:1;fill-rule:evenodd;stroke:none"
         transform="matrix(1.3333333,0,0,-1.3333333,344.07427,651.66533)"
         clip-path="url(#clipPath49)" />
      <path
         id="path50"
         d="M 0,0 12.477,-0.301 8.182,35.792 2.659,33.712 Z"
         style="fill:#7e2b1a;fill-opacity:1;fill-rule:evenodd;stroke:none"
         transform="matrix(1.3333333,0,0,-1.3333333,660.50133,725.3724)"
         clip-path="url(#clipPath51)" />
    </g>
  </g>
</svg>
