<?xml version="1.0" encoding="UTF-8" standalone="no"?>
<svg
   width="607.07483"
   height="601.48199"
   id="svg2"
   version="1.1"
   inkscape:version="1.3.2 (091e20e, 2023-11-25, custom)"
   sodipodi:docname="Flag_map_of_Algeria.svg"
   xmlns:inkscape="http://www.inkscape.org/namespaces/inkscape"
   xmlns:sodipodi="http://sodipodi.sourceforge.net/DTD/sodipodi-0.dtd"
   xmlns:xlink="http://www.w3.org/1999/xlink"
   xmlns="http://www.w3.org/2000/svg"
   xmlns:svg="http://www.w3.org/2000/svg"
   xmlns:rdf="http://www.w3.org/1999/02/22-rdf-syntax-ns#"
   xmlns:cc="http://creativecommons.org/ns#"
   xmlns:dc="http://purl.org/dc/elements/1.1/">
  <metadata
     id="metadata14">
    <rdf:RDF>
      <cc:Work
         rdf:about="">
        <dc:format>image/svg+xml</dc:format>
        <dc:type
           rdf:resource="http://purl.org/dc/dcmitype/StillImage" />
      </cc:Work>
    </rdf:RDF>
  </metadata>
  <defs
     id="defs12">
    <clipPath
       clipPathUnits="userSpaceOnUse"
       id="clipPath21">
      <path
         id="path21"
         fill="#fefee4"
         stroke="#0978ab"
         stroke-width="0.394936"
         stroke-linecap="round"
         d="m 551.99632,9.2096733 c 0.0407,-0.00944 -0.0314,-0.059632 0,0 m 0.024,0.053171 c 0.0387,-0.00646 -0.0299,-0.054662 0,0 m -32.97388,5.6271987 c 0.0407,-0.0075 -0.0279,-0.05715 0,0 M 423.2764,20.06007 c 0.0328,-0.0084 0,-0.09839 0,0 m -57.59858,16.252985 c 0.0981,-0.01292 -0.0235,-0.12125 0,0 z m -18.35598,7.630803 c 0.0647,0.147097 0.0677,-0.146093 0,0 m 0.0706,-0.02634 c 0.12163,0.05615 0,-0.136155 0,0 m 1.51691,-0.514318 c 0.10152,0.06808 -0.009,-0.108827 0,0 m -3.23784,0.597802 c 0.0584,0.04222 0,-0.102372 0,0 m 3.94995,-0.191314 c 0.0598,0.06112 0.053,-0.0641 0,0 z m -4.66746,0.675317 c 0.0584,0.03827 -0.006,-0.0964 0,0 m 3.26728,-1.163798 c 0.0539,0.06162 0.0667,-0.06112 0,0 m 1.61107,0.649479 c 0.0525,0.06261 0.0672,-0.05963 0,0 m -4.23147,0.0019 c 0.0481,0.06957 0.0701,-0.05864 0,0 m -0.40215,0.217658 c 0.0809,0.07802 0.10054,-0.07255 0,0 M 298.7605,69.954943 c 0.0682,0.07653 0.0569,-0.127705 0,0 m -0.54488,-0.216161 c 0.0834,0.07603 0.0986,-0.07156 0,0 m 64.79865,-31.267573 c 0.11035,0.01143 0.005,-0.142122 0,0 m 0.19078,-0.18933 c 0.12457,0.04671 -0.009,-0.1292 0,0 m 0.0456,-0.0815 c 0.0701,0.07653 0.0549,-0.125226 0,0 m 0.11917,-0.081 c 0.0986,0.0641 -0.007,-0.108828 0,0 m 0.049,-0.05516 c 0.0986,0.06808 -0.0113,-0.107336 0,0 m 1.41834,-1.304433 c 0.0471,0.06758 0.0687,-0.06659 0,0 m 0,-0.05466 c 0.0593,0.0641 0.0618,-0.06112 0,0 m 0.56891,-0.35083 c 0.0579,0.06311 0.0613,-0.06361 0,0 m 0.14321,0.02584 c 0.12211,0.05913 -0.004,-0.13566 0,0 m 0,-0.081 c 0.077,0.07951 0.10152,-0.07454 0,0 m 8.9671,-4.946906 c 0.0481,0.06708 0.0696,-0.05814 0,0 m 14.21475,-6.841192 c 0.0849,0.07752 0.0991,-0.07454 0,0 z m 0.0951,0.08199 c 0.12506,0.0492 -0.0113,-0.134171 0,0 m 0,-0.08199 c 0.0795,0.07653 0.0981,-0.07156 0,0 m 0.26092,-0.10833 c 0.12309,0.07504 0.0922,-0.136655 0,0 m 13.32363,-1.735269 c 0.0785,0.081 0.10298,-0.07354 0,0 M 444.8,13.711825 c 0.0888,0.139636 0.0893,-0.07007 0,0 z m 74.82903,0.704145 c 0.10741,0.03876 0,-0.112803 0,0 m -0.68857,0.487982 c 0.0574,0.06261 0.0643,-0.0651 0,0 z m 0.14469,-0.02783 c 0.0471,0.06808 0.0677,-0.06063 0,0 M 501.10538,13.4415 c 0.0584,0.04324 -0.005,-0.102367 0,0 m 18.59483,0.840304 c 0.10937,0.155537 0.13046,-0.08199 0,0 m -4.97448,3.870066 c 0.0961,0.139635 0.0809,-0.07553 0,0 M 552.4372,9.3025972 c 0.0456,0.063607 0.0706,-0.05516 0,0 m 0.9946,0 c 0.079,0.083483 0.0961,-0.079508 0,0 z m -2.1736,0.1451019 c 0.0461,0.071061 0.0667,-0.06311 0,0 m 2.97791,0.5595399 c 0.14665,0.09789 0.075,-0.134666 0,0 m -0.56645,-0.7031512 c 0.074,0.034291 -0.0265,-0.1634894 0,0 m -1.51642,0 c 0.0775,0.081496 0.10054,-0.074042 0,0 m -15.28292,0.1938013 c 0.0589,0.038262 -0.006,-0.1028639 0,0 m 16.37217,-0.1684579 c 0.11722,0.053668 -0.005,-0.1351647 0,0 m -21.84002,2.9507518 c 0.11966,0.05019 -0.005,-0.13268 0,0 M 562.6451,5.2685453 c 0.051,0.069569 0.0701,-0.061619 0,0 m 0.35606,-0.080005 c 0.0569,0.0646 0.0633,-0.06311 0,0 m 4.2653,0.054662 c 0.0574,0.062613 0.0569,-0.068576 0,0 z m 0.1643,0 c 0.0544,0.066589 0.0667,-0.063109 0,0 z m -0.0947,0.026838 c 0.14909,0.084478 0,-0.1356616 0,0 M 363.08931,38.39021 c 0.12408,0.05367 0.0225,-0.122741 0,0 M 546.988,8.6382069 c 0.0844,0.1013733 0.0947,-0.1123051 0,0 M 365.21877,36.489962 c 0.12359,0.04969 0.0211,-0.124232 0,0 m 19.86309,-10.244644 c 0.1025,0.172433 0.10152,-0.174422 0,0 M 549.59466,9.2752677 c 0.12212,0.1038576 0.12702,-0.1565324 0,0 M 536.25828,8.4096209 c 0.14321,0.058141 -0.0196,-0.1749189 0,0 m -19.56736,8.1456251 c 0.19226,0.07901 -0.005,-0.186348 0,0 m 33.80173,-7.4698047 c 0.12064,0.1257225 0.0495,-0.1510661 0,0 m -30.95867,5.2515217 c 0.28494,0.105846 0.0956,-0.145102 0,0 m -79.99331,1.435125 c 0.11133,0.153551 0.14076,-0.105348 0,0 z m -34.38093,6.815848 c 0.1236,0.05367 0.0206,-0.125226 0,0 m 112.73912,-7.601489 c 0.1486,0.08845 0.006,-0.135164 0,0 m 1.63512,-0.568981 c 0.12211,0.05168 0.0231,-0.123735 0,0 m -2.72486,1.733281 c 0.0868,0.143114 0.10594,-0.09988 0,0 m -14.83124,-1.707938 c 0.14615,0.08895 0.007,-0.136158 0,0 m -78.80546,5.657512 c 0.14468,0.09193 0.006,-0.135661 0,0 z m -17.89497,2.378788 c 0.12457,0.105846 0.12653,-0.157526 0,0 m 0.54488,-0.216163 c 0.12309,0.0492 0.0201,-0.124231 0,0 z m -0.30898,0.10833 c 0.10593,0.09839 0.0858,-0.146593 0,0 m -16.78217,2.249091 c 0.13879,0.0651 -0.0123,-0.1779 0,0 z m -22.28191,11.530194 c 0.12065,0.02286 -0.024,-0.16349 0,0 m -65.98011,34.229312 c 0.0961,0.150068 0.12458,-0.164979 0,0 m 44.53488,-25.892874 c 0.14861,0.09839 0.0157,-0.200751 0,0 M 324.7084,54.996508 c 0.14908,0.08399 0.005,-0.139632 0,0 m -6.81263,7.777405 c 0.14763,0.08646 0.008,-0.135163 0,0 m 18.41385,-15.039494 c 0.22953,0.06809 0.0167,-0.153052 0,0 m 13.90529,-3.627065 c 0.0824,0.147093 0.10643,-0.0979 0,0 m -33.50843,18.850419 c 0.12505,0.129201 0.0422,-0.154044 0,0 m 19.83953,-15.170182 c 0.12016,0.05417 0.0294,-0.124727 0,0 m -21.88662,16.077571 c 0.10937,0.150068 0.14468,-0.09988 0,0 m 30.82675,-19.863159 c 0.12359,0.01937 -0.0299,-0.1615 0,0 m 18.3756,-6.275688 c 0.10005,0.06162 0.006,-0.122243 0,0 m 0.78763,-0.857199 c 0.11918,0.07156 0.0608,-0.209703 0,0 z m 0.26043,-0.162991 c 0.10495,0.05764 0.005,-0.118766 0,0 m 0.18931,-0.109324 c 0.17067,0.08597 0.0142,-0.153551 0,0 m 0.23736,-0.134171 c 0.10251,0.06112 0.008,-0.12125 0,0 m 0.14125,-0.0815 c 0.0996,0.06559 0.0123,-0.119759 0,0 m 1.94162,-0.77123 c 0.103,0.06062 0.008,-0.124232 0,0 m 0.025,-0.109821 c 0.13242,0.08746 0.0574,-0.231071 0,0 m 6.83371,-4.008212 c 0.1182,0.06708 0.0633,-0.206721 0,0 m 14.26429,-6.845664 c 0.12604,0.168955 0.0633,-0.185354 0,0 m 0.0942,-0.02634 c 0.16577,0.08199 0.0166,-0.155538 0,0 m 0.28347,-0.135165 c 0.15645,0.08348 0.0274,-0.154046 0,0 m 0.0947,0 c 0.10152,0.05963 0.01,-0.119759 0,0 m 13.20691,-1.897266 c 0.21922,0.08249 0.0843,-0.218647 0,0 m 1.01764,0.05516 c 0.15547,0.08398 0.0265,-0.154048 0,0 m 8.1373,-1.539977 c 0.14272,0.08845 0.0461,-0.201752 0,0 m 14.26036,-1.678618 c 0.16086,0.155041 0.0598,-0.163986 0,0 m 3.14957,1.650791 c 0.2153,0.08895 0.0912,-0.220635 0,0 m 10.80034,-5.358858 c 0.15841,0.08696 0.027,-0.153551 0,0 z m 5.16428,-1.946463 c 0.13879,0.1456 0.0937,-0.06212 0,0 z m 56.2592,-0.13566 c 0.15988,0.05019 -0.008,-0.185355 0,0 m 16.69882,1.594638 c 0.17852,0.09988 -0.0186,-0.213182 0,0 m -3.86119,3.492401 c 0.18342,0.08348 0.0427,-0.143612 0,0 m 3.90876,-3.6544 c 0.18783,0.151066 0.0211,-0.217157 0,0 M 501.8823,14.2818 c 0.17116,0.07404 -0.01,-0.19728 0,0 m 52.8762,-4.3023923 c 0.20206,0.098391 -0.005,-0.2499541 0,0 m -2.8181,-0.8383119 c 0.0951,0.067582 0.0118,-0.1202562 0,0 m 2.86512,1.3799662 c 0.16136,0.08448 0.0191,-0.157527 0,0 m -0.0726,0.26983 c 0.12408,0.167465 0.0706,-0.183365 0,0 m -0.9691,-1.4599707 c 0.18244,0.1769063 0,-0.1744206 0,0 m 0.87591,0.7851457 c 0.10201,0.05764 0.005,-0.1242324 0,0 m 42.56627,0.204236 c 0.15254,0.169949 0.0229,-0.16001 0,0 M 327.04728,49.114885 c 0.30848,0.117279 0.0211,-0.226103 0,0 m -0.0226,0.0815 c 0.17999,0.08497 0.0442,-0.146107 0,0 m -0.0942,-0.08101 c 0.19323,0.09889 0.024,-0.204238 0,0 z m -1.35164,4.842549 c 0.18686,0.100877 -0.004,-0.306597 0,0 m -28.30737,15.591578 c 0.10004,0.06261 0.0113,-0.12125 0,0 m 27.5551,-14.824312 c 0.17018,0.07554 -0.008,-0.195797 0,0 m -12.37121,11.007922 c 0.18391,0.08051 0.0397,-0.143119 0,0 m -0.11722,0.215657 c 0.0986,0.06361 0.007,-0.122732 0,0 m -8.52718,4.08673 c 0.15204,0.08747 0.0225,-0.157023 0,0 m 45.55106,-26.469301 c 0.10103,0.06261 0.008,-0.121249 0,0 M 501.78806,14.171984 c 0.12555,0.04423 0.005,-0.181875 0,0 m 16.53942,0.677808 c 0.24032,0.192311 0.0971,-0.222126 0,0 m -64.10173,-0.216163 c 0.19617,0.110317 0.12604,-0.319027 0,0 m -103.4184,29.960212 c 0.22218,0.234554 0.0844,-0.394058 4.7e-4,-0.02386 l -4.7e-4,0.02386 m -0.14369,-0.190326 c 0.2202,0.186353 0.0113,-0.231062 0,0 M 569.20615,5.2451912 c 0.1285,0.4005228 0.22511,-0.1207531 0,0 m -51.85167,9.9842538 c 0.28642,0.176408 0.01,-0.259893 0,0 M 333.20713,47.814429 c 0.34723,0.210693 0.0937,-0.222631 0,0 M 593.22667,8.950277 c 0.25261,0.3279723 0.0701,-0.5555637 0,-0.1296979 4.7e-4,0.043729 0,0.086465 0,0.1296979 M 316.81535,62.457369 c 0.29916,0.380151 0.0574,-0.501901 -4.7e-4,-0.05019 l 4.7e-4,0.05019 M 514.63159,18.395364 c 0.2869,0.02882 0.21432,-0.314057 0.0221,-0.135163 -0.05,0.02982 -0.0103,0.09193 -0.0221,0.135163 m 80.1346,-9.5797539 c 0.11279,0.2305743 0.45701,0.151066 0.47422,-0.081496 -0.0937,-0.085968 -0.50808,-0.1505687 -0.47422,0.081496 M 326.6211,49.411549 c 0.13977,0.232558 0.47178,-0.137647 0.26384,-0.229579 -0.20058,0.05268 -0.10544,0.11479 -0.26384,0.229579 M 604.05843,9.8194023 c -0.5179,-0.014416 -0.87007,0.4949397 -1.40073,0.4864917 -0.96906,0.07255 -1.76113,0.71458 -2.70077,0.87956 -0.70425,0.04721 -1.57338,0.199267 -2.06672,-0.449222 -0.41048,-0.342879 -0.99511,-0.0333 -1.43702,-0.343874 -0.6738,-0.14858 -1.4011,0.391579 -2.03426,0 -0.16185,-0.387602 -0.56499,-0.4159269 -0.86464,-0.6181758 -0.20403,-0.3761744 -0.70621,-0.5341965 -1.03584,-0.2166604 -0.87245,0.6544522 -1.91558,0.9873932 -2.86758,1.5007192 -0.58065,0.260389 -1.16177,0.519786 -1.68803,0.878566 -0.52959,0.315051 -1.18534,0.0075 -1.72676,0.328469 -0.56844,0.245482 -1.02896,0.799059 -1.70477,0.701164 -0.79207,-0.08348 -1.60326,-0.02236 -2.37424,-0.256414 -0.77873,-0.211691 -1.69687,-0.316543 -2.26578,-0.940683 -0.2506,-0.358781 0.0618,-0.662404 0.3639,-0.815954 0.40464,-0.390087 -0.53164,-0.480031 -0.3806,-0.921799 0.2521,-0.5073623 0.57088,-1.0216813 0.796,-1.5499146 -0.11181,-0.4541913 -0.58557,0.1113114 -0.71066,0.3384068 -0.35801,0.5317118 -1.10397,-0.1833664 -1.41882,0.366235 -0.39234,0.3458616 -0.57967,-0.2479662 -0.83766,-0.424872 -0.35263,-0.1118083 -0.67829,-0.2698317 -1.00441,-0.4457429 -0.40805,0.1187647 -0.77785,0.5441346 -1.24819,0.4035044 -0.74937,-0.1987708 -1.37716,-0.6927163 -1.9774,-1.158834 -0.463,-0.5307181 -0.95882,-1.1250422 -1.66162,-1.3173525 -0.41052,0.114293 -0.76557,0.4248721 -1.21529,0.3100817 -0.35508,-0.087458 -0.71114,0.027831 -1.06081,-0.028823 -0.10103,-0.3418857 -0.72487,-0.3622597 -0.48308,-0.7717273 0.36341,-0.3165423 -0.17656,-0.7990582 -0.50025,-0.4805285 -0.14369,0.3861126 -0.46198,0.3791552 -0.83079,0.4159282 -0.55714,0.2902047 -1.06327,-0.3816399 -1.59833,-0.2380281 -0.22756,0.4228851 -0.63315,0.2817571 -0.92545,0.015404 -0.29033,-0.1396374 -0.61844,-0.4517066 -0.93084,-0.2628747 -0.34527,-0.083483 -0.70721,0.032305 -1.05885,0.1366548 -0.19078,0.2772859 0.38254,0.4914607 0.48552,0.7816668 0.36538,0.4353075 0.94115,0.6221514 1.34772,0.969504 0.20157,0.3821367 0.3747,0.8860208 0.0667,1.2527521 -0.36341,0.5694785 -0.80382,1.1076499 -1.4355,1.3789721 -0.48357,0.2424999 -0.69739,0.8706157 -1.28641,0.9108657 -0.42227,0.192809 -0.93526,0.345862 -1.34722,0.03429 -0.71358,-0.242501 -1.49436,0.01739 -2.10152,0.428847 -0.59587,0.139636 -1.15448,0.444252 -1.77439,0.47705 -0.60078,0.191317 -1.27463,0.174421 -1.88032,0.01739 -0.28592,-0.165973 -0.66307,-0.280764 -0.86954,-0.511834 -0.0192,-0.28474 0.128,-0.809991 -0.31192,-0.820427 -0.43158,0.06261 -0.82932,-0.2951739 -0.77734,-0.7404203 -0.29523,-0.033298 -0.71162,0.047706 -1.05197,-0.091932 -0.30751,0.040746 -0.60079,0.5530794 -0.93429,0.2087089 -0.25159,-0.4333205 -0.57331,-0.1287037 -0.91367,-0.043235 -0.38794,-0.1709427 -0.7749,0.1674646 -1.15106,-0.085968 -0.40215,-0.2743033 -0.93574,0.054662 -1.30896,-0.3145553 -0.41589,0.070068 -0.62579,-0.2618796 -0.90682,-0.411951 -0.37371,-0.00547 -0.82294,0.1063414 -1.03236,-0.3135611 -0.1182,-0.3016343 -0.4463,-0.6807899 -0.0873,-0.9516148 0.14859,-0.5620243 -0.65621,-0.507362 -0.88819,-0.8641563 -0.27072,-0.2817567 0.25846,-0.7096113 -0.3791,-0.6698571 -0.45365,-0.2305739 -0.77832,-0.705636 -1.30358,-0.8179411 -0.39725,-0.2633716 -0.85238,-0.1888319 -1.28739,-0.1460966 -0.35655,-0.02783 -0.69053,0.1287038 -1.05295,0.058637 -0.334,0.1863475 -0.69299,0.1088276 -1.05248,0.1788938 -0.6003,0.2261012 -1.01912,0.7538381 -1.40755,1.2408262 -0.4154,-0.050189 -0.44924,0.5436377 -0.88229,0.5247553 -0.4615,0.044722 -0.67484,0.4790369 -0.67729,0.9044063 -0.17509,0.2643649 -0.69886,0.5968089 -0.22756,0.8750876 0.14811,0.2673465 0.36684,0.6976854 0.13879,0.974474 -0.26876,0.4755595 -0.59293,0.9695045 -1.15742,1.0877725 -0.38254,0.219642 -0.82835,0.251445 -1.22658,0.399033 -0.35605,0.255917 -0.84355,0.110814 -1.17949,0.42686 -0.59932,0.192808 -1.18196,0.419406 -1.73418,0.71458 -0.67778,0.005 -1.13438,0.660913 -1.81363,0.716569 -0.46002,0.118765 -0.92397,0.166471 -1.38841,0.236039 -0.74841,0.06162 -1.50171,0.162496 -2.20745,0.442763 -0.61893,0.186347 -1.27366,0.05913 -1.88572,0.199764 -0.32271,-0.08696 -0.67582,-0.20374 -0.94262,-0.404995 -0.27366,-0.452203 -0.84502,-0.244985 -1.26826,-0.217654 -0.37174,0.383131 -1.07308,0.08398 -1.35605,0.630102 -0.22217,0.26536 -0.44924,0.550596 -0.81216,0.637061 -0.23885,0.368223 -0.64297,0.584386 -1.07552,0.485994 -0.40854,0.143612 -0.87494,0.12622 -1.17656,0.490468 -0.43746,0.527238 -0.77144,1.15287 -1.13339,1.738746 -0.19421,0.322506 -0.42177,0.683771 -0.84109,0.651968 -0.37127,0.287721 -0.8671,0.27977 -1.1692,0.667373 -0.34772,0.430835 -1.01422,-0.169949 -1.28347,0.366731 -0.20549,0.279274 -0.65964,0.09889 -0.95635,0.249458 -0.61205,0.115784 -1.26629,0.02286 -1.8406,0.302629 -0.60862,0.01441 -1.21774,-0.007 -1.82147,-0.10038 -0.73076,0.04621 -1.30457,-0.497423 -2.01129,-0.556557 -0.58607,-0.214176 -1.2099,-0.411455 -1.6508,-0.886021 -0.60666,-0.326978 -1.47768,-0.515313 -1.67925,-1.276108 0.0525,-0.569478 0.74154,-0.937702 0.69544,-1.543454 -0.53457,-0.287225 -1.2104,-0.150569 -1.7381,-0.488977 -0.41049,-0.143115 -0.5792,-0.652464 -1.0608,-0.670851 -0.45954,-0.08647 -0.92448,-0.173924 -1.24963,-0.545625 -0.46935,-0.124232 -0.71849,-0.723526 -1.26337,-0.647993 -0.79793,0.04423 -1.36389,-0.655943 -2.12848,-0.740918 -0.38254,-0.14063 -0.86954,-0.134667 -1.09073,-0.554571 -0.44433,-0.393068 -1.07061,-0.205726 -1.5841,-0.09541 -0.81657,0.241011 -1.69396,0.115785 -2.52329,-0.008 -0.35948,-0.106839 -0.67042,0.260389 -1.051,0.09541 -0.58263,-0.04025 -1.16232,-0.02087 -1.73564,0.09988 -0.60667,0.0094 -1.21088,-0.06808 -1.80333,-0.187838 -0.3845,-0.29766 -0.84649,-0.414437 -1.32565,-0.409469 -0.35065,-0.208708 -0.82098,-0.329958 -1.11377,0.03678 -0.63707,0.378658 -1.39823,0.135661 -2.09514,0.205231 -0.44041,-0.008 -0.86365,-0.112305 -1.25012,-0.310082 -0.6866,-0.08249 -1.42814,-0.0482 -2.01519,0.365241 -0.42128,0.222126 -0.91417,0.200262 -1.30652,-0.06013 -0.35556,-0.13119 -0.7224,-0.156035 -1.04119,0.06758 -0.769,0.468602 -1.69151,0.254923 -2.52426,0.130195 -0.75331,-0.12622 -1.55615,-0.283248 -2.29328,-0.01143 -0.42814,0.06758 -0.9946,0.08994 -1.31436,-0.23604 -0.25895,-0.337413 -0.65081,-0.854714 -1.13388,-0.571465 -0.65915,0.319523 -1.41981,0.156531 -2.09858,0.403504 -0.38401,0.109324 -0.743,0.324493 -1.16575,0.282255 -0.60275,0.08746 -1.20402,0.362259 -1.65228,0.756819 -0.25503,0.531215 -0.69887,0.916829 -1.20009,1.1966 -0.50858,0.343873 -1.05051,0.69371 -1.64296,0.844278 -0.52575,0.01143 -1.0765,0.07454 -1.53555,0.339898 -0.0794,0.529724 -0.67631,0.289212 -1.00882,0.431333 -0.55615,0.428847 -1.28788,0.610723 -1.98479,0.492951 -0.64836,-0.02385 -1.28641,-0.153054 -1.93428,-0.08597 -0.45609,-0.04671 -0.85433,-0.347353 -1.33349,-0.300641 -0.90926,0.01838 -1.81165,-0.340395 -2.46884,-0.975964 -0.32614,-0.157526 -0.83178,-0.02087 -0.82589,0.400523 0.51741,0.556061 -0.0363,1.348162 -0.60667,1.586687 -0.41638,0.374186 -0.98627,0.175912 -1.47621,0.315549 -0.846,0.134666 -1.97841,-0.193305 -2.17017,-1.159331 -0.27856,-0.461645 -0.75772,-0.824898 -1.24423,-1.045037 -0.60962,-0.155041 -1.2256,-0.0328 -1.80774,0.168459 -0.66552,-0.02385 -1.36047,-0.005 -1.95978,0.314554 -0.12212,0.733961 -0.83129,1.083797 -1.4355,1.350647 -0.23051,0.293684 0.007,0.752844 -0.282,1.055472 -0.40707,0.565007 -1.08827,0.822415 -1.55075,1.338225 -0.47327,0.176906 -0.98235,0.244984 -1.38057,0.591839 -0.4002,0.360272 -0.99509,0.325487 -1.33791,0.760298 -0.90927,0.57246 -1.79793,1.299464 -2.88916,1.43264 -0.55811,0.152557 -1.14662,0.132182 -1.72142,0.181378 -0.38498,0.0094 -0.76851,0.0979 -1.15202,-0.03231 -0.71996,0.0055 -1.44041,-0.146096 -2.1535,-0.244488 -0.40118,-0.129697 0.05,-0.705139 -0.37225,-0.864652 -0.68316,-0.443756 -1.58213,-0.601282 -2.33691,-0.2425 -0.44777,0.187838 -0.9485,0.15355 -1.36684,0.418412 -0.48014,0.244487 -1.08828,-0.05665 -1.52918,0.309088 -0.48259,0.132182 -1.00146,0.161004 -1.39774,0.509847 -0.7381,0.322009 -1.55467,0.396051 -2.33398,0.565503 -0.55418,0.0055 -1.04608,0.316542 -1.61009,0.263868 -0.74889,-0.08994 -1.46198,0.311573 -2.20156,0.05665 -0.58803,-0.195292 -1.2094,-0.32996 -1.81755,-0.142618 -0.36439,0.07851 -0.73908,0.0089 -1.09318,0.02832 -0.49975,0.329463 -1.11329,0.446241 -1.69837,0.473075 -0.56008,-0.172434 -1.14075,-0.107337 -1.6616,0.155538 -0.57527,-0.04571 -1.15497,-0.06708 -1.73319,-0.01491 -0.57381,-0.04124 -1.04414,0.461148 -1.63462,0.323003 -0.49239,-0.09591 -0.91319,0.329959 -1.39921,0.143114 -0.39578,-0.0482 -0.85972,-0.342382 -1.15939,0.07653 -0.42569,0.507362 -1.11671,0.08994 -1.66845,0.142618 -0.49289,-0.0094 -0.97891,-0.311076 -1.45071,-0.108827 -0.52182,-0.136158 -1.0255,-0.719053 -1.6047,-0.383628 -0.52329,0.166471 -0.83079,0.707625 -1.39872,0.794089 -0.64934,0.211691 -1.31093,0.470094 -2.00686,0.353812 -0.58312,-0.03727 -1.22461,-0.415928 -1.74594,0.03628 -0.5439,0.605754 -1.40559,0.675324 -2.1584,0.546619 -0.37862,0.03478 -0.71702,0.252936 -1.10789,0.191814 -0.61697,0.170943 -1.15694,0.552085 -1.7842,0.679299 -0.50908,0.31207 -1.20745,0.236537 -1.57332,0.781168 -0.32907,0.416425 -0.26581,1.156349 -0.88622,1.292507 -0.48258,0.284739 -0.88277,0.730979 -1.45953,0.847757 -0.31779,0.287721 -0.73319,0.212686 -1.1123,0.243992 -0.44678,0.224611 -0.90092,0.446737 -1.23443,0.838812 -0.55811,0.28623 -1.21529,0.131189 -1.78469,0.400026 -0.55811,-0.02336 -1.18586,-0.171439 -1.70916,0.104851 -0.2614,0.414438 -0.88082,0.387604 -1.09808,0.856703 -0.39431,0.393566 -1.01127,0.3881 -1.4615,0.706133 -0.49926,0.14063 -0.93869,0.429841 -1.39676,0.657434 -0.57773,0.226599 -0.94947,0.75682 -1.44923,1.092246 -0.41148,0.119262 -0.84551,0.124232 -1.256,0.257407 -0.35311,-0.03429 -0.69887,-0.01838 -1.03187,0.118766 -0.35851,0.198274 -1.07945,0.115784 -1.05101,0.69371 -0.0603,0.532706 -0.43452,0.914345 -0.79499,1.276605 -0.31682,0.211194 -0.50808,0.627122 -0.95046,0.610226 -0.72046,0.31207 -1.68219,0.266353 -2.15154,1.000314 -0.52623,0.677808 -1.24669,1.174238 -1.98185,1.590165 -0.34967,0.404499 -0.32858,1.009258 -0.41539,1.50867 -0.18833,0.311077 -0.46787,0.54811 -0.4463,0.950124 -0.28592,0.650477 -0.53359,1.335739 -1.04756,1.836144 -0.27023,0.509847 -0.22952,1.180202 -0.69544,1.584202 -0.62481,0.942175 -1.71995,1.380458 -2.60175,2.038892 -0.54684,0.225599 -1.05689,0.53668 -1.60666,0.748367 -0.62139,0.01143 -1.22364,-0.250452 -1.81069,-0.426859 -0.59833,0.08199 -1.07111,-0.360762 -1.66061,-0.340389 -0.42079,-0.01891 -0.64002,-0.502395 -1.09269,-0.447736 -0.49191,-0.06659 -1.10495,-0.485 -0.96714,-1.048017 0.37519,-0.30064 0.077,-0.725023 -0.31534,-0.786634 -0.38941,-0.116776 -0.51791,-0.540162 -0.80236,-0.756323 -0.53457,-0.151065 -1.2045,-0.200758 -1.5429,0.342876 -0.41442,0.372701 -1.08043,0.437788 -1.5998,0.299651 -0.21432,-0.169456 -0.95586,-0.26934 -0.71015,0.186343 0.25502,0.643521 -0.26042,1.258223 -0.47866,1.842109 -0.37567,0.609727 -0.56498,1.451522 -1.28102,1.749679 -0.31682,-0.05217 -0.7175,-0.444259 -0.95879,-0.0095 -0.30359,0.379155 -0.51104,0.84627 -0.93674,1.122063 -0.1589,0.349334 -0.47719,0.440772 -0.8249,0.466119 -0.40658,0.27927 -0.88475,-0.144606 -1.3384,-0.0646 -0.39382,0.03228 -0.79794,-0.242994 -0.62236,-0.682279 -0.22265,-0.329464 -0.6258,-0.23157 -0.95341,-0.133173 -0.3536,-0.02531 -0.64786,-0.274315 -1.02305,-0.243003 -0.4355,-0.04376 -0.42177,-0.534695 -0.72192,-0.712594 -0.36537,0.02682 -0.78862,0.04225 -0.96321,0.428845 -0.33447,0.324989 -0.24031,0.998827 -0.78911,1.124057 -0.40607,0.201246 -0.9583,0.773709 -1.35605,0.260878 -0.39185,-0.468597 -1.02746,-0.118267 -1.34183,0.261386 -0.32711,0.404501 -0.79793,0.602773 -1.25649,0.803529 -0.35899,0.206229 -0.897,-0.06162 -1.16184,0.377668 -0.47964,0.380147 -0.50123,1.25971 -1.21677,1.324311 -0.51839,0.1451 -0.89602,0.587857 -1.30406,0.916333 -0.25944,0.303619 -0.45071,0.756323 -0.80774,0.921302 -0.31437,-0.07902 -0.70574,-0.276791 -0.93478,0.107831 -0.3075,0.350829 -0.0471,0.903413 -0.38597,1.266175 -0.39038,0.547111 -0.61892,1.170257 -0.83128,1.801857 -0.31682,0.578913 -0.34282,1.275604 -0.60029,1.886328 -0.20648,0.858692 -0.76901,1.598617 -1.48406,2.086605 -0.77488,0.0084 -0.98038,0.957074 -1.6047,1.257719 -0.6464,0.350327 -1.4252,0.536177 -2.13927,0.257401 -0.49584,-0.01741 -1.02796,-0.04023 -1.40902,0.342384 -0.48798,0.359276 -1.06916,0.566003 -1.55076,0.953104 -0.38009,0.128209 -0.63216,0.441764 -0.86758,0.752846 -0.41245,0.15802 -0.91858,0.363749 -0.99214,0.866643 -0.3541,0.111312 -0.67828,0.277778 -0.77097,0.698172 -0.23786,0.641533 -1.03432,0.375188 -1.51642,0.661417 -0.99019,0.156533 -1.18244,1.515624 -2.18194,1.63191 -0.26386,0.198272 -0.62187,0.456671 -0.91025,0.124732 -0.37175,-0.315556 -0.54193,0.17342 -0.74595,0.397038 -0.6258,0.382133 -1.42521,0.270825 -2.02452,0.713587 -0.53064,0.107337 -1.09611,0.08349 -1.55663,0.415919 -0.47181,0.184863 -0.97842,0.06063 -1.38695,-0.216156 -0.2874,-0.01788 -0.56155,0.437794 -0.94556,0.310084 -0.48111,-0.155037 -0.97008,0.115284 -1.44923,-0.08547 -0.49877,-0.10137 -0.87543,-0.530215 -1.41246,-0.526249 -0.39234,-0.1928 -0.83324,-0.331444 -1.22559,-0.05664 -0.27317,0.479537 -0.60373,-0.271319 -0.7896,0.108325 -0.0486,0.04717 -0.10839,0.07902 -0.16086,0.120262 l -0.0647,0.0462 c 0.0481,0.886018 -0.32468,1.369526 0.72534,1.706942 0.17999,0.669857 0.6974,0.705635 1.1182,0.97597 0.20254,0.06111 0.384,0.132669 0.49582,0.126708 0.28887,0.09442 0.20403,0.258902 0.25846,0.455692 0.38646,0.299638 0.6925,0.73395 1.13388,1.061423 0.50074,0.207226 0.89456,0.94566 1.48014,0.803539 0.47425,-0.274306 1.01863,0.0095 1.53457,-0.292195 0.2148,0.407977 0.0132,1.073854 0.0981,1.568297 -0.0348,0.366239 0.22756,0.284244 0.41442,0.424375 0.41834,0.322505 0.90583,0.505871 1.3997,0.781669 0.66209,0.139638 0.51348,0.890498 0.61795,1.38295 0.68661,-0.06608 1.1025,0.436801 1.63854,0.712594 0.24865,0.339401 0.99411,-0.27679 0.52673,0.201754 0.39872,0.384118 1.24815,0.592337 1.75673,0.973975 0.63316,0.178393 -0.0848,0.281265 -0.31486,0.528235 -0.61892,0.226103 -0.10446,0.973477 -0.64933,1.278102 -0.64296,0.735936 -1.07798,1.508666 -1.71505,2.25803 -0.56841,0.470094 0.13193,0.0104 0.24718,0.30263 0.54536,0.07056 0.66699,0.686749 1.0456,1.025157 0.28544,0.371702 0.20844,0.71458 0.58264,1.033104 0.53457,0.02089 0.19618,0.743413 0.61059,0.705146 0.12506,0.196785 0.19961,0.529228 0.53261,0.660415 0.49534,0.0358 0.96076,0.385619 1.43893,0.511837 -0.81264,0.915835 -1.58065,1.908696 -2.37467,2.854347 -0.4924,0.315546 -0.26043,0.653455 -0.005,1.0346 0.79843,0.501402 1.34771,1.382447 1.83422,2.095539 -0.20255,0.626134 -0.0196,1.273129 -0.26925,1.913171 0.38205,1.626937 1.29966,3.096351 1.87592,4.667141 -0.40903,2.1015 -0.71702,4.23282 -1.18686,6.32637 -0.61305,1.53004 0.30849,3.00443 0.5434,4.51856 -0.74006,0.647 -1.92249,1.00131 -1.86218,2.17803 -0.36439,-0.49642 1.18293,1.33574 2.00196,0.7434 1.05934,-0.0283 0.41736,1.83615 1.47817,2.01852 0.9946,0.16299 0.0328,1.35561 0.51986,1.63389 -0.64346,0.5188 0.50024,1.13399 -0.0623,1.66669 -0.2874,0.60775 -0.87395,1.03162 -0.68415,1.63837 0.0888,0.82341 -0.63659,1.23437 -0.79303,1.94447 -0.5439,0.75285 -0.38745,1.65229 -0.3541,2.47421 0.18931,0.69818 -0.33938,1.28406 -0.1334,1.93354 0.51938,0.58687 0.75232,1.50867 1.49877,1.8431 0.436,0.59035 0.92398,1.31487 1.077,2.09952 0.58213,0.62065 1.15448,1.35064 1.76751,1.88484 0.7852,0.1128 1.36636,0.66986 1.44581,1.51314 -0.19961,0.57842 -0.3742,1.15089 -0.3791,1.79092 -0.16038,1.02119 -1.14419,0.63706 -1.81167,1.10616 1.07061,1.84559 2.6096,4.04052 3.83127,6.03568 0.47817,1.33127 1.91515,1.52407 3.0201,2.12039 2.32073,1.1797 4.23244,3.07249 6.38447,4.54588 0.6665,0.61072 1.64198,1.04554 2.17606,1.70943 -0.30162,0.59979 -1.30504,0.83732 -1.58165,1.55935 -0.41883,0.65893 -1.23443,1.02019 -1.78322,1.41823 -0.3796,0.56551 -1.33349,-0.12721 -1.90534,0.41296 -0.95243,0.16249 -0.59391,1.18068 -1.03334,1.82768 0.0383,0.55906 -1.23737,0.67633 -0.68612,1.18169 0.55664,0.66092 -0.13487,1.68559 -0.11379,2.47669 0.34381,0.78415 0.10937,1.36307 -0.64688,1.67663 -0.54438,0.27034 -1.28984,1.1986 -0.17165,0.84826 0.72389,0.19032 1.28789,-0.62563 2.01961,-0.28077 0.97498,-0.12523 0.60471,1.22791 1.31584,1.35115 0.3536,0.60078 -0.30456,0.73942 -0.84796,0.94167 -0.38744,0.64104 -1.16233,0.72303 -1.86905,0.80552 -0.74448,-0.72303 -1.92348,0.22362 -2.74741,-0.44475 -0.89947,0.11281 -1.86316,0.1933 -2.7739,-0.0949 -0.83815,0.14262 -1.46542,-0.59681 -2.27659,-0.19877 -1.19029,0.46264 -2.34085,-0.01 -3.49435,-0.34387 -0.71064,-0.23903 -1.50662,0.005 -2.12015,-0.37021 -0.80725,0.10982 -1.41784,-0.50587 -2.16037,-0.54364 -0.87885,-0.58985 -2.06473,0.0566 -2.77733,-0.78962 -0.70916,-0.15752 -0.67483,0.62762 -1.35556,0.14013 -0.81362,0.24002 -1.06032,-0.75134 -1.87787,-0.78166 -1.89062,0.46959 -3.89454,1.97627 -5.83224,0.89596 -0.73713,-0.20027 -1.55223,-0.68427 -2.1795,-0.0974 -1.50416,0.074 -3.02842,-0.0626 -4.54338,-0.0934 -0.99755,0.46909 -2.27169,0.14012 -3.16085,0.87956 -0.79646,1.13746 -2.1069,0.34884 -3.21136,0.54413 -1.81854,0.40301 -3.64786,-0.11578 -5.47521,0.17194 -0.8818,-0.0442 -1.19961,-0.54811 -1.59244,0.43133 0.10102,0.88056 -0.75086,2.03442 0.10642,2.75795 -0.0142,0.79905 0.99559,1.32331 0.9539,2.01752 0.0647,0.90838 0.97547,1.64085 1.14369,2.53085 -0.13536,0.93571 0.21922,1.43661 0.56154,2.17107 -0.39529,0.82142 -1.83765,0.57941 -2.66403,0.90689 -0.64346,0.28027 -1.86562,0.10237 -2.12456,0.63954 -6.29522,1.33078 -12.60907,2.62229 -18.87486,4.06436 -0.006,2.51296 -0.0137,5.02543 -0.006,7.53839 1.03973,0.43432 -0.20647,0.56252 -0.24767,0.79359 -0.83864,0.21468 -1.01128,1.03162 -1.76016,1.0838 -0.30211,-1.23238 -0.90781,0.34338 -0.71898,0.81844 -0.64297,0.65743 -0.86709,1.12056 0,1.25573 -0.48357,-0.33492 -0.73467,1.052 -0.84993,1.41475 0.53997,0.48947 0.57872,0.9223 0.7896,1.75962 0.0333,0.62165 -0.64197,1.33872 -0.41098,2.14176 -0.15841,1.13845 0.5076,-1.22145 1.15791,-0.0566 0.59736,-0.17493 -0.14761,-1.43414 0.82394,-1.01374 0.21579,1.15884 -0.37078,-1.37102 0.21088,-0.67433 -0.19274,-0.0656 1.01127,0.13119 0.80676,1.36904 0,0.72253 -0.5586,1.70744 0.66013,1.49028 0.13389,0.0621 -0.85826,-0.75135 -0.075,-0.52426 0.61942,0.49842 0.23983,-1.02516 -0.009,-1.18069 0.60667,-0.24947 0.11623,-1.85354 0.43452,-0.35929 -0.23394,0.892 0.0706,1.37301 0.60029,0.96753 -0.0795,0.66488 0.40853,1.12951 0.63707,1.6001 0.12066,0.78216 1.04807,0.83831 0.89456,0.18337 0.68808,-0.5506 -0.10299,1.33574 0.5488,0.71557 0.1996,0.7593 -0.0132,1.4068 0.11427,2.10547 0.19322,-0.48549 -0.48112,0.81695 -0.5336,1.35264 -0.8921,-0.18237 -0.52084,0.70613 -1.16527,1.26915 0.27955,-0.24796 -0.67974,1.24729 -1.03972,0.68676 -0.38843,0.56649 -0.57577,1.41624 -0.64835,2.20188 -0.41394,0.89645 0.0696,1.16629 0.82147,1.24132 0.53311,0.94863 0.0809,1.16529 -0.2869,1.93504 -1.63756,1.10168 -3.7121,1.55736 -5.52033,2.41108 -2.2967,0.63806 -4.53063,1.47687 -6.9112,1.40083 -2.42422,-0.11976 -4.55516,1.18915 -6.81213,1.8948 -2.77685,2.48662 -5.3889,5.25548 -8.10787,7.84497 -2.36437,1.39338 -4.95241,2.50501 -7.40752,3.7816 -1.91809,0.70813 -3.43942,2.0558 -4.96319,3.38508 -0.99951,0.66538 -1.75821,1.89379 -2.92692,2.184 -0.99116,0.92527 -2.38007,1.50021 -3.14368,2.62526 -0.79696,0.42537 -1.36537,1.12455 -1.81804,1.93354 -0.86415,0.72353 -0.029,1.69005 -0.33988,2.52737 -1.98184,2.96269 -4.14417,5.83045 -6.10247,8.72952 -0.71996,-0.0934 0.10643,1.05746 -0.72535,1.22343 -0.28347,-0.86167 -1.38351,-0.0169 -1.82442,-0.808 -0.69789,0.0378 -1.02844,-0.49146 -1.3948,-0.97 -0.51249,-0.67583 -0.83912,0.75234 -1.58164,0.45866 -0.91221,0.16199 -0.27759,-1.17026 0.0436,-1.51513 0.81362,-0.71906 -0.33301,-1.28654 -0.96763,-1.39388 -0.89946,-0.41841 -1.79695,-0.0214 -2.74742,-0.0373 -0.4561,0.62463 -1.21823,0.28524 -1.87002,0.41444 -0.98675,0.12672 -1.97645,0.6952 -2.88425,0.67184 -0.56351,0.36772 -1.24472,0.50637 -1.89553,0.2102 -0.78567,0.0885 -1.5478,-0.67433 -2.30749,-0.32697 -0.74742,0.0442 -1.17459,-0.005 -1.76311,0.35679 -1.01177,0.005 -1.98577,-0.15306 -3.00342,0.0104 -0.74546,-0.58389 -1.25502,0.89546 -1.48063,0.22859 -1.02402,-0.39705 -2.12848,-0.0894 -2.9632,0.58438 -0.52084,0.58489 -0.92741,0.728 -1.69151,0.61868 -0.54193,0.19927 -1.55664,-0.58389 -1.76066,0.0487 -1.06522,0.16001 -2.49484,-0.1148 -3.13681,1.00627 -0.41883,1.02815 -1.52231,0.99386 -2.42226,0.7921 -0.74595,0.0348 -1.05149,-0.87608 -1.82981,-0.57345 -0.67533,-0.48897 -1.51397,-0.56649 -2.31682,-0.35779 -0.54976,-0.5968 -1.22117,0.0124 -1.79695,-0.0686 -1.0299,0.0333 -1.78714,-1.13696 -2.84059,-0.77669 -0.7077,-0.25343 -1.23786,0.32946 -1.85336,0.58687 -1.9019,0.38164 -2.79057,2.28785 -4.21184,3.39004 -0.69397,0.0631 -1.17509,0.57395 -1.7842,0.5332 -1.41932,0.26436 -2.91662,0.90838 -4.34868,0.32896 -0.67778,-0.37368 -2.17704,-0.16995 -1.90975,0.8582 0.1128,-0.49941 -0.53164,1.60209 -1.10398,1.38543 -1.57919,0.61519 -3.34427,1.10616 -4.54387,2.44587 -0.53261,0.57594 -1.35948,0.95807 -1.9534,1.23685 -0.77587,0.39208 -1.71701,1.0351 -1.92839,1.90721 -1.25796,0.98143 -2.79597,1.57724 -4.00538,2.60141 -0.73271,0.36226 -1.32221,1.39736 -2.20793,1.10516 -1.01128,0.6639 -1.80186,1.59117 -2.8097,2.24661 -1.93525,1.30493 -3.35359,3.20915 -5.06472,4.75112 -2.04805,0.86266 -3.98576,2.01901 -6.05343,2.81707 0.006,9.7666 0.0127,19.53718 0.0309,29.2993 -0.052,1.50123 0.11771,3.234 -0.0966,4.58813 -0.11722,4.0261 0.0162,8.05518 -0.10986,12.08179 6.34965,4.04647 12.61839,8.24799 18.94842,12.3362 7.35309,4.71186 14.70078,9.43514 21.92438,14.35075 2.21579,1.37996 4.28738,3.07796 6.53259,4.35011 3.21283,2.05279 6.38202,4.35754 9.52767,6.53259 3.07061,2.15268 6.12993,4.34612 9.21967,6.43321 5.49777,3.91976 11.08088,7.65417 16.57178,11.59281 8.28344,5.79565 16.41828,11.75778 24.6046,17.69108 -0.52279,-0.40399 1.78372,1.21847 1.87199,1.46048 1.11378,0.93075 2.42177,1.6001 3.5586,2.50849 7.0441,5.23413 14.20003,10.34552 21.3231,15.48275 4.33397,2.89906 8.51051,6.09729 12.82486,8.98642 3.57773,2.83347 7.45019,5.37476 11.12943,8.09344 3.9274,2.72913 7.72778,5.63564 11.62281,8.38414 8.11864,5.89305 16.2221,11.77169 24.30446,17.71444 1.58999,1.22989 3.44284,2.52538 4.91219,3.64546 4.86217,3.68769 9.79152,7.26159 14.63113,10.98702 7.48991,5.63071 15.06614,11.2674 22.58549,16.85783 3.16967,2.36981 6.28001,4.6905 9.39819,7.10703 1.13878,0.43188 0.75821,1.83263 1.06571,2.82502 10.7258,7.52093 21.41776,15.09513 32.14699,22.61667 1.41834,0.58385 1.47327,2.23915 1.64541,3.57144 0.359,2.81406 -0.45855,5.56404 -0.8818,8.30211 -0.12947,1.34368 1.2717,1.85352 2.36193,1.57681 0.90485,-1.01229 2.77733,-0.67235 2.90583,0.80297 0.0231,1.45199 1.72093,1.25866 2.69346,1.52948 1.88034,0.77479 3.85874,1.35422 5.57722,2.48273 1.08533,1.44404 0.74595,3.42925 1.00098,5.13423 0.48062,1.37549 2.29327,1.78643 3.09268,2.93932 0.19078,1.03709 1.02697,1.20356 1.9024,0.96454 1.15006,-0.30414 1.3531,1.00975 1.79498,1.75019 0.66552,0.94215 1.07798,-0.85124 1.89602,-0.42538 0.57087,0.30314 1.02109,0.82833 1.58705,0.23407 0.78764,-0.47314 0.73467,1.29145 1.65326,1.26661 1.43206,0.0656 1.38547,-2.18697 2.68365,-2.52437 2.58361,0.49098 4.1942,2.99897 5.36732,5.18839 0.33644,0.8791 0.60029,2.74104 1.89405,2.38279 1.28396,-0.67235 1.55272,1.36805 2.77684,1.2692 0.86414,0.081 1.51839,0.74387 2.45953,0.48646 1.21824,-0.0557 2.39577,0.0198 3.5787,0.2097 1.40216,1.18822 3.31387,0.94469 4.99263,1.35563 1.22559,0.0395 2.31974,0.55605 3.11033,1.48873 1.27071,0.38667 2.20107,1.3705 3.34182,2.04784 0.56252,0.77178 1.95733,0.31562 2.31681,0.98793 -0.48504,1.00228 0.23541,2.02596 -0.34576,3.00292 -0.4816,0.87957 -0.17214,1.70545 0.37764,2.38379 -0.43354,1.1717 -1.15742,2.77237 -0.024,3.83275 1.01617,0.4875 -0.14762,1.21453 0.079,1.93262 0.62677,0.95555 1.58018,2.26991 0.59979,3.34926 -0.93524,0.58089 -2.22068,1.70587 -1.68169,2.9075 -0.40804,0.89745 -1.08827,1.66466 -1.61402,2.52193 -1.06523,0.25887 -1.18342,1.43853 -0.62187,2.22023 -0.0373,0.83482 1.01324,1.21245 1.5792,1.74573 0.92594,0.65443 1.81265,1.37553 2.71407,2.08609 0.1432,0.97842 1.15987,1.28406 1.80234,1.84058 8.21036,-1.85197 16.4477,-3.61063 24.65561,-5.48805 15.25496,-3.59421 30.62323,-6.67717 45.93263,-10.02601 2.85531,-2.84592 5.6091,-5.79516 8.49334,-8.61171 6.63754,-6.81141 13.32167,-13.57806 20.15195,-20.19167 5.44284,-5.55961 10.90726,-11.0854 16.84789,-16.10436 3.46445,-2.8022 7.27172,-5.16011 10.89409,-7.7496 14.94209,-10.30224 29.81648,-20.71289 44.82479,-30.90983 10.32855,-7.14387 20.89881,-13.92093 31.2411,-21.03891 13.37467,-8.97153 26.78805,-17.89981 40.33676,-26.59702 0.88774,-0.61222 1.98437,-1.2309 2.6454,-1.80583 -3.62629,-7.91456 -7.25937,-15.83009 -10.91957,-23.73073 -0.57182,0.52127 -1.40751,0.31952 -2.0641,0.73793 -0.8985,0.77819 -2.16871,0.6475 -3.10111,1.34817 -2.59827,-1.99119 -5.19664,-3.98237 -7.79495,-5.97356 -0.58019,-0.70365 -1.70866,-0.5178 -2.24325,-1.15287 -0.91271,-0.075 -0.99656,-1.16728 -1.67087,-1.63737 -1.09079,-0.45668 -1.1751,-1.96883 -2.31096,-2.32661 -0.56499,-0.49594 -1.24431,-0.34884 -1.86555,-0.62911 -0.71509,-0.6634 -1.5513,-0.0949 -2.0064,0.55407 0.41881,0.69371 -0.2448,0.72353 -0.73225,1.08877 -0.15942,-0.6634 -1.25656,-0.97845 -1.09616,-1.78099 -0.49728,-0.41642 -1.30159,-0.18983 -1.88664,-0.14709 -0.44682,-0.11777 -0.84056,0.25989 -1.19221,-0.0914 -0.7504,-0.0388 -0.79109,1.28158 -1.33503,0.97497 -0.79103,0.46015 -1.65371,0.0914 -2.50367,-0.0244 -0.65421,0.323 -1.35167,0.3866 -2.07799,0.38164 -0.54427,-0.49345 -1.62083,0.29865 -1.82827,-0.60973 -0.58266,-0.42984 -0.87156,-1.3909 -1.54588,-1.58221 -0.48063,-0.5829 -1.11085,-0.96802 -1.75771,-1.41476 -0.63364,-0.33989 -1.0162,-1.17871 -0.96079,-1.87789 -0.94647,-1.09472 -0.99655,-2.72862 -1.94308,-3.86608 -0.98776,-0.71906 -0.61404,-2.09653 -1.44823,-2.92938 -0.3286,-0.77273 -1.05838,-1.33873 -1.29187,-2.13431 0.13388,-4.12896 0.0384,-8.31656 -0.0299,-12.46938 -5.9657,-9.00183 -12.21767,-17.81234 -17.89984,-27.0035 0.10541,-0.67433 1.02158,-1.27959 1.47083,-1.93305 0.29619,-1.53252 1.18824,-2.86975 1.65666,-4.37294 3.32463,-1.45998 6.64978,-2.91896 9.97488,-4.37893 0.45416,-1.31735 0.90934,-2.6357 1.36345,-3.95305 0.0267,-1.698 -0.52037,-3.44421 0.0534,-5.13326 -0.0672,-0.79807 0.82934,-1.94397 -0.11325,-2.38574 -0.38453,-0.66986 -0.72539,-1.29599 -1.17562,-1.96485 -0.59444,-1.3914 -0.56643,-2.96715 -1.00001,-4.41221 0.14178,-0.85373 -0.36485,-1.70893 -0.41787,-2.50849 -0.32561,-0.46711 -0.67432,-0.95459 -0.62868,-1.58868 0.005,-1.12355 -0.56204,-2.12585 -0.333,-3.25238 0.10442,0.54265 0.73909,-1.91018 -0.005,-1.87938 0.12163,-0.66936 0.21922,-1.3735 0.59982,-1.95242 0.1589,-0.29617 0.2109,-0.57346 0.24078,-1.44407 0.19617,-0.41047 0.33104,-1.01522 0.79988,-1.23536 0.70822,-0.0919 0.89265,-0.77422 0.68563,-1.39736 0.77883,-1.05547 -0.42077,-0.68774 -1.18637,-0.73148 -0.6969,-0.58588 0.55124,-0.70265 0.96425,-0.74837 0.52084,-0.33741 1.0544,-0.96106 1.2148,-1.68756 0.67782,-0.95659 0.63223,-2.10697 1.18487,-3.10728 -0.25458,-1.04703 0.1971,-2.05033 0.0398,-3.09089 -0.32024,-0.75234 0.68904,-1.0515 0.52378,-1.71588 -1.15737,-4.39781 -2.42908,-8.78816 -3.67381,-13.17056 0.53899,-4.93199 1.27218,-9.83765 1.89557,-14.75822 0.0564,-2.75546 -0.52776,-5.51143 -0.69204,-8.27086 -0.65818,-4.56923 -1.77389,-9.0689 -2.6361,-13.60635 -1.82047,-4.5583 -3.94059,-9.01921 -5.90527,-13.52783 -0.74007,-2.20239 -2.2389,-3.96797 -3.64641,-5.75491 -1.29962,-1.14244 -1.22607,-2.93834 -1.5679,-4.50713 -0.29231,-0.99236 0.63906,-1.42419 1.39773,-1.33475 1.074,-0.58786 2.15202,-1.10765 3.35311,-1.3899 -3.24668,-14.43622 -6.48999,-28.83716 -9.74247,-43.2699 -1.2639,-4.91014 -2.07607,-9.96289 -3.57238,-14.79401 -0.40412,-0.82937 -0.0736,-2.21232 -1.06525,-2.48762 -6.75616,-4.16424 -13.18139,-8.83585 -19.77431,-13.25353 -0.31873,-3.41389 -0.63751,-6.82777 -0.95583,-10.24166 -1.34769,-2.52339 -3.15348,-4.8997 -5.24077,-6.85908 -0.88578,-0.51084 -0.68517,-1.42866 -0.61306,-2.29581 -2.05339,-0.98142 -4.12404,-1.92807 -6.22658,-2.79918 0.62045,0.2261 -1.76692,0.2748 -1.99989,-0.40698 -1.20115,-2.29879 -1.5788,-4.87039 -2.09618,-7.38235 -1.02008,-1.71936 -2.27809,-3.42631 -3.39338,-5.13772 -0.3575,-1.0202 -1.23149,-2.03839 -0.86464,-3.17139 -0.0224,-1.04007 0.0108,-2.30674 -0.72243,-3.11772 -0.2001,-0.65792 -1.79396,-0.53916 -1.14269,-1.30841 0.62928,-0.62165 0.37227,-1.36854 0.11676,-2.11144 -0.87249,-0.94416 0.38645,-1.55936 0.20693,-2.49457 -0.51299,-0.88702 0.93034,-1.90919 -0.0892,-2.51992 -0.66262,-0.41244 -0.6312,-1.46842 0.3178,-1.31189 0.91561,-0.39803 0.66305,-0.4353 0.81311,-0.87857 0.95241,0.0263 0.73614,-1.1628 1.32076,-1.78694 0.43307,-1.47339 1.41195,-1.083805 2.46986,-0.464131 0.97547,0.456671 1.78423,-0.945656 2.70185,-1.27511 -0.23493,-1.628932 0.78912,-3.104803 1.152,-4.67957 0.0407,0.210698 -0.005,-0.60178 0.029,-0.813471 -0.1545,-0.514317 0.0196,-0.93671 0.58509,-0.802037 0.41633,-0.486486 1.06077,-0.100877 1.55565,-0.461644 -0.10643,-0.472578 0.53703,-0.486491 0.5915,-0.768744 0.33253,-0.148083 0.8342,-0.06808 1.20648,-0.332941 0.7518,0.02531 0.7901,-1.182683 1.59287,-1.259715 0.54292,0.100882 0.67002,-0.245478 0.87591,-0.593823 0.23938,-0.11032 0.61891,0.02785 0.94456,0.01887 0.005,-0.350326 0.411,-0.46313 0.5547,-0.606743 0.54539,0.123734 0.26776,-0.426361 0.65425,-0.519291 -0.22366,0.555068 0.45809,-0.122247 0.14123,-0.534196 -0.10494,-0.248466 0.46103,0.11032 0.2398,-0.376176 0.47725,0.159023 0.85921,-0.0055 1.23345,-0.05168 0.74993,0.02437 -0.64682,-0.404496 -0.0932,-0.469102 -0.0648,-0.435304 0.2153,-0.444249 0.49236,-0.611712 0.0103,-0.204732 0.36443,-0.11231 0.6587,-0.135172 -0.44579,-0.342873 -0.12013,-0.840793 0.35951,-0.930242 0.26922,0 0.60025,-0.313061 0.43943,-0.606739 -0.45369,0.232559 -1.50617,-0.277289 -1.01423,-0.910376 0.79842,0.133177 0.94063,-0.651964 1.40264,-1.116097 0,-0.622652 0.51542,-0.05913 0.78711,-0.315052 -0.25013,-0.116282 -0.80623,-0.421891 -0.87245,-0.90043 -0.48208,-0.462641 0.10493,-1.240824 -0.21969,-1.646322 0.0814,-0.648981 -0.3438,-1.049511 -0.25458,-1.66917 -0.45659,-0.32897 -0.24667,-0.817451 -0.41048,-1.257724 -0.25504,-0.444753 -0.35165,-0.892479 0.29867,-1.016222 0.41049,-0.291697 0.80137,-0.635069 1.27022,-0.515306 0.16231,-0.448728 0.13879,-1.372514 0.0799,-1.955906 0.35802,-0.98044 0.75826,-2.001622 1.1599,-2.874725 0.46637,-0.591838 1.40358,-0.855204 1.63365,-1.698995 0.21189,-1.135961 0.92843,-2.131312 1.76852,-2.935838 -0.19028,-0.120257 -1.07306,0.29418 -1.41247,-0.174921 -0.53702,-0.03581 -0.78911,-0.183865 -1.21288,-0.567979 -0.4816,-0.49345 -1.25057,-0.374199 -1.66942,-0.87609 0.10643,-0.457673 -0.74493,-0.903907 -0.24667,-1.198083 0.16133,-0.541654 -0.16134,-1.258718 0.0206,-1.814787 0.15993,-0.324985 0.6435,-1.105657 -0.0435,-1.042053 0.5576,-0.185851 0.45023,-1.025652 0.95733,-1.324805 0,-0.58687 1.01124,-0.183371 1.00637,-0.641533 0.0932,-0.575441 -0.62531,-0.888997 -0.67632,-1.528549 0.19813,-0.74042 -0.16283,-1.490283 -0.21876,-2.246102 -0.24073,-0.702163 0.40562,-1.3422 0.0682,-2.019016 0.21871,-0.529726 -0.20936,-0.792599 -0.57279,-1.002799 -0.84299,0.06857 -0.99408,-0.759795 -1.58016,-1.27511 -0.61647,-0.135661 -0.40758,-0.81149 -0.59491,-1.296983 0.26678,-0.532211 0.11821,-1.037588 0.33351,-1.575755 0.15988,-0.60377 -0.22021,-1.624947 -0.006,-2.304248 0.58266,-0.407482 -0.44972,-0.172933 -0.20501,-0.390585 0.62681,-0.350336 -0.60127,-0.369717 -0.0515,-0.750362 -0.0589,-0.444254 0.21726,-1.10616 0.74989,-1.110632 0.16086,-0.518295 0.21483,-1.524572 0.25303,-2.196416 -0.31682,-0.694704 0.45608,-1.156846 0.50223,-1.78844 0.0267,-0.620661 1.17014,-0.718556 0.61989,-1.387917 0.31195,-0.876578 -0.93035,-1.026153 -0.84304,-1.821734 0.42764,-0.336419 0.7886,-0.6952 0.89111,-1.289027 0.35507,-0.382137 0.7106,-1.425684 -0.0229,-1.629423 0.11771,-0.394064 0.51444,-0.93472 0.99754,-1.070381 0.59539,-0.108827 0.34427,-0.397045 0.0196,-0.79707 -0.16582,0.480527 -0.15211,-1.03013 0.34128,-1.319838 0.60964,-0.393567 0.0309,-1.128025 0.53903,-1.495254 0.4203,-0.687249 -0.68661,-0.397045 -1.01082,-0.717562 -0.32612,-0.825892 -0.66155,-0.128704 -1.21036,-0.0492 0.15741,0.212188 -0.39434,0.271819 -0.51293,-0.152556 -0.1099,-0.333438 -0.92057,-0.361266 -1.30997,-0.09988 -0.43115,-0.392573 -1.12955,-0.138146 -1.6646,-0.326978 -0.13192,-0.665385 -0.97641,-0.06709 -1.09804,-0.625631 -0.27169,-0.204237 -0.0313,-0.6306 -0.28155,-0.794089 -0.31682,-0.252438 0.30311,-0.141624 0.4282,-0.359775 0.0416,-0.406486 0.39477,-0.32499 0.64738,-0.14709 0.20347,-0.127213 0.67825,-0.147091 0.81115,-0.336917 0.31681,-0.144606 0.65374,-0.253929 0.88082,-0.547116 0.29624,0 0.66304,-0.05367 1.00296,-0.105845 0.25406,-0.269335 0.60908,-0.308095 0.83813,-0.574945 0.1422,-0.223617 0.10199,-0.688244 0.53412,-0.615693 0.4737,-0.169948 0.81601,-0.627618 1.30351,-0.666874 0.46299,0.311075 0.35754,-0.609233 0.69938,-0.637061 0.34623,-0.276292 0.66898,-0.04771 1.10056,-0.09491 0.13925,-0.268837 0.30208,-0.822414 0.41347,-1.239336 -0.54001,-0.217653 0.24274,-0.172433 0.30452,-0.405492 0.26388,-0.291199 0.4066,-0.525748 0.48357,-0.852229 -0.29474,-0.102864 -0.17363,-0.604263 -0.48208,-0.760795 -0.4463,-0.314555 0.18341,-0.725514 -0.20449,-0.911861 -0.30363,-0.130195 -0.90144,0.214673 -0.94806,-0.361266 0.3026,-0.06261 0.78224,-0.404498 1.1952,-0.44624 0.37962,-0.408473 0.99413,-0.133177 1.5037,-0.292192 0.18144,0.156034 0.50461,0.330456 0.80277,0.119262 0.12851,0.02882 0.36929,0.108827 0.51252,0.08945 0.29966,-0.09143 0.50957,-0.758806 0.92992,-0.778187 0.21969,0.391082 0.50069,0.04621 0.68461,-0.120753 0.50662,-0.155041 1.17509,-0.348346 1.41396,-0.868628 0.36928,-0.397542 -0.20992,-0.444749 -0.35259,-0.754335 -0.24915,0.123238 -0.58416,-0.0805 -0.88232,-0.148581 -0.40169,0.149078 -0.0323,-0.269831 -0.10007,-0.495436 0.0309,-0.510344 -0.0922,-1.349156 0.64397,-1.422205 0.043,-0.252936 -0.29475,-0.528233 -0.34478,-0.9416757 z"
         style="stroke:url(#pattern22)" />
    </clipPath>
    <pattern
       inkscape:collect="always"
       xlink:href="#pattern21"
       preserveAspectRatio="xMidYMid"
       id="pattern22"
       patternTransform="matrix(0.46762589,0,0,0.47050806,192.52731,163.11955)" />
    <pattern
       inkscape:collect="always"
       xlink:href="#pattern6-7"
       preserveAspectRatio="xMidYMid"
       id="pattern21"
       patternTransform="translate(190,350)" />
    <pattern
       patternUnits="userSpaceOnUse"
       width="29"
       height="20"
       patternTransform="translate(190,350)"
       preserveAspectRatio="xMidYMid"
       style="fill:#000000"
       id="pattern6-7"
       inkscape:label="pattern6-7"
       inkscape:collect="always"
       inkscape:isstock="true">
      <path
         style="fill:none;stroke:#000000;stroke-width:10;stroke-linecap:butt;stroke-dasharray:none;paint-order:stroke markers fill;stop-color:#000000"
         d="M 0,5 C 19,5 10,15 29,15"
         id="path4-2"
         sodipodi:nodetypes="cc" />
    </pattern>
  </defs>
  <sodipodi:namedview
     pagecolor="#ffffff"
     bordercolor="#666666"
     borderopacity="1"
     objecttolerance="10"
     gridtolerance="10"
     guidetolerance="10"
     inkscape:pageopacity="0"
     inkscape:pageshadow="2"
     inkscape:window-width="1920"
     inkscape:window-height="1001"
     id="namedview10"
     showgrid="false"
     fit-margin-top="0"
     fit-margin-left="0"
     fit-margin-right="0"
     fit-margin-bottom="0"
     inkscape:zoom="1.0263363"
     inkscape:cx="287.91733"
     inkscape:cy="253.81544"
     inkscape:window-x="-9"
     inkscape:window-y="-9"
     inkscape:window-maximized="1"
     inkscape:current-layer="g8"
     inkscape:showpageshadow="2"
     inkscape:pagecheckerboard="0"
     inkscape:deskcolor="#d1d1d1"
     showguides="false">
    <sodipodi:guide
       position="835.9833,415.38315"
       orientation="1,0"
       id="guide1"
       inkscape:locked="false" />
  </sodipodi:namedview>
  <path
     style="fill:#ffffff;stroke:#006233;stroke-width:0.8;stroke-miterlimit:0;stroke-dasharray:none;stroke-opacity:1;opacity:1"
     d="m 444.28321,0.75189511 c -0.22488,-0.00912 -0.45498,0.0212718 -0.67969,0.0429687 -0.36781,-0.02785 -0.71155,0.12958676 -1.08594,0.0585938 -0.34456,0.189928 -0.7171,0.11169275 -1.08789,0.1835938 -0.61931,0.22998 -1.0523,0.7673048 -1.45312,1.2636718 -0.42857,-0.05089 -0.46326,0.5546513 -0.91016,0.5351563 -0.47652,0.04557 -0.69663,0.488447 -0.69922,0.921875 -0.18106,0.269576 -0.72051,0.607074 -0.23437,0.890625 0.15307,0.272108 0.37767,0.7103075 0.14257,0.9921875 -0.27747,0.484569 -0.61226,0.98841 -1.19531,1.109375 -0.3953,0.224005 -0.85462,0.256221 -1.26562,0.40625 -0.3671,0.260563 -0.87155,0.1130589 -1.21875,0.4355469 -0.6187,0.196461 -1.21904,0.4276476 -1.78906,0.7285156 -0.69967,0.0051 -1.17228,0.6736067 -1.87305,0.7304687 -0.47526,0.1209151 -0.95409,0.1693474 -1.4336,0.2402344 -0.77283,0.06253 -1.55117,0.1643508 -2.27929,0.4492188 -0.63905,0.19003 -1.3151,0.061786 -1.94727,0.2050781 -0.33302,-0.08856 -0.69684,-0.2087915 -0.97265,-0.4140625 -0.28213,-0.460872 -0.87142,-0.2481971 -1.3086,-0.2207031 -0.3838,0.390186 -1.10904,0.086265 -1.40039,0.6425781 -0.22953,0.270437 -0.46299,0.560384 -0.83789,0.648437 -0.24694,0.375554 -0.66408,0.594245 -1.11133,0.494141 -0.42198,0.146485 -0.90349,0.1287 -1.21484,0.5 -0.45171,0.537025 -0.7966,1.174356 -1.16992,1.771485 -0.20077,0.328868 -0.43637,0.698066 -0.86914,0.666015 -0.38295,0.293019 -0.89466,0.284995 -1.20703,0.679688 -0.35899,0.439201 -1.04624,-0.173954 -1.32422,0.373047 -0.21185,0.284513 -0.68153,0.100991 -0.98828,0.253906 -0.63181,0.11818 -1.30707,0.02322 -1.9004,0.308594 -0.62826,0.01468 -1.25754,-0.0061 -1.88086,-0.101563 -0.75459,0.04658 -1.34534,-0.508408 -2.07421,-0.568359 -0.60549,-0.218283 -1.24958,-0.418991 -1.70508,-0.902344 -0.6264,-0.333527 -1.52623,-0.525168 -1.73438,-1.300781 0.0544,-0.579913 0.76619,-0.954783 0.71875,-1.572266 -0.55166,-0.292868 -1.24959,-0.152823 -1.79492,-0.498047 -0.4237,-0.145877 -0.59822,-0.665062 -1.0957,-0.683594 -0.47409,-0.08785 -0.9529,-0.1779992 -1.28906,-0.5566402 -0.48421,-0.1266871 -0.7421,-0.7370183 -1.30469,-0.6601563 -0.82387,0.04507 -1.40783,-0.6673722 -2.19727,-0.7539063 -0.39519,-0.143599 -0.8992,-0.1385472 -1.12695,-0.5664062 -0.45925,-0.400161 -1.10443,-0.2083091 -1.63477,-0.095703 -0.84321,0.245626 -1.7492,0.1163624 -2.60546,-0.00977 -0.37131,-0.109015 -0.69117,0.2659113 -1.08399,0.097656 -0.60148,-0.04101 -1.20091,-0.021634 -1.79297,0.1015625 -0.6263,0.0096 -1.24993,-0.067521 -1.86133,-0.1894531 -0.39728,-0.303501 -0.87424,-0.4227798 -1.36914,-0.4179688 -0.36163,-0.212613 -0.8479,-0.3364196 -1.15039,0.037109 -0.65754,0.385933 -1.4421,0.1382494 -2.16211,0.2089844 -0.45495,-0.0076 -0.89155,-0.1147303 -1.29101,-0.3164063 -0.70877,-0.0841 -1.47578,-0.048386 -2.08203,0.3730469 -0.43484,0.226284 -0.94305,0.2048791 -1.34766,-0.060547 -0.3672,-0.133573 -0.74474,-0.1598486 -1.07422,0.068359 -0.7944,0.477682 -1.74765,0.2597015 -2.60742,0.1328125 -0.77799,-0.128763 -1.60616,-0.2901869 -2.36719,-0.013672 -0.44239,0.06896 -1.02724,0.093727 -1.35742,-0.2382812 -0.26756,-0.343654 -0.67183,-0.8723464 -1.16992,-0.5839844 -0.68032,0.325121 -1.46504,0.1610654 -2.16602,0.4121094 -0.39661,0.111142 -0.76846,0.3299964 -1.20508,0.2871094 -0.62234,0.08856 -1.24258,0.3698033 -1.70507,0.7714843 -0.2634,0.541481 -0.7207,0.933578 -1.23829,1.21875 -0.52508,0.350844 -1.0857,0.7081092 -1.69726,0.8613284 -0.5431,0.01165 -1.11055,0.07583 -1.58398,0.345703 -0.0825,0.539658 -0.70002,0.294589 -1.04297,0.439453 -0.57414,0.43677 -1.32947,0.621704 -2.04883,0.501954 -0.66938,-0.0243 -1.32887,-0.154247 -1.99805,-0.08594 -0.4708,-0.0476 -0.88056,-0.355734 -1.375,-0.308594 -0.93845,0.01873 -1.87233,-0.346328 -2.55078,-0.994141 -0.33671,-0.1608638 -0.85794,-0.02082 -0.85156,0.408203 0.53394,0.56685 -0.0379,1.373638 -0.62696,1.617188 -0.42978,0.381072 -1.0176,0.180693 -1.52343,0.322266 -0.87339,0.137776 -2.04251,-0.197111 -2.24024,-1.181641 -0.28806,-0.470341 -0.78276,-0.840498 -1.28515,-1.064453 -0.62938,-0.1578272 -1.26457,-0.03344 -1.86524,0.171875 -0.68716,-0.0243 -1.40489,-0.0052 -2.02344,0.320312 -0.12638,0.747918 -0.85866,1.103248 -1.48242,1.375001 -0.23803,0.29945 0.008,0.767557 -0.29101,1.076172 -0.42036,0.575406 -1.12358,0.837901 -1.60157,1.363281 -0.48857,0.180611 -1.01458,0.249786 -1.42578,0.603515 -0.41323,0.366591 -1.02703,0.332242 -1.38086,0.775391 -0.9382,0.583508 -1.85596,1.323538 -2.98242,1.458985 -0.57607,0.155345 -1.18386,0.135469 -1.77734,0.185546 -0.39778,0.0096 -0.79395,0.09971 -1.18945,-0.0332 -0.74327,0.0056 -1.48594,-0.149744 -2.22266,-0.25 -0.41429,-0.132357 0.0511,-0.718071 -0.38477,-0.880859 -0.70503,-0.452062 -1.63255,-0.611673 -2.41211,-0.246094 -0.46214,0.191397 -0.97804,0.156002 -1.41015,0.425781 -0.49616,0.249474 -1.12453,-0.05841 -1.58008,0.314453 -0.49824,0.134485 -1.03454,0.163777 -1.44336,0.519532 -0.7618,0.328109 -1.60347,0.403611 -2.4082,0.576172 -0.57207,0.0051 -1.08163,0.323001 -1.66407,0.269531 -0.77298,-0.09144 -1.50837,0.315937 -2.27148,0.05664 -0.60745,-0.198739 -1.24868,-0.335322 -1.87695,-0.144532 -0.37591,0.0801 -0.76272,0.0095 -1.12891,0.0293 -0.5153,0.335654 -1.14969,0.454978 -1.75391,0.482422 -0.5784,-0.175904 -1.17757,-0.109955 -1.71484,0.158203 -0.59379,-0.04658 -1.19213,-0.06864 -1.78906,-0.01563 -0.0386,-0.0027 -0.0736,0.01205 -0.11133,0.01367 l 0,530.017572 c 0.2617,1.17741 0.16956,2.47918 0.34766,3.6543 0.49632,1.40104 2.36596,1.82137 3.1914,2.99609 0.19671,1.05673 1.06078,1.22598 1.96485,0.98243 1.18742,-0.30988 1.39705,1.02825 1.85351,1.7832 0.68706,0.96003 1.1125,-0.86703 1.95703,-0.43359 0.58973,0.30936 1.0543,0.84386 1.63867,0.23828 0.81345,-0.48204 0.75832,1.31633 1.70704,1.29101 1.47857,0.0668 1.42976,-2.22846 2.76953,-2.57226 2.66706,0.50026 4.33123,3.05618 5.54297,5.28711 0.34673,0.89572 0.61909,2.7928 1.95507,2.42773 1.3254,-0.68457 1.60372,1.39373 2.86719,1.29297 0.89232,0.0825 1.56724,0.75693 2.53906,0.49414 1.25774,-0.0567 2.47409,0.0215 3.69532,0.21484 1.44758,1.21067 3.41934,0.96262 5.15234,1.38086 1.26555,0.0405 2.39727,0.56718 3.21289,1.51758 1.31194,0.39393 2.27106,1.3958 3.44922,2.08594 0.58066,0.78635 2.02194,0.32273 2.39258,1.00781 -0.50077,1.02129 0.24306,2.06312 -0.35742,3.05859 -0.49733,0.89622 -0.17843,1.73853 0.38867,2.42969 -0.4475,1.19446 -1.19411,2.82377 -0.0234,3.9043 1.04909,0.49672 -0.15157,1.23904 0.082,1.9707 0.64743,0.97319 1.63168,2.31234 0.61914,3.41211 -0.96573,0.59191 -2.29332,1.73856 -1.73633,2.96289 -0.42138,0.91395 -1.12275,1.69442 -1.66601,2.56836 -1.09952,0.2633 -1.22286,1.46524 -0.64258,2.26172 -0.0385,0.85065 1.04695,1.2365 1.63086,1.7793 0.95572,0.66735 1.87038,1.40238 2.80078,2.12695 0.148,0.99648 1.19828,1.30739 1.86133,1.875 8.47686,-1.88713 16.98086,-3.67885 25.45508,-5.5918 15.7499,-3.66287 31.61777,-6.80456 47.42383,-10.21679 2.948,-2.89982 5.78951,-5.90349 8.76757,-8.77344 6.85297,-6.94041 13.75492,-13.83532 20.80664,-20.57422 5.61906,-5.66444 11.26153,-11.29612 17.39454,-16.41016 3.57714,-2.85526 7.506,-5.25794 11.24609,-7.89648 15.42624,-10.49747 30.78374,-21.10598 46.2793,-31.49609 10.66287,-7.27916 21.57639,-14.18467 32.2539,-21.4375 13.80882,-9.14149 27.65806,-18.23762 41.64649,-27.09961 0.91619,-0.62431 2.04844,-1.25401 2.73047,-1.83985 -3.74358,-8.0645 -7.49477,-16.13178 -11.27344,-24.18164 -0.59065,0.53125 -1.45308,0.325 -2.13086,0.75196 -0.92763,0.79298 -2.24007,0.661 -3.20313,1.375 -2.68243,-2.02891 -5.36444,-4.05894 -8.04687,-6.0879 -0.59906,-0.71713 -1.76454,-0.52661 -2.31641,-1.17382 -0.94245,-0.0765 -1.02854,-1.19043 -1.72461,-1.66993 -1.12578,-0.46533 -1.21358,-2.00503 -2.38672,-2.36914 -0.5833,-0.50549 -1.28471,-0.35515 -1.92578,-0.64062 -0.7387,-0.67597 -1.60098,-0.0972 -2.07031,0.56445 0.43196,0.70665 -0.25286,0.73702 -0.75586,1.10938 -0.16471,-0.67586 -1.29802,-0.99637 -1.13281,-1.81446 -0.51348,-0.42401 -1.34336,-0.19393 -1.94727,-0.15039 -0.46139,-0.1204 -0.86763,0.26442 -1.23047,-0.0937 -0.77511,-0.0395 -0.81766,1.3063 -1.3789,0.99414 -0.81652,0.46847 -1.70666,0.0921 -2.58399,-0.0254 -0.67593,0.32912 -1.3963,0.39373 -2.14648,0.38867 -0.5622,-0.5031 -1.67245,0.3043 -1.88672,-0.62109 -0.60145,-0.43799 -0.901,-1.41649 -1.59766,-1.61133 -0.49633,-0.59364 -1.14663,-0.98645 -1.81445,-1.4414 -0.65444,-0.34623 -1.04962,-1.20109 -0.99219,-1.91407 -0.97695,-1.11506 -1.02862,-2.78024 -2.00586,-3.93945 -1.01921,-0.73278 -0.6329,-2.13625 -1.49414,-2.98437 -0.3392,-0.78731 -1.09342,-1.36364 -1.33398,-2.17383 0.13828,-4.20729 0.0392,-8.4759 -0.0312,-12.70703 -6.15908,-9.17227 -12.6138,-18.14859 -18.48047,-27.51367 0.10876,-0.68741 1.05578,-1.30542 1.51953,-1.97071 0.30567,-1.5617 1.22548,-2.92375 1.70899,-4.45508 3.43279,-1.48712 6.86603,-2.97376 10.29882,-4.46093 0.46908,-1.34282 0.93898,-2.68653 1.40821,-4.0293 0.0279,-1.73017 -0.53613,-3.50891 0.0566,-5.23047 -0.0697,-0.81319 0.85435,-1.97995 -0.11914,-2.42969 -0.39733,-0.68224 -0.74766,-1.32072 -1.21289,-2.00195 -0.61353,-1.4177 -0.58576,-3.02355 -1.03321,-4.49609 0.14608,-0.86984 -0.3771,-1.74259 -0.43164,-2.55664 -0.33626,-0.47662 -0.69552,-0.9728 -0.64843,-1.61914 0.005,-1.14459 -0.58031,-2.16659 -0.34375,-3.31446 0.10815,0.55328 0.76245,-1.94495 -0.006,-1.91406 0.12537,-0.68154 0.22667,-1.40014 0.61914,-1.99024 0.16404,-0.30162 0.21911,-0.58395 0.25,-1.4707 0.20264,-0.41839 0.34041,-1.03345 0.82422,-1.25781 0.73131,-0.0935 0.92245,-0.78893 0.70898,-1.42383 0.80386,-1.07552 -0.43471,-0.70153 -1.22461,-0.74609 -0.71976,-0.59678 0.5698,-0.71514 0.99609,-0.76172 0.53723,-0.3433 1.08725,-0.98022 1.25196,-1.7207 0.70002,-0.97501 0.65427,-2.14701 1.22461,-3.16602 -0.26254,-1.06731 0.20407,-2.08806 0.041,-3.14844 -0.33099,-0.7664 0.71125,-1.07302 0.54102,-1.75 -1.19522,-4.48092 -2.50793,-8.95404 -3.79297,-13.41992 0.55626,-5.02508 1.31342,-10.02297 1.95703,-15.03711 0.0585,-2.80772 -0.54522,-5.61612 -0.71484,-8.42773 -0.67921,-4.65611 -1.83231,-9.24028 -2.72266,-13.86328 -1.87928,-4.64497 -4.0675,-9.19163 -6.0957,-13.78516 -0.76417,-2.24405 -2.31067,-4.04232 -3.76367,-5.86328 -1.34195,-1.16397 -1.26607,-2.99308 -1.61914,-4.5918 -0.30133,-1.01091 0.65989,-1.45288 1.44335,-1.36133 1.10894,-0.5987 2.2205,-1.12891 3.46094,-1.41601 -3.35203,-14.70976 -6.70074,-29.38352 -10.05859,-44.08985 -1.30525,-5.00326 -2.14291,-10.15125 -3.6875,-15.07422 -0.41753,-0.84461 -0.0759,-2.25499 -1.09961,-2.53515 -6.97551,-4.24283 -13.60917,-9.00279 -20.41602,-13.50391 -0.32902,-3.47872 -0.65931,-6.95682 -0.98828,-10.43554 -1.39122,-2.5714 -3.25491,-4.99224 -5.41015,-6.98829 -0.9144,-0.52088 -0.7074,-1.45628 -0.63282,-2.33984 -2.11979,-0.99972 -4.257,-1.9657 -6.42773,-2.85351 0.64032,0.23043 -1.8257,0.28099 -2.06641,-0.41407 -1.24044,-2.34223 -1.62941,-4.96162 -2.16406,-7.52148 -1.05319,-1.75214 -2.35229,-3.49194 -3.50391,-5.23633 -0.36938,-1.03907 -1.27106,-2.07576 -0.89257,-3.23047 -0.0233,-1.05937 0.0133,-2.35117 -0.74414,-3.17773 -0.2066,-0.6709 -1.85221,-0.54802 -1.17969,-1.33203 0.64938,-0.63334 0.38454,-1.39547 0.12109,-2.15235 -0.90082,-0.9624 0.39847,-1.58807 0.21289,-2.54101 -0.52928,-0.90407 0.96084,-1.94572 -0.0918,-2.56836 -0.68403,-0.42032 -0.65196,-1.49544 0.32812,-1.33594 0.94573,-0.40523 0.6845,-0.44318 0.83984,-0.89453 0.98316,0.0268 0.75931,-1.184602 1.36328,-1.820312 0.447,-1.5012 1.45695,-1.104117 2.54883,-0.472657 1.00762,0.46543 1.84371,-0.964621 2.79102,-1.300781 -0.24244,-1.65958 0.81511,-3.162888 1.18945,-4.767578 0.042,0.21463 -0.005,-0.612575 0.0293,-0.828125 -0.15944,-0.52437 0.0194,-0.955219 0.60351,-0.818359 0.42947,-0.49611 1.09488,-0.103194 1.60547,-0.470704 -0.10972,-0.48148 0.55457,-0.495703 0.61133,-0.783203 0.34299,-0.1512 0.86184,-0.06759 1.24609,-0.33789 0.77617,0.0258 0.81587,-1.206316 1.64454,-1.285157 0.56043,0.102891 0.69193,-0.248415 0.90429,-0.603515 0.24715,-0.11241 0.63819,0.02628 0.97461,0.01758 0.005,-0.35712 0.42401,-0.470897 0.57227,-0.617187 0.56336,0.125979 0.27679,-0.434967 0.67578,-0.529297 -0.23089,0.56538 0.47331,-0.124962 0.14648,-0.544922 -0.10837,-0.25338 0.47652,0.112237 0.24805,-0.382813 0.49297,0.16178 0.88695,-0.0054 1.27344,-0.05273 0.7741,0.0248 -0.66903,-0.412846 -0.0977,-0.478516 -0.0666,-0.44351 0.22188,-0.451957 0.50781,-0.623047 0.0106,-0.20877 0.37789,-0.114872 0.68165,-0.138671 -0.46061,-0.34938 -0.12446,-0.856026 0.37109,-0.947266 0.27824,0 0.6191,-0.320051 0.45312,-0.619141 -0.46816,0.23696 -1.55464,-0.280751 -1.04687,-0.925781 0.82468,0.13545 0.97038,-0.665402 1.44726,-1.138672 0,-0.63415 0.53323,-0.05964 0.81446,-0.320312 -0.25824,-0.11889 -0.83364,-0.430009 -0.90235,-0.917969 -0.49819,-0.47141 0.1086,-1.264355 -0.22656,-1.677735 0.084,-0.66133 -0.35438,-1.069811 -0.26172,-1.701171 -0.4713,-0.3354 -0.25511,-0.83238 -0.42383,-1.28125 -0.26309,-0.45302 -0.36291,-0.909237 0.3086,-1.035157 0.42365,-0.29743 0.82603,-0.64747 1.31054,-0.52539 0.1672,-0.45723 0.14269,-1.398198 0.082,-1.992188 0.3699,-0.99916 0.78253,-2.040037 1.19726,-2.929687 0.48149,-0.60305 1.44998,-0.872862 1.6875,-1.732422 0.21839,-1.15785 0.9583,-2.170164 1.82617,-2.990235 -0.19637,-0.122439 -1.10818,0.299846 -1.45898,-0.177734 -0.55443,-0.0365 -0.81522,-0.189138 -1.25195,-0.580078 -0.49748,-0.5033 -1.29005,-0.381178 -1.72266,-0.892578 0.10947,-0.46584 -0.77027,-0.921003 -0.25586,-1.220703 0.16643,-0.55171 -0.16665,-1.281006 0.0215,-1.847657 0.16491,-0.33155 0.66445,-1.127209 -0.0449,-1.0625 0.57582,-0.189419 0.46458,-1.044749 0.98828,-1.349609 0,-0.59774 1.04413,-0.187707 1.03907,-0.654297 0.0966,-0.58649 -0.64522,-0.906524 -0.69727,-1.558594 0.20467,-0.75424 -0.16889,-1.517479 -0.22656,-2.287109 -0.24841,-0.71582 0.41856,-1.36685 0.0703,-2.056641 0.22587,-0.540269 -0.21654,-0.809257 -0.5918,-1.023437 -0.87014,0.0699 -1.02618,-0.773955 -1.63085,-1.298828 -0.63617,-0.138636 -0.42007,-0.827672 -0.61329,-1.322266 0.27539,-0.542595 0.12181,-1.056897 0.34375,-1.605469 0.16495,-0.614849 -0.22712,-1.655488 -0.006,-2.347656 0.60149,-0.415453 -0.46571,-0.176406 -0.21289,-0.398437 0.64746,-0.356717 -0.61976,-0.376068 -0.0527,-0.763672 -0.0606,-0.452315 0.22384,-1.12775 0.77344,-1.132813 0.16643,-0.528114 0.2222,-1.551907 0.26172,-2.236328 -0.32715,-0.70827 0.47142,-1.178604 0.51953,-1.822265 0.0273,-0.632218 1.20694,-0.73192 0.63867,-1.414063 0.32223,-0.89278 -0.95936,-1.046922 -0.86914,-1.857422 0.44178,-0.342743 0.8143,-0.707625 0.91992,-1.3125 0.36664,-0.389123 0.73425,-1.452151 -0.0234,-1.660156 0.12158,-0.401376 0.53061,-0.953059 1.0293,-1.091797 0.6148,-0.110585 0.35494,-0.403398 0.0195,-0.810547 -0.1713,0.48953 -0.15612,-1.050303 0.35352,-1.345703 0.62923,-0.401275 0.0326,-1.149454 0.55664,-1.523437 0.43439,-0.700118 -0.70868,-0.405731 -1.04297,-0.732422 -0.33681,-0.841691 -0.68331,-0.129689 -1.25,-0.04883 0.16279,0.216056 -0.40646,0.276064 -0.5293,-0.15625 -0.11286,-0.339552 -0.95143,-0.367341 -1.35351,-0.101563 -0.44508,-0.399756 -1.16484,-0.139874 -1.7168,-0.332031 -0.13637,-0.678396 -1.00914,-0.06965 -1.13477,-0.638672 -0.28022,-0.208562 -0.0331,-0.641552 -0.29101,-0.808594 -0.3269,-0.256715 0.31279,-0.143508 0.4414,-0.365234 0.043,-0.414441 0.40856,-0.332067 0.66993,-0.150391 0.21029,-0.129624 0.70017,-0.15053 0.83789,-0.34375 0.32675,-0.147193 0.67392,-0.257898 0.9082,-0.55664 0.30608,0 0.68381,-0.05641 1.03516,-0.109375 0.26208,-0.274083 0.62887,-0.312079 0.86523,-0.583985 0.14673,-0.228106 0.10675,-0.702882 0.55273,-0.628906 0.48908,-0.173067 0.84251,-0.639181 1.34571,-0.679687 0.4784,0.317171 0.36758,-0.619577 0.7207,-0.648438 0.35748,-0.281425 0.69159,-0.04895 1.13672,-0.09766 0.14375,-0.273626 0.31335,-0.836696 0.42773,-1.261719 -0.55738,-0.221879 0.25061,-0.176639 0.31446,-0.414063 0.2724,-0.297069 0.41799,-0.534622 0.49804,-0.867187 -0.30416,-0.104863 -0.1796,-0.615438 -0.49804,-0.775391 -0.46072,-0.320413 0.18977,-0.739657 -0.21094,-0.929687 -0.31363,-0.132357 -0.93091,0.219054 -0.97852,-0.367188 0.31237,-0.06415 0.80809,-0.412546 1.23438,-0.455078 0.39221,-0.416365 1.02679,-0.136545 1.55273,-0.298828 0.18714,0.159042 0.52054,0.336289 0.82813,0.121094 0.13283,0.02937 0.38169,0.111543 0.52929,0.0918 0.30944,-0.09302 0.52726,-0.773222 0.96094,-0.792969 0.22716,0.398187 0.51629,0.04668 0.70703,-0.123046 0.52311,-0.158485 1.21229,-0.354576 1.45899,-0.884766 0.38123,-0.405022 -0.21588,-0.4542832 -0.36328,-0.7695313 -0.25712,0.1255221 -0.60416,-0.080872 -0.91211,-0.1503906 -0.4145,0.151801 -0.0318,-0.2761324 -0.10157,-0.5058594 0.0324,-0.520164 -0.0962,-1.3742797 0.66407,-1.4492187 0.0446,-0.257575 -0.30367,-0.5380124 -0.35547,-0.9589844 l -0.61524,0.109375 c -0.53454,-0.01519 -0.89935,0.5033567 -1.44726,0.4941407 -1.00018,0.07377 -1.81691,0.7287843 -2.78711,0.8964843 -0.72665,0.0481 -1.62544,0.2040478 -2.13477,-0.4570312 -0.42396,-0.349223 -1.02651,-0.034801 -1.48242,-0.3515625 -0.69571,-0.151041 -1.44798,0.399048 -2.10156,0 -0.16694,-0.394743 -0.58356,-0.4246764 -0.89258,-0.6308594 -0.21054,-0.383249 -0.7281,-0.543011 -1.06836,-0.21875 -0.90114,0.667054 -1.97798,1.0062969 -2.96094,1.5292969 -0.59895,0.265222 -1.19903,0.5292572 -1.74218,0.8945312 -0.54705,0.320818 -1.22385,0.00694 -1.78321,0.3339844 -0.5868,0.250335 -1.06232,0.8144908 -1.75976,0.7148437 -0.81804,-0.08517 -1.65464,-0.023338 -2.45117,-0.2617187 -0.80351,-0.215904 -1.75245,-0.3212183 -2.33985,-0.9570313 -0.25844,-0.365426 0.0628,-0.6754702 0.375,-0.8320312 0.41768,-0.397123 -0.54838,-0.4890121 -0.39258,-0.9394531 0.25991,-0.517329 0.58961,-1.0419892 0.82227,-1.5800781 -0.11509,-0.4630991 -0.60525,0.1142031 -0.73438,0.3457031 -0.36947,0.541937 -1.14027,-0.1871692 -1.46484,0.3730469 -0.40527,0.352261 -0.59854,-0.2528808 -0.86523,-0.4335938 -0.36416,-0.113775 -0.69829,-0.2755291 -1.03516,-0.4550781 -0.42137,0.121471 -0.80353,0.5556573 -1.28906,0.4121093 -0.77405,-0.2025359 -1.42306,-0.7062376 -2.04297,-1.1816406 -0.47854,-0.540722 -0.98926,-1.1458429 -1.71484,-1.3417968 -0.42395,0.1165599 -0.78955,0.4333202 -1.25391,0.3164062 -0.36669,-0.08922 -0.73493,0.027923 -1.0957,-0.029297 -0.10461,-0.348059 -0.74712,-0.3701884 -0.49805,-0.7871094 0.37575,-0.322084 -0.18349,-0.81479935 -0.51758,-0.4902343 -0.14825,0.393933 -0.47675,0.3882612 -0.85742,0.4257812 -0.5751,0.2959049 -1.09818,-0.3885195 -1.65039,-0.2421875 -0.23479,0.430441 -0.6536,0.287324 -0.95508,0.015625 -0.2994,-0.142535 -0.63794,-0.46184025 -0.96094,-0.26953124 -0.35661,-0.08501 -0.73085,0.033988 -1.09375,0.14062504 -0.19676,0.282235 0.39593,0.501222 0.50196,0.796875 0.37743,0.443656 0.97051,0.6323451 1.39062,0.9863281 0.20785,0.389579 0.38815,0.9034107 0.0703,1.2773438 -0.37566,0.5803679 -0.8301,1.1292819 -1.48242,1.40625 -0.49905,0.2471459 -0.7197,0.8870243 -1.32812,0.9277343 -0.43575,0.19641 -0.96515,0.3524843 -1.39063,0.035156 -0.73652,-0.247601 -1.54286,0.018298 -2.16992,0.4375 -0.6152,0.142636 -1.19242,0.450602 -1.83203,0.484375 -0.62007,0.195093 -1.31593,0.1794862 -1.94141,0.019531 -0.2956,-0.168814 -0.68461,-0.2880905 -0.89844,-0.5234375 -0.0197,-0.290083 0.13178,-0.8247985 -0.32226,-0.8359375 -0.44533,0.064 -0.85667,-0.2998702 -0.80274,-0.7539062 -0.30481,-0.03393 -0.73473,0.04833 -1.08593,-0.09375 -0.31732,0.04152 -0.62033,0.5638856 -0.96485,0.2128906 -0.2596,-0.44153 -0.59196,-0.1315589 -0.94336,-0.044922 -0.40067,-0.173928 -0.79944,0.1726045 -1.1875,-0.085937 -0.4155,-0.279247 -0.96649,0.055999 -1.35156,-0.3203125 -0.42913,0.07104 -0.64576,-0.2674119 -0.93554,-0.4199219 -0.38563,-0.0056 -0.84985,0.1074956 -1.06641,-0.3203124 -0.12218,-0.3076021 -0.46052,-0.6931491 -0.0898,-0.96875 0.15337,-0.57252 -0.67856,-0.5166474 -0.91796,-0.8808594 -0.27914,-0.286943 0.26837,-0.7222996 -0.39063,-0.6816406 -0.46827,-0.234993 -0.803,-0.7195504 -1.3457,-0.83398444 -0.20494,-0.13418001 -0.42552,-0.18228576 -0.65039,-0.19140625 z m 25.41797,0.25390629 c -0.0121,-2.297e-4 -0.0215,0.012254 -0.0215,0.046875 0.11575,0.064523 0.0577,-0.046186 0.0215,-0.046875 z m 1.98242,0.00391 c -0.0193,-0.00196 -0.0432,0.00221 -0.0723,0.017578 0.11612,0.3570971 0.20709,-0.00387 0.0723,-0.017578 z m -34.07617,3.1757815 c -0.0107,0.00375 -0.0186,0.021848 -0.0137,0.066406 0.11112,0.044242 0.0456,-0.077644 0.0137,-0.066406 z m 11.11914,0.265625 c -0.0113,-0.00263 -0.0304,0.00451 -0.0547,0.033203 0.0652,0.076939 0.0887,-0.025302 0.0547,-0.033203 z m 49.46875,0.050781 c -0.11464,0.00214 -0.21294,0.046032 -0.19532,0.1640625 0.11641,0.235297 0.47292,0.1526846 0.49024,-0.083984 -0.0483,-0.0438 -0.18029,-0.082218 -0.29492,-0.080078 z m -1.7168,0.052734 c -0.0237,-0.018182 -0.0503,0.00675 -0.0684,0.1152344 4e-4,0.04405 0,0.088758 0,0.1328125 0.19542,0.2508292 0.13958,-0.1935022 0.0684,-0.2480469 z m -44.14844,0.3398437 c -0.0122,-0.00279 -0.0262,0.00834 -0.0391,0.046875 0.0937,0.096116 0.0755,-0.038513 0.0391,-0.046875 z m 1.47461,0.060547 c -0.008,3.712e-4 -0.0165,0.012297 -0.0195,0.042969 0.0739,0.051645 0.0444,-0.044082 0.0195,-0.042969 z m -2.36914,0.1269531 c -0.016,-8.283e-4 -0.0396,0.012974 -0.0723,0.052734 0.0944,0.079521 0.12015,-0.050249 0.0723,-0.052734 z m 4.13477,0.015625 c -0.005,0.00508 -0.007,0.024734 0,0.066406 0.0571,0.026205 0.014,-0.081658 0,-0.066406 z m -0.42578,0.041016 c -0.009,0.00218 -0.0169,0.016312 -0.0156,0.050781 0.0905,0.04113 0.0432,-0.057317 0.0156,-0.050781 z m 0.23437,0.00195 c -0.011,-0.00283 -0.0279,0.00118 -0.0527,0.021484 0.0609,0.063682 0.0857,-0.013005 0.0527,-0.021484 z m 0.31445,0 c -0.0147,-0.00575 -0.0254,0.00634 -0.0254,0.050781 0.14165,0.1351935 0.0696,-0.033533 0.0254,-0.050781 z m -1.63281,0.00195 c -0.0111,-0.00295 -0.0306,0.00255 -0.0566,0.021484 0.0601,0.062392 0.0901,-0.012639 0.0566,-0.021484 z m 2.66211,0.6152344 c -0.0161,0.00405 -0.0286,0.030116 -0.0273,0.09375 0.15654,0.075648 0.0756,-0.1059043 0.0273,-0.09375 z m -0.51367,0.078125 c -0.0155,-0.00132 -0.0333,0.00861 -0.0527,0.042969 0.11355,0.074467 0.0992,-0.039022 0.0527,-0.042969 z m 0.38086,0.109375 c -0.008,0.0013 -0.0163,0.013339 -0.0176,0.044922 0.0789,0.044355 0.0429,-0.048826 0.0176,-0.044922 z m 43.96094,0.2089844 c -0.0134,-0.00586 -0.0253,0.00405 -0.0312,0.044922 0.11825,0.1298384 0.0716,-0.027339 0.0312,-0.044922 z m -43.7754,0.1933593 c -0.0139,7.526e-4 -0.0263,0.014661 -0.0312,0.054688 0.12494,0.064823 0.0731,-0.056945 0.0312,-0.054688 z m -0.0586,0.2753907 c -0.0134,-0.00462 -0.0307,0.00808 -0.0488,0.054687 0.0959,0.1282432 0.089,-0.040829 0.0488,-0.054687 z M 432.5957,8.14642 c -0.009,0.00234 -0.0149,0.015005 -0.0137,0.048828 0.0929,0.038392 0.042,-0.055856 0.0137,-0.048828 z m -31.37305,1.3554687 c -0.0125,0.00486 -0.0218,0.025049 -0.0195,0.072266 0.12365,0.038317 0.0569,-0.086851 0.0195,-0.072266 z m -58,0.1425781 c -0.0115,-0.00772 -0.0298,-0.00821 -0.0527,0.00977 0.0687,0.106446 0.0871,0.013388 0.0527,-0.00977 z m -0.043,0.0625 c -0.0157,-0.00865 -0.0364,-0.00989 -0.0605,0.00586 0.10724,0.1113825 0.10764,0.02009 0.0605,-0.00586 z m 58.84766,0.3437502 c -0.0103,0.0052 -0.0202,0.0259 -0.0215,0.07227 0.097,0.03379 0.0525,-0.08779 0.0215,-0.07227 z m 0.0957,0.111328 c -0.0134,0.0035 -0.022,0.02211 -0.0195,0.07227 0.13292,0.05663 0.0597,-0.08278 0.0195,-0.07227 z m 18.44922,0.06055 c -0.0151,-0.0085 -0.0386,-0.0091 -0.0723,0.01172 0.0848,0.119129 0.11773,0.0138 0.0723,-0.01172 z m -0.16211,0.02148 c -0.0276,-0.0015 -0.0574,0.0099 -0.082,0.04687 0.22033,0.08085 0.16474,-0.04239 0.082,-0.04687 z m -0.0547,0.08398 c -0.0109,0.0018 -0.0215,0.0134 -0.0273,0.04492 0.0945,0.03934 0.0602,-0.05036 0.0273,-0.04492 z m 0.0859,0 c -0.009,0.0023 -0.0156,0.01422 -0.0156,0.04297 0.0833,0.02962 0.0417,-0.04988 0.0156,-0.04297 z m -18.21484,0.02539 c -0.0121,-5.77e-4 -0.0217,0.01021 -0.0234,0.04492 0.1129,0.06802 0.0597,-0.04319 0.0234,-0.04492 z m -49.24219,0.119141 c -0.022,0.0064 -0.0514,0.0399 -0.084,0.121093 0.15233,0.08442 0.14993,-0.140383 0.084,-0.121093 z m 66.17578,0.273437 c -0.0241,-0.0047 -0.0531,0.01174 -0.0781,0.06836 0.18585,0.146927 0.1503,-0.05429 0.0781,-0.06836 z m -0.49609,0.162109 c -0.0123,-5.96e-4 -0.0236,0.01057 -0.0254,0.04492 0.11503,0.06756 0.0623,-0.04313 0.0254,-0.04492 z m -0.13477,0.05469 c -0.0162,-0.0016 -0.0317,0.01695 -0.0371,0.07226 0.14541,0.115332 0.0856,-0.06734 0.0371,-0.07226 z m -0.40625,0.152343 c -0.0236,-0.0016 -0.0423,0.01961 -0.0449,0.08594 0.22193,0.134623 0.11577,-0.08118 0.0449,-0.08594 z m 0.33789,0.0078 c -0.0135,0.0022 -0.0224,0.02185 -0.0176,0.07617 0.13797,0.07637 0.058,-0.08286 0.0176,-0.07617 z m -80.63858,0.519549 c -0.014,3.86e-4 -0.0283,0.01562 -0.0352,0.05469 0.12248,0.06661 0.0773,-0.05585 0.0352,-0.05469 z m -0.006,0.08789 c -0.0157,-0.0072 -0.04,-0.0035 -0.0762,0.02344 0.0861,0.117459 0.12341,-0.0019 0.0762,-0.02344 z m 79.75781,0.386719 c -0.0121,-0.0066 -0.0313,-0.002 -0.0586,0.02344 0.067,0.109218 0.0949,-0.0036 0.0586,-0.02344 z m -0.15625,0.365234 c -0.0153,0.0026 -0.0266,0.02097 -0.0254,0.06836 0.14902,0.06046 0.0713,-0.07613 0.0254,-0.06836 z m -2.00586,1.683594 c -0.0117,-0.0075 -0.0279,-0.0057 -0.0488,0.01367 0.0744,0.106787 0.0839,0.0088 0.0488,-0.01367 z m -0.002,0.07226 c -0.0303,-0.0067 -0.0716,0.0052 -0.12109,0.05078 -0.0516,0.03038 -0.0112,0.09441 -0.0234,0.138672 0.22219,0.02203 0.2354,-0.169453 0.14453,-0.189453 z m -0.9082,0.470703 c -0.0169,1.95e-4 -0.0339,0.01225 -0.0449,0.04883 0.14191,0.06403 0.0955,-0.04941 0.0449,-0.04883 z m -91.06641,0.71875 c -0.0159,-0.0046 -0.0352,0.0052 -0.0508,0.04687 0.12452,0.11875 0.0984,-0.03318 0.0508,-0.04687 z m -2.57031,0.691407 c -0.012,-8.4e-4 -0.0217,0.01039 -0.0234,0.04492 0.11225,0.07022 0.0595,-0.0424 0.0234,-0.04492 z m 5.8418,0.955078 c -0.0218,0.0034 -0.0467,0.02595 -0.0703,0.08203 0.16691,0.06793 0.13575,-0.09235 0.0703,-0.08203 z m -18.00391,0.03711 c -0.0137,0.0026 -0.0291,0.02285 -0.041,0.07422 0.11032,0.0676 0.0822,-0.08199 0.041,-0.07422 z"
     id="rect4"
     inkscape:connector-curvature="0"
     inkscape:label="rect4" />
  <g
     id="g8"
     transform="matrix(1.031768,0,0,1.0192007,-115.89036,-4.4972427)"
     style="stroke:#0978ab;stroke-width:1.00005;stroke-dasharray:none;stroke-opacity:1;opacity:1"
     clip-path="url(#clipPath21)"
     inkscape:label="g8">
    <path
       fill="#ffffff"
       d="M -55.295094,-42.392085 H 980.09815 V 609.08065 H -55.295094 Z"
       id="path1"
       style="stroke:#0978ab;stroke-width:0;stroke-dasharray:none;stroke-opacity:1" />
    <path
       fill="#006633"
       d="M 0,0 H 450 V 600 H 0 Z"
       id="path2"
       style="stroke:#0978ab;stroke-width:0;stroke-dasharray:none;stroke-opacity:1" />
    <path
       fill="#d21034"
       d="m 621.37483,216.74363 a 198.05952,197.28561 0 1 0 0,197.28561 158.44761,157.82849 0 1 1 0,-197.28561 m 7.62195,98.6428 -179.14652,-57.98078 110.71863,151.79566 V 221.57181 L 449.85026,373.36722 Z"
       id="path3"
       style="stroke:#006633;stroke-width:0;stroke-dasharray:none;stroke-opacity:1" />
  </g>
</svg>
